# Tiled2Unity generated file. Do not modify by hand.
# Wavefront file for 'prva_mesh_0011.obj'

# Vertices (Count = 368)
v -11.84 -4.64 0
v -12.48 -4.64 0
v -12.48 -4.32 0
v -11.84 -4.32 0
v -12.48 -4.64 0
v -13.12 -4.64 0
v -13.12 -4.32 0
v -12.48 -4.32 0
v -11.84 -4.96 0
v -12.48 -4.96 0
v -12.48 -4.64 0
v -11.84 -4.64 0
v -12.48 -4.96 0
v -13.12 -4.96 0
v -13.12 -4.64 0
v -12.48 -4.64 0
v -10.88 -5.44 0
v -11.52 -5.44 0
v -11.52 -5.12 0
v -10.88 -5.12 0
v -11.52 -5.44 0
v -12.16 -5.44 0
v -12.16 -5.12 0
v -11.52 -5.12 0
v -18.24 -5.6 0
v -18.88 -5.6 0
v -18.88 -5.28 0
v -18.24 -5.28 0
v -18.88 -5.6 0
v -19.52 -5.6 0
v -19.52 -5.28 0
v -18.88 -5.28 0
v -10.88 -5.76 0
v -11.52 -5.76 0
v -11.52 -5.44 0
v -10.88 -5.44 0
v -11.52 -5.76 0
v -12.16 -5.76 0
v -12.16 -5.44 0
v -11.52 -5.44 0
v -18.24 -5.92 0
v -18.88 -5.92 0
v -18.88 -5.6 0
v -18.24 -5.6 0
v -18.88 -5.92 0
v -19.52 -5.92 0
v -19.52 -5.6 0
v -18.88 -5.6 0
v -10.88 -6.08 0
v -11.52 -6.08 0
v -11.52 -5.76 0
v -10.88 -5.76 0
v -11.52 -6.08 0
v -12.16 -6.08 0
v -12.16 -5.76 0
v -11.52 -5.76 0
v -18.24 -6.24 0
v -18.88 -6.24 0
v -18.88 -5.92 0
v -18.24 -5.92 0
v -18.88 -6.24 0
v -19.52 -6.24 0
v -19.52 -5.92 0
v -18.88 -5.92 0
v -12.48 -7.84 0
v -13.12 -7.84 0
v -13.12 -7.52 0
v -12.48 -7.52 0
v -13.12 -7.84 0
v -13.76 -7.84 0
v -13.76 -7.52 0
v -13.12 -7.52 0
v -10.88 -8 0
v -11.52 -8 0
v -11.52 -7.68 0
v -10.88 -7.68 0
v -11.52 -8 0
v -12.16 -8 0
v -12.16 -7.68 0
v -11.52 -7.68 0
v -12.48 -8.16 0
v -13.12 -8.16 0
v -13.12 -7.84 0
v -12.48 -7.84 0
v -13.12 -8.16 0
v -13.76 -8.16 0
v -13.76 -7.84 0
v -13.12 -7.84 0
v -10.88 -8.32 0
v -11.52 -8.32 0
v -11.52 -8 0
v -10.88 -8 0
v -11.52 -8.32 0
v -12.16 -8.32 0
v -12.16 -8 0
v -11.52 -8 0
v -10.88 -8.639999 0
v -11.52 -8.639999 0
v -11.52 -8.32 0
v -10.88 -8.32 0
v -11.52 -8.639999 0
v -12.16 -8.639999 0
v -12.16 -8.32 0
v -11.52 -8.32 0
v -12.8 -8.96 0
v -13.44 -8.96 0
v -13.44 -8.639999 0
v -12.8 -8.639999 0
v -13.44 -8.96 0
v -14.08 -8.96 0
v -14.08 -8.639999 0
v -13.44 -8.639999 0
v -11.52 -9.28 0
v -12.16 -9.28 0
v -12.16 -8.96 0
v -11.52 -8.96 0
v -12.8 -9.28 0
v -13.44 -9.28 0
v -13.44 -8.96 0
v -12.8 -8.96 0
v -13.44 -9.28 0
v -14.08 -9.28 0
v -14.08 -8.96 0
v -13.44 -8.96 0
v -11.52 -9.599999 0
v -12.16 -9.599999 0
v -12.16 -9.28 0
v -11.52 -9.28 0
v -12.8 -9.599999 0
v -13.44 -9.599999 0
v -13.44 -9.28 0
v -12.8 -9.28 0
v -13.44 -9.599999 0
v -14.08 -9.599999 0
v -14.08 -9.28 0
v -13.44 -9.28 0
v -10.88 -9.92 0
v -11.52 -9.92 0
v -11.52 -9.599999 0
v -10.88 -9.599999 0
v -11.52 -9.92 0
v -12.16 -9.92 0
v -12.16 -9.599999 0
v -11.52 -9.599999 0
v -10.88 -10.24 0
v -11.52 -10.24 0
v -11.52 -9.92 0
v -10.88 -9.92 0
v -11.52 -10.24 0
v -12.16 -10.24 0
v -12.16 -9.92 0
v -11.52 -9.92 0
v -18.24 -11.68 0
v -18.88 -11.68 0
v -18.88 -11.36 0
v -18.24 -11.36 0
v -12.8 -11.84 0
v -13.44 -11.84 0
v -13.44 -11.52 0
v -12.8 -11.52 0
v -13.44 -11.84 0
v -14.08 -11.84 0
v -14.08 -11.52 0
v -13.44 -11.52 0
v -18.24 -12 0
v -18.88 -12 0
v -18.88 -11.68 0
v -18.24 -11.68 0
v -12.8 -12.16 0
v -13.44 -12.16 0
v -13.44 -11.84 0
v -12.8 -11.84 0
v -13.44 -12.16 0
v -14.08 -12.16 0
v -14.08 -11.84 0
v -13.44 -11.84 0
v -15.04 -12.32 0
v -15.68 -12.32 0
v -15.68 -12 0
v -15.04 -12 0
v -15.68 -12.32 0
v -16.32 -12.32 0
v -16.32 -12 0
v -15.68 -12 0
v -16.32 -12.32 0
v -16.96 -12.32 0
v -16.96 -12 0
v -16.32 -12 0
v -16.96 -12.32 0
v -17.6 -12.32 0
v -17.6 -12 0
v -16.96 -12 0
v -18.24 -12.32 0
v -18.88 -12.32 0
v -18.88 -12 0
v -18.24 -12 0
v -18.88 -12.32 0
v -19.52 -12.32 0
v -19.52 -12 0
v -18.88 -12 0
v -15.04 -12.64 0
v -15.68 -12.64 0
v -15.68 -12.32 0
v -15.04 -12.32 0
v -15.68 -12.64 0
v -16.32 -12.64 0
v -16.32 -12.32 0
v -15.68 -12.32 0
v -16.32 -12.64 0
v -16.96 -12.64 0
v -16.96 -12.32 0
v -16.32 -12.32 0
v -16.96 -12.64 0
v -17.6 -12.64 0
v -17.6 -12.32 0
v -16.96 -12.32 0
v -18.24 -12.64 0
v -18.88 -12.64 0
v -18.88 -12.32 0
v -18.24 -12.32 0
v -18.88 -12.64 0
v -19.52 -12.64 0
v -19.52 -12.32 0
v -18.88 -12.32 0
v -15.04 -12.96 0
v -15.68 -12.96 0
v -15.68 -12.64 0
v -15.04 -12.64 0
v -15.68 -12.96 0
v -16.32 -12.96 0
v -16.32 -12.64 0
v -15.68 -12.64 0
v -16.32 -12.96 0
v -16.96 -12.96 0
v -16.96 -12.64 0
v -16.32 -12.64 0
v -16.96 -12.96 0
v -17.6 -12.96 0
v -17.6 -12.64 0
v -16.96 -12.64 0
v -18.24 -12.96 0
v -18.88 -12.96 0
v -18.88 -12.64 0
v -18.24 -12.64 0
v -18.88 -12.96 0
v -19.52 -12.96 0
v -19.52 -12.64 0
v -18.88 -12.64 0
v -15.04 -13.28 0
v -15.68 -13.28 0
v -15.68 -12.96 0
v -15.04 -12.96 0
v -15.68 -13.28 0
v -16.32 -13.28 0
v -16.32 -12.96 0
v -15.68 -12.96 0
v -16.32 -13.28 0
v -16.96 -13.28 0
v -16.96 -12.96 0
v -16.32 -12.96 0
v -16.96 -13.28 0
v -17.6 -13.28 0
v -17.6 -12.96 0
v -16.96 -12.96 0
v -18.24 -13.28 0
v -18.88 -13.28 0
v -18.88 -12.96 0
v -18.24 -12.96 0
v -18.88 -13.28 0
v -19.52 -13.28 0
v -19.52 -12.96 0
v -18.88 -12.96 0
v -15.04 -13.6 0
v -15.68 -13.6 0
v -15.68 -13.28 0
v -15.04 -13.28 0
v -15.68 -13.6 0
v -16.32 -13.6 0
v -16.32 -13.28 0
v -15.68 -13.28 0
v -16.32 -13.6 0
v -16.96 -13.6 0
v -16.96 -13.28 0
v -16.32 -13.28 0
v -16.96 -13.6 0
v -17.6 -13.6 0
v -17.6 -13.28 0
v -16.96 -13.28 0
v -18.24 -13.6 0
v -18.88 -13.6 0
v -18.88 -13.28 0
v -18.24 -13.28 0
v -18.88 -13.6 0
v -19.52 -13.6 0
v -19.52 -13.28 0
v -18.88 -13.28 0
v -11.84 -13.92 0
v -12.48 -13.92 0
v -12.48 -13.6 0
v -11.84 -13.6 0
v -12.48 -13.92 0
v -13.12 -13.92 0
v -13.12 -13.6 0
v -12.48 -13.6 0
v -11.84 -14.24 0
v -12.48 -14.24 0
v -12.48 -13.92 0
v -11.84 -13.92 0
v -12.48 -14.24 0
v -13.12 -14.24 0
v -13.12 -13.92 0
v -12.48 -13.92 0
v -14.4 -14.24 0
v -15.04 -14.24 0
v -15.04 -13.92 0
v -14.4 -13.92 0
v -15.04 -14.24 0
v -15.68 -14.24 0
v -15.68 -13.92 0
v -15.04 -13.92 0
v -11.84 -14.56 0
v -12.48 -14.56 0
v -12.48 -14.24 0
v -11.84 -14.24 0
v -12.48 -14.56 0
v -13.12 -14.56 0
v -13.12 -14.24 0
v -12.48 -14.24 0
v -14.4 -14.56 0
v -15.04 -14.56 0
v -15.04 -14.24 0
v -14.4 -14.24 0
v -15.04 -14.56 0
v -15.68 -14.56 0
v -15.68 -14.24 0
v -15.04 -14.24 0
v -11.84 -14.88 0
v -12.48 -14.88 0
v -12.48 -14.56 0
v -11.84 -14.56 0
v -12.48 -14.88 0
v -13.12 -14.88 0
v -13.12 -14.56 0
v -12.48 -14.56 0
v -14.4 -14.88 0
v -15.04 -14.88 0
v -15.04 -14.56 0
v -14.4 -14.56 0
v -15.04 -14.88 0
v -15.68 -14.88 0
v -15.68 -14.56 0
v -15.04 -14.56 0
v -11.84 -15.2 0
v -12.48 -15.2 0
v -12.48 -14.88 0
v -11.84 -14.88 0
v -12.48 -15.2 0
v -13.12 -15.2 0
v -13.12 -14.88 0
v -12.48 -14.88 0
v -14.4 -15.2 0
v -15.04 -15.2 0
v -15.04 -14.88 0
v -14.4 -14.88 0
v -15.04 -15.2 0
v -15.68 -15.2 0
v -15.68 -14.88 0
v -15.04 -14.88 0

# Texture cooridinates (Count = 123)
vt 0 0.2380952
vt 0.0625 0.2380952
vt 0.0625 0.2619048
vt 0 0.2619048
vt 0.125 0.2380952
vt 0.125 0.2619048
vt 0 0.2142857
vt 0.0625 0.2142857
vt 0.125 0.2142857
vt 0.375 0.1190476
vt 0.4375 0.1190476
vt 0.4375 0.1428571
vt 0.375 0.1428571
vt 0.5 0.1190476
vt 0.5 0.1428571
vt 0.125 0.1190476
vt 0.1875 0.1190476
vt 0.1875 0.1428571
vt 0.125 0.1428571
vt 0.25 0.1190476
vt 0.25 0.1428571
vt 0.375 0.09523809
vt 0.4375 0.09523809
vt 0.5 0.09523809
vt 0.125 0.09523809
vt 0.1875 0.09523809
vt 0.25 0.09523809
vt 0.375 0.0714286
vt 0.4375 0.0714286
vt 0.5 0.0714286
vt 0.125 0.0714286
vt 0.1875 0.0714286
vt 0.25 0.0714286
vt 0.1875 0.2380952
vt 0.1875 0.2619048
vt 0.25 0.2380952
vt 0.25 0.2619048
vt 0.1875 0.2142857
vt 0.25 0.2142857
vt 0.3125 0.1190476
vt 0.3125 0.1428571
vt 0.9375 0.2619048
vt 1 0.2619048
vt 1 0.2857143
vt 0.9375 0.2857143
vt 0.3125 0.09523809
vt 0.9375 0.2380952
vt 1 0.2380952
vt 0.3125 0.0714286
vt 0.875 0.2142857
vt 0.9375 0.2142857
vt 0.875 0.2380952
vt 1 0.2142857
vt 0.875 0.1904762
vt 0.9375 0.1904762
vt 1 0.1904762
vt 0.75 0.2619048
vt 0.8125 0.2619048
vt 0.8125 0.2857143
vt 0.75 0.2857143
vt 0 0.1190476
vt 0.0625 0.1190476
vt 0.0625 0.1428571
vt 0 0.1428571
vt 0.75 0.2380952
vt 0.8125 0.2380952
vt 0 0.09523809
vt 0.0625 0.09523809
vt 0.5625 0.09523809
vt 0.5625 0.1190476
vt 0.625 0.09523809
vt 0.625 0.1190476
vt 0.75 0.09523809
vt 0.8125 0.09523809
vt 0.8125 0.1190476
vt 0.75 0.1190476
vt 0.875 0.09523809
vt 0.875 0.1190476
vt 0.75 0.2142857
vt 0.8125 0.2142857
vt 0.5625 0.0714286
vt 0.625 0.0714286
vt 0.75 0.0714286
vt 0.8125 0.0714286
vt 0.875 0.0714286
vt 0.75 0.1904762
vt 0.8125 0.1904762
vt 0.5 0.04761904
vt 0.5625 0.04761904
vt 0.625 0.04761904
vt 0.75 0.04761904
vt 0.8125 0.04761904
vt 0.875 0.04761904
vt 0.75 0.1666667
vt 0.8125 0.1666667
vt 0.875 0.1666667
vt 0.5 0.02380955
vt 0.5625 0.02380955
vt 0.625 0.02380955
vt 0.75 0.02380955
vt 0.8125 0.02380955
vt 0.875 0.02380955
vt 0.75 0.1428571
vt 0.8125 0.1428571
vt 0.875 0.1428571
vt 0.5 0
vt 0.5625 0
vt 0.625 0
vt 0.75 0
vt 0.8125 0
vt 0.875 0
vt 0.3125 0.2380952
vt 0.3125 0.2619048
vt 0.375 0.2380952
vt 0.375 0.2619048
vt 0.3125 0.2142857
vt 0.375 0.2142857
vt 0.25 0.1904762
vt 0.3125 0.1904762
vt 0.375 0.1904762
vt 0.25 0.1666667
vt 0.3125 0.1666667
vt 0.375 0.1666667

# Normal
vn 0 0 -1

# Mesh description
g prva_mesh_0011

# Faces
f 1/1/1 2/2/1 3/3/1 4/4/1
f 5/2/1 6/5/1 7/6/1 8/3/1
f 9/7/1 10/8/1 11/2/1 12/1/1
f 13/8/1 14/9/1 15/5/1 16/2/1
f 17/10/1 18/11/1 19/12/1 20/13/1
f 21/11/1 22/14/1 23/15/1 24/12/1
f 25/16/1 26/17/1 27/18/1 28/19/1
f 29/17/1 30/20/1 31/21/1 32/18/1
f 33/22/1 34/23/1 35/11/1 36/10/1
f 37/23/1 38/24/1 39/14/1 40/11/1
f 41/25/1 42/26/1 43/17/1 44/16/1
f 45/26/1 46/27/1 47/20/1 48/17/1
f 49/28/1 50/29/1 51/23/1 52/22/1
f 53/29/1 54/30/1 55/24/1 56/23/1
f 57/31/1 58/32/1 59/26/1 60/25/1
f 61/32/1 62/33/1 63/27/1 64/26/1
f 65/5/1 66/34/1 67/35/1 68/6/1
f 69/34/1 70/36/1 71/37/1 72/35/1
f 73/16/1 74/17/1 75/18/1 76/19/1
f 77/17/1 78/20/1 79/21/1 80/18/1
f 81/9/1 82/38/1 83/34/1 84/5/1
f 85/38/1 86/39/1 87/36/1 88/34/1
f 89/25/1 90/26/1 91/17/1 92/16/1
f 93/26/1 94/27/1 95/20/1 96/17/1
f 97/31/1 98/32/1 99/26/1 100/25/1
f 101/32/1 102/33/1 103/27/1 104/26/1
f 105/20/1 106/40/1 107/41/1 108/21/1
f 109/40/1 110/10/1 111/13/1 112/41/1
f 113/42/1 114/43/1 115/44/1 116/45/1
f 117/27/1 118/46/1 119/40/1 120/20/1
f 121/46/1 122/22/1 123/10/1 124/40/1
f 125/47/1 126/48/1 127/43/1 128/42/1
f 129/33/1 130/49/1 131/46/1 132/27/1
f 133/49/1 134/28/1 135/22/1 136/46/1
f 137/50/1 138/51/1 139/47/1 140/52/1
f 141/51/1 142/53/1 143/48/1 144/47/1
f 145/54/1 146/55/1 147/51/1 148/50/1
f 149/55/1 150/56/1 151/53/1 152/51/1
f 153/57/1 154/58/1 155/59/1 156/60/1
f 157/61/1 158/62/1 159/63/1 160/64/1
f 161/62/1 162/16/1 163/19/1 164/63/1
f 165/65/1 166/66/1 167/58/1 168/57/1
f 169/67/1 170/68/1 171/62/1 172/61/1
f 173/68/1 174/25/1 175/16/1 176/62/1
f 177/24/1 178/69/1 179/70/1 180/14/1
f 181/69/1 182/71/1 183/72/1 184/70/1
f 185/73/1 186/74/1 187/75/1 188/76/1
f 189/74/1 190/77/1 191/78/1 192/75/1
f 193/79/1 194/80/1 195/66/1 196/65/1
f 197/80/1 198/50/1 199/52/1 200/66/1
f 201/30/1 202/81/1 203/69/1 204/24/1
f 205/81/1 206/82/1 207/71/1 208/69/1
f 209/83/1 210/84/1 211/74/1 212/73/1
f 213/84/1 214/85/1 215/77/1 216/74/1
f 217/86/1 218/87/1 219/80/1 220/79/1
f 221/87/1 222/54/1 223/50/1 224/80/1
f 225/88/1 226/89/1 227/81/1 228/30/1
f 229/89/1 230/90/1 231/82/1 232/81/1
f 233/91/1 234/92/1 235/84/1 236/83/1
f 237/92/1 238/93/1 239/85/1 240/84/1
f 241/94/1 242/95/1 243/87/1 244/86/1
f 245/95/1 246/96/1 247/54/1 248/87/1
f 249/97/1 250/98/1 251/89/1 252/88/1
f 253/98/1 254/99/1 255/90/1 256/89/1
f 257/100/1 258/101/1 259/92/1 260/91/1
f 261/101/1 262/102/1 263/93/1 264/92/1
f 265/103/1 266/104/1 267/95/1 268/94/1
f 269/104/1 270/105/1 271/96/1 272/95/1
f 273/106/1 274/107/1 275/98/1 276/97/1
f 277/107/1 278/108/1 279/99/1 280/98/1
f 281/109/1 282/110/1 283/101/1 284/100/1
f 285/110/1 286/111/1 287/102/1 288/101/1
f 289/76/1 290/75/1 291/104/1 292/103/1
f 293/75/1 294/78/1 295/105/1 296/104/1
f 297/73/1 298/74/1 299/75/1 300/76/1
f 301/74/1 302/77/1 303/78/1 304/75/1
f 305/83/1 306/84/1 307/74/1 308/73/1
f 309/84/1 310/85/1 311/77/1 312/74/1
f 313/36/1 314/112/1 315/113/1 316/37/1
f 317/112/1 318/114/1 319/115/1 320/113/1
f 321/91/1 322/92/1 323/84/1 324/83/1
f 325/92/1 326/93/1 327/85/1 328/84/1
f 329/39/1 330/116/1 331/112/1 332/36/1
f 333/116/1 334/117/1 335/114/1 336/112/1
f 337/100/1 338/101/1 339/92/1 340/91/1
f 341/101/1 342/102/1 343/93/1 344/92/1
f 345/118/1 346/119/1 347/116/1 348/39/1
f 349/119/1 350/120/1 351/117/1 352/116/1
f 353/109/1 354/110/1 355/101/1 356/100/1
f 357/110/1 358/111/1 359/102/1 360/101/1
f 361/121/1 362/122/1 363/119/1 364/118/1
f 365/122/1 366/123/1 367/120/1 368/119/1

