# Tiled2Unity generated file. Do not modify by hand.
# Wavefront file for 'prva_mesh_0005.obj'

# Vertices (Count = 436)
v -13.12 -0.48 0
v -13.76 -0.48 0
v -13.76 -0.16 0
v -13.12 -0.16 0
v -12.8 -0.64 0
v -13.44 -0.64 0
v -13.44 -0.32 0
v -12.8 -0.32 0
v -13.44 -0.64 0
v -14.08 -0.64 0
v -14.08 -0.32 0
v -13.44 -0.32 0
v -13.12 -0.8 0
v -13.76 -0.8 0
v -13.76 -0.48 0
v -13.12 -0.48 0
v -13.76 -0.8 0
v -14.4 -0.8 0
v -14.4 -0.48 0
v -13.76 -0.48 0
v -13.44 -0.96 0
v -14.08 -0.96 0
v -14.08 -0.64 0
v -13.44 -0.64 0
v -14.08 -0.96 0
v -14.72 -0.96 0
v -14.72 -0.64 0
v -14.08 -0.64 0
v -13.76 -1.12 0
v -14.4 -1.12 0
v -14.4 -0.8 0
v -13.76 -0.8 0
v -14.4 -1.12 0
v -15.04 -1.12 0
v -15.04 -0.8 0
v -14.4 -0.8 0
v -14.72 -1.28 0
v -15.36 -1.28 0
v -15.36 -0.96 0
v -14.72 -0.96 0
v -15.04 -1.44 0
v -15.68 -1.44 0
v -15.68 -1.12 0
v -15.04 -1.12 0
v -15.36 -1.6 0
v -16 -1.6 0
v -16 -1.28 0
v -15.36 -1.28 0
v -15.68 -1.76 0
v -16.32 -1.76 0
v -16.32 -1.44 0
v -15.68 -1.44 0
v -32.96 -4.96 0
v -33.6 -4.96 0
v -33.6 -4.64 0
v -32.96 -4.64 0
v -11.84 -5.28 0
v -12.48 -5.28 0
v -12.48 -4.96 0
v -11.84 -4.96 0
v -12.48 -5.28 0
v -13.12 -5.28 0
v -13.12 -4.96 0
v -12.48 -4.96 0
v -29.76 -5.28 0
v -30.4 -5.28 0
v -30.4 -4.96 0
v -29.76 -4.96 0
v -31.68 -5.28 0
v -32.32 -5.28 0
v -32.32 -4.96 0
v -31.68 -4.96 0
v -26.88 -5.44 0
v -27.52 -5.44 0
v -27.52 -5.12 0
v -26.88 -5.12 0
v -28.8 -5.44 0
v -29.44 -5.44 0
v -29.44 -5.12 0
v -28.8 -5.12 0
v -30.08 -5.44 0
v -30.72 -5.44 0
v -30.72 -5.12 0
v -30.08 -5.12 0
v -11.84 -5.6 0
v -12.48 -5.6 0
v -12.48 -5.28 0
v -11.84 -5.28 0
v -12.48 -5.6 0
v -13.12 -5.6 0
v -13.12 -5.28 0
v -12.48 -5.28 0
v -27.2 -5.6 0
v -27.84 -5.6 0
v -27.84 -5.28 0
v -27.2 -5.28 0
v -27.84 -5.6 0
v -28.48 -5.6 0
v -28.48 -5.28 0
v -27.84 -5.28 0
v -23.04 -5.76 0
v -23.68 -5.76 0
v -23.68 -5.44 0
v -23.04 -5.44 0
v -22.08 -5.92 0
v -22.72 -5.92 0
v -22.72 -5.6 0
v -22.08 -5.6 0
v -23.36 -5.92 0
v -24 -5.92 0
v -24 -5.6 0
v -23.36 -5.6 0
v -24 -5.92 0
v -24.64 -5.92 0
v -24.64 -5.6 0
v -24 -5.6 0
v -24.32 -6.08 0
v -24.96 -6.08 0
v -24.96 -5.76 0
v -24.32 -5.76 0
v -24.96 -6.08 0
v -25.6 -6.08 0
v -25.6 -5.76 0
v -24.96 -5.76 0
v -24.64 -6.24 0
v -25.28 -6.24 0
v -25.28 -5.92 0
v -24.64 -5.92 0
v -10.88 -6.4 0
v -11.52 -6.4 0
v -11.52 -6.08 0
v -10.88 -6.08 0
v -11.52 -6.4 0
v -12.16 -6.4 0
v -12.16 -6.08 0
v -11.52 -6.08 0
v -18.24 -6.56 0
v -18.88 -6.56 0
v -18.88 -6.24 0
v -18.24 -6.24 0
v -18.88 -6.56 0
v -19.52 -6.56 0
v -19.52 -6.24 0
v -18.88 -6.24 0
v -10.88 -6.72 0
v -11.52 -6.72 0
v -11.52 -6.4 0
v -10.88 -6.4 0
v -11.52 -6.72 0
v -12.16 -6.72 0
v -12.16 -6.4 0
v -11.52 -6.4 0
v -18.24 -6.88 0
v -18.88 -6.88 0
v -18.88 -6.56 0
v -18.24 -6.56 0
v -18.88 -6.88 0
v -19.52 -6.88 0
v -19.52 -6.56 0
v -18.88 -6.56 0
v -10.88 -7.04 0
v -11.52 -7.04 0
v -11.52 -6.72 0
v -10.88 -6.72 0
v -11.52 -7.04 0
v -12.16 -7.04 0
v -12.16 -6.72 0
v -11.52 -6.72 0
v -9.92 -7.2 0
v -10.56 -7.2 0
v -10.56 -6.88 0
v -9.92 -6.88 0
v -18.24 -7.2 0
v -18.88 -7.2 0
v -18.88 -6.88 0
v -18.24 -6.88 0
v -18.88 -7.2 0
v -19.52 -7.2 0
v -19.52 -6.88 0
v -18.88 -6.88 0
v -10.24 -7.36 0
v -10.88 -7.36 0
v -10.88 -7.04 0
v -10.24 -7.04 0
v -9.92 -7.52 0
v -10.56 -7.52 0
v -10.56 -7.2 0
v -9.92 -7.2 0
v -10.56 -7.52 0
v -11.2 -7.52 0
v -11.2 -7.2 0
v -10.56 -7.2 0
v -10.24 -7.68 0
v -10.88 -7.68 0
v -10.88 -7.36 0
v -10.24 -7.36 0
v -10.56 -7.84 0
v -11.2 -7.84 0
v -11.2 -7.52 0
v -10.56 -7.52 0
v -12.48 -8.48 0
v -13.12 -8.48 0
v -13.12 -8.16 0
v -12.48 -8.16 0
v -13.12 -8.48 0
v -13.76 -8.48 0
v -13.76 -8.16 0
v -13.12 -8.16 0
v -12.48 -8.8 0
v -13.12 -8.8 0
v -13.12 -8.48 0
v -12.48 -8.48 0
v -13.12 -8.8 0
v -13.76 -8.8 0
v -13.76 -8.48 0
v -13.12 -8.48 0
v -10.88 -8.96 0
v -11.52 -8.96 0
v -11.52 -8.639999 0
v -10.88 -8.639999 0
v -11.52 -8.96 0
v -12.16 -8.96 0
v -12.16 -8.639999 0
v -11.52 -8.639999 0
v -10.88 -9.28 0
v -11.52 -9.28 0
v -11.52 -8.96 0
v -10.88 -8.96 0
v -11.52 -9.28 0
v -12.16 -9.28 0
v -12.16 -8.96 0
v -11.52 -8.96 0
v -18.24 -9.44 0
v -18.88 -9.44 0
v -18.88 -9.12 0
v -18.24 -9.12 0
v -10.88 -9.599999 0
v -11.52 -9.599999 0
v -11.52 -9.28 0
v -10.88 -9.28 0
v -11.52 -9.599999 0
v -12.16 -9.599999 0
v -12.16 -9.28 0
v -11.52 -9.28 0
v -17.92 -9.599999 0
v -18.56 -9.599999 0
v -18.56 -9.28 0
v -17.92 -9.28 0
v -17.6 -9.76 0
v -18.24 -9.76 0
v -18.24 -9.44 0
v -17.6 -9.44 0
v -18.24 -9.76 0
v -18.88 -9.76 0
v -18.88 -9.44 0
v -18.24 -9.44 0
v -18.88 -9.76 0
v -19.52 -9.76 0
v -19.52 -9.44 0
v -18.88 -9.44 0
v -12.8 -9.92 0
v -13.44 -9.92 0
v -13.44 -9.599999 0
v -12.8 -9.599999 0
v -13.44 -9.92 0
v -14.08 -9.92 0
v -14.08 -9.599999 0
v -13.44 -9.599999 0
v -17.28 -9.92 0
v -17.92 -9.92 0
v -17.92 -9.599999 0
v -17.28 -9.599999 0
v -17.92 -9.92 0
v -18.56 -9.92 0
v -18.56 -9.599999 0
v -17.92 -9.599999 0
v -18.56 -9.92 0
v -19.2 -9.92 0
v -19.2 -9.599999 0
v -18.56 -9.599999 0
v -17.6 -10.08 0
v -18.24 -10.08 0
v -18.24 -9.76 0
v -17.6 -9.76 0
v -18.24 -10.08 0
v -18.88 -10.08 0
v -18.88 -9.76 0
v -18.24 -9.76 0
v -18.88 -10.08 0
v -19.52 -10.08 0
v -19.52 -9.76 0
v -18.88 -9.76 0
v -12.8 -10.24 0
v -13.44 -10.24 0
v -13.44 -9.92 0
v -12.8 -9.92 0
v -13.44 -10.24 0
v -14.08 -10.24 0
v -14.08 -9.92 0
v -13.44 -9.92 0
v -17.28 -10.24 0
v -17.92 -10.24 0
v -17.92 -9.92 0
v -17.28 -9.92 0
v -17.92 -10.24 0
v -18.56 -10.24 0
v -18.56 -9.92 0
v -17.92 -9.92 0
v -18.56 -10.24 0
v -19.2 -10.24 0
v -19.2 -9.92 0
v -18.56 -9.92 0
v -17.6 -10.4 0
v -18.24 -10.4 0
v -18.24 -10.08 0
v -17.6 -10.08 0
v -18.24 -10.4 0
v -18.88 -10.4 0
v -18.88 -10.08 0
v -18.24 -10.08 0
v -10.88 -10.56 0
v -11.52 -10.56 0
v -11.52 -10.24 0
v -10.88 -10.24 0
v -11.52 -10.56 0
v -12.16 -10.56 0
v -12.16 -10.24 0
v -11.52 -10.24 0
v -12.8 -10.56 0
v -13.44 -10.56 0
v -13.44 -10.24 0
v -12.8 -10.24 0
v -13.44 -10.56 0
v -14.08 -10.56 0
v -14.08 -10.24 0
v -13.44 -10.24 0
v -17.92 -10.56 0
v -18.56 -10.56 0
v -18.56 -10.24 0
v -17.92 -10.24 0
v -18.56 -10.56 0
v -19.2 -10.56 0
v -19.2 -10.24 0
v -18.56 -10.24 0
v -18.24 -10.72 0
v -18.88 -10.72 0
v -18.88 -10.4 0
v -18.24 -10.4 0
v -10.88 -10.88 0
v -11.52 -10.88 0
v -11.52 -10.56 0
v -10.88 -10.56 0
v -11.52 -10.88 0
v -12.16 -10.88 0
v -12.16 -10.56 0
v -11.52 -10.56 0
v -10.88 -11.2 0
v -11.52 -11.2 0
v -11.52 -10.88 0
v -10.88 -10.88 0
v -11.52 -11.2 0
v -12.16 -11.2 0
v -12.16 -10.88 0
v -11.52 -10.88 0
v -12.8 -12.48 0
v -13.44 -12.48 0
v -13.44 -12.16 0
v -12.8 -12.16 0
v -13.44 -12.48 0
v -14.08 -12.48 0
v -14.08 -12.16 0
v -13.44 -12.16 0
v -11.2 -12.64 0
v -11.84 -12.64 0
v -11.84 -12.32 0
v -11.2 -12.32 0
v -11.84 -12.64 0
v -12.48 -12.64 0
v -12.48 -12.32 0
v -11.84 -12.32 0
v -12.8 -12.8 0
v -13.44 -12.8 0
v -13.44 -12.48 0
v -12.8 -12.48 0
v -13.44 -12.8 0
v -14.08 -12.8 0
v -14.08 -12.48 0
v -13.44 -12.48 0
v -11.2 -12.96 0
v -11.84 -12.96 0
v -11.84 -12.64 0
v -11.2 -12.64 0
v -11.84 -12.96 0
v -12.48 -12.96 0
v -12.48 -12.64 0
v -11.84 -12.64 0
v -12.8 -13.12 0
v -13.44 -13.12 0
v -13.44 -12.8 0
v -12.8 -12.8 0
v -13.44 -13.12 0
v -14.08 -13.12 0
v -14.08 -12.8 0
v -13.44 -12.8 0
v -11.2 -13.28 0
v -11.84 -13.28 0
v -11.84 -12.96 0
v -11.2 -12.96 0
v -11.84 -13.28 0
v -12.48 -13.28 0
v -12.48 -12.96 0
v -11.84 -12.96 0
v -12.8 -13.44 0
v -13.44 -13.44 0
v -13.44 -13.12 0
v -12.8 -13.12 0
v -13.44 -13.44 0
v -14.08 -13.44 0
v -14.08 -13.12 0
v -13.44 -13.12 0
v -11.2 -13.6 0
v -11.84 -13.6 0
v -11.84 -13.28 0
v -11.2 -13.28 0
v -11.84 -13.6 0
v -12.48 -13.6 0
v -12.48 -13.28 0
v -11.84 -13.28 0
v -11.2 -13.92 0
v -11.84 -13.92 0
v -11.84 -13.6 0
v -11.2 -13.6 0
v -11.84 -13.92 0
v -12.48 -13.92 0
v -12.48 -13.6 0
v -11.84 -13.6 0

# Texture cooridinates (Count = 138)
vt 0.375 0.9761904
vt 0.4375 0.9761904
vt 0.4375 1
vt 0.375 1
vt 0.25 0.9761904
vt 0.3125 0.9761904
vt 0.3125 1
vt 0.25 1
vt 0.1875 0.9761904
vt 0.1875 1
vt 0.0625 0.9761904
vt 0.125 0.9761904
vt 0.125 1
vt 0.0625 1
vt 0.625 0.9761904
vt 0.6875 0.9761904
vt 0.6875 1
vt 0.625 1
vt 0.5 0.9761904
vt 0.5625 0.9761904
vt 0.5625 1
vt 0.5 1
vt 0.1875 0.6190476
vt 0.25 0.6190476
vt 0.25 0.6428571
vt 0.1875 0.6428571
vt 0 0.1904762
vt 0.0625 0.1904762
vt 0.0625 0.2142857
vt 0 0.2142857
vt 0.125 0.1904762
vt 0.125 0.2142857
vt 0 0.1666667
vt 0.0625 0.1666667
vt 0.125 0.1666667
vt 0.4375 0.6190476
vt 0.5 0.6190476
vt 0.5 0.6428571
vt 0.4375 0.6428571
vt 0.1875 0.9285714
vt 0.25 0.9285714
vt 0.25 0.952381
vt 0.1875 0.952381
vt 0.375 0.04761904
vt 0.4375 0.04761904
vt 0.4375 0.0714286
vt 0.375 0.0714286
vt 0.5 0.04761904
vt 0.5 0.0714286
vt 0.125 0.04761904
vt 0.1875 0.04761904
vt 0.1875 0.0714286
vt 0.125 0.0714286
vt 0.25 0.04761904
vt 0.25 0.0714286
vt 0.375 0.02380955
vt 0.4375 0.02380955
vt 0.5 0.02380955
vt 0.125 0.02380955
vt 0.1875 0.02380955
vt 0.25 0.02380955
vt 0.375 0
vt 0.4375 0
vt 0.5 0
vt 0.5 0.7857143
vt 0.5625 0.7857143
vt 0.5625 0.8095238
vt 0.5 0.8095238
vt 0.125 0
vt 0.1875 0
vt 0.25 0
vt 0.6875 0.7857143
vt 0.75 0.7857143
vt 0.75 0.8095238
vt 0.6875 0.8095238
vt 0.5 0.7619048
vt 0.5625 0.7619048
vt 0.9375 0.7857143
vt 1 0.7857143
vt 1 0.8095238
vt 0.9375 0.8095238
vt 0.6875 0.7619048
vt 0.75 0.7619048
vt 0.9375 0.7619048
vt 1 0.7619048
vt 0.1875 0.1904762
vt 0.1875 0.2142857
vt 0.25 0.1904762
vt 0.25 0.2142857
vt 0.1875 0.1666667
vt 0.25 0.1666667
vt 0.125 0.7380952
vt 0.1875 0.7380952
vt 0.1875 0.7619048
vt 0.125 0.7619048
vt 0.25 0.7380952
vt 0.25 0.7619048
vt 0.125 0.7142857
vt 0.1875 0.7142857
vt 0.3125 0.7380952
vt 0.3125 0.7619048
vt 0.3125 0.04761904
vt 0.3125 0.0714286
vt 0.375 0.7380952
vt 0.375 0.7619048
vt 0.25 0.7142857
vt 0.3125 0.7142857
vt 0.3125 0.02380955
vt 0.375 0.7142857
vt 0.875 0.1666667
vt 0.9375 0.1666667
vt 0.9375 0.1904762
vt 0.875 0.1904762
vt 1 0.1666667
vt 1 0.1904762
vt 0.3125 0
vt 0.875 0.1428571
vt 0.9375 0.1428571
vt 1 0.1428571
vt 0.875 0.1190476
vt 0.9375 0.1190476
vt 1 0.1190476
vt 0 0.0714286
vt 0.0625 0.0714286
vt 0.0625 0.09523809
vt 0 0.09523809
vt 0.125 0.09523809
vt 0.1875 0.09523809
vt 0.1875 0.1190476
vt 0.125 0.1190476
vt 0.25 0.09523809
vt 0.25 0.1190476
vt 0 0.04761904
vt 0.0625 0.04761904
vt 0 0.02380955
vt 0.0625 0.02380955
vt 0 0
vt 0.0625 0

# Normal
vn 0 0 -1

# Mesh description
g prva_mesh_0005

# Faces
f 1/1/1 2/2/1 3/3/1 4/4/1
f 5/1/1 6/2/1 7/3/1 8/4/1
f 9/1/1 10/2/1 11/3/1 12/4/1
f 13/5/1 14/6/1 15/7/1 16/8/1
f 17/6/1 18/1/1 19/4/1 20/7/1
f 21/9/1 22/5/1 23/8/1 24/10/1
f 25/11/1 26/12/1 27/13/1 28/14/1
f 29/5/1 30/6/1 31/7/1 32/8/1
f 33/5/1 34/6/1 35/7/1 36/8/1
f 37/12/1 38/9/1 39/10/1 40/13/1
f 41/15/1 42/16/1 43/17/1 44/18/1
f 45/19/1 46/20/1 47/21/1 48/22/1
f 49/2/1 50/19/1 51/22/1 52/3/1
f 53/23/1 54/24/1 55/25/1 56/26/1
f 57/27/1 58/28/1 59/29/1 60/30/1
f 61/28/1 62/31/1 63/32/1 64/29/1
f 65/23/1 66/24/1 67/25/1 68/26/1
f 69/23/1 70/24/1 71/25/1 72/26/1
f 73/23/1 74/24/1 75/25/1 76/26/1
f 77/23/1 78/24/1 79/25/1 80/26/1
f 81/23/1 82/24/1 83/25/1 84/26/1
f 85/33/1 86/34/1 87/28/1 88/27/1
f 89/34/1 90/35/1 91/31/1 92/28/1
f 93/23/1 94/24/1 95/25/1 96/26/1
f 97/23/1 98/24/1 99/25/1 100/26/1
f 101/23/1 102/24/1 103/25/1 104/26/1
f 105/36/1 106/37/1 107/38/1 108/39/1
f 109/23/1 110/24/1 111/25/1 112/26/1
f 113/23/1 114/24/1 115/25/1 116/26/1
f 117/23/1 118/24/1 119/25/1 120/26/1
f 121/40/1 122/41/1 123/42/1 124/43/1
f 125/23/1 126/24/1 127/25/1 128/26/1
f 129/44/1 130/45/1 131/46/1 132/47/1
f 133/45/1 134/48/1 135/49/1 136/46/1
f 137/50/1 138/51/1 139/52/1 140/53/1
f 141/51/1 142/54/1 143/55/1 144/52/1
f 145/56/1 146/57/1 147/45/1 148/44/1
f 149/57/1 150/58/1 151/48/1 152/45/1
f 153/59/1 154/60/1 155/51/1 156/50/1
f 157/60/1 158/61/1 159/54/1 160/51/1
f 161/62/1 162/63/1 163/57/1 164/56/1
f 165/63/1 166/64/1 167/58/1 168/57/1
f 169/65/1 170/66/1 171/67/1 172/68/1
f 173/69/1 174/70/1 175/60/1 176/59/1
f 177/70/1 178/71/1 179/61/1 180/60/1
f 181/72/1 182/73/1 183/74/1 184/75/1
f 185/76/1 186/77/1 187/66/1 188/65/1
f 189/78/1 190/79/1 191/80/1 192/81/1
f 193/82/1 194/83/1 195/73/1 196/72/1
f 197/84/1 198/85/1 199/79/1 200/78/1
f 201/31/1 202/86/1 203/87/1 204/32/1
f 205/86/1 206/88/1 207/89/1 208/87/1
f 209/35/1 210/90/1 211/86/1 212/31/1
f 213/90/1 214/91/1 215/88/1 216/86/1
f 217/50/1 218/51/1 219/52/1 220/53/1
f 221/51/1 222/54/1 223/55/1 224/52/1
f 225/59/1 226/60/1 227/51/1 228/50/1
f 229/60/1 230/61/1 231/54/1 232/51/1
f 233/92/1 234/93/1 235/94/1 236/95/1
f 237/69/1 238/70/1 239/60/1 240/59/1
f 241/70/1 242/71/1 243/61/1 244/60/1
f 245/92/1 246/93/1 247/94/1 248/95/1
f 249/93/1 250/96/1 251/97/1 252/94/1
f 253/98/1 254/99/1 255/93/1 256/92/1
f 257/96/1 258/100/1 259/101/1 260/97/1
f 261/54/1 262/102/1 263/103/1 264/55/1
f 265/102/1 266/44/1 267/47/1 268/103/1
f 269/92/1 270/93/1 271/94/1 272/95/1
f 273/98/1 274/99/1 275/93/1 276/92/1
f 277/100/1 278/104/1 279/105/1 280/101/1
f 281/99/1 282/106/1 283/96/1 284/93/1
f 285/96/1 286/100/1 287/101/1 288/97/1
f 289/106/1 290/107/1 291/100/1 292/96/1
f 293/61/1 294/108/1 295/102/1 296/54/1
f 297/108/1 298/56/1 299/44/1 300/102/1
f 301/98/1 302/99/1 303/93/1 304/92/1
f 305/107/1 306/109/1 307/104/1 308/100/1
f 309/107/1 310/109/1 311/104/1 312/100/1
f 313/106/1 314/107/1 315/100/1 316/96/1
f 317/106/1 318/107/1 319/100/1 320/96/1
f 321/110/1 322/111/1 323/112/1 324/113/1
f 325/111/1 326/114/1 327/115/1 328/112/1
f 329/71/1 330/116/1 331/108/1 332/61/1
f 333/116/1 334/62/1 335/56/1 336/108/1
f 337/107/1 338/109/1 339/104/1 340/100/1
f 341/106/1 342/107/1 343/100/1 344/96/1
f 345/107/1 346/109/1 347/104/1 348/100/1
f 349/117/1 350/118/1 351/111/1 352/110/1
f 353/118/1 354/119/1 355/114/1 356/111/1
f 357/120/1 358/121/1 359/118/1 360/117/1
f 361/121/1 362/122/1 363/119/1 364/118/1
f 365/123/1 366/124/1 367/125/1 368/126/1
f 369/124/1 370/53/1 371/127/1 372/125/1
f 373/127/1 374/128/1 375/129/1 376/130/1
f 377/128/1 378/131/1 379/132/1 380/129/1
f 381/133/1 382/134/1 383/124/1 384/123/1
f 385/134/1 386/50/1 387/53/1 388/124/1
f 389/53/1 390/52/1 391/128/1 392/127/1
f 393/52/1 394/55/1 395/131/1 396/128/1
f 397/135/1 398/136/1 399/134/1 400/133/1
f 401/136/1 402/59/1 403/50/1 404/134/1
f 405/50/1 406/51/1 407/52/1 408/53/1
f 409/51/1 410/54/1 411/55/1 412/52/1
f 413/137/1 414/138/1 415/136/1 416/135/1
f 417/138/1 418/69/1 419/59/1 420/136/1
f 421/59/1 422/60/1 423/51/1 424/50/1
f 425/60/1 426/61/1 427/54/1 428/51/1
f 429/69/1 430/70/1 431/60/1 432/59/1
f 433/70/1 434/71/1 435/61/1 436/60/1

