# Tiled2Unity generated file. Do not modify by hand.
# Wavefront file for 'prva_mesh_0010.obj'

# Vertices (Count = 20)
v -17.92 -4.8 0
v -18.56 -4.8 0
v -18.56 -4.48 0
v -17.92 -4.48 0
v -17.6 -4.96 0
v -18.24 -4.96 0
v -18.24 -4.64 0
v -17.6 -4.64 0
v -18.24 -4.96 0
v -18.88 -4.96 0
v -18.88 -4.64 0
v -18.24 -4.64 0
v -17.92 -5.12 0
v -18.56 -5.12 0
v -18.56 -4.8 0
v -17.92 -4.8 0
v -18.24 -5.28 0
v -18.88 -5.28 0
v -18.88 -4.96 0
v -18.24 -4.96 0

# Texture cooridinates (Count = 6)
vt 0.625 0.1666667
vt 0.6875 0.1666667
vt 0.6875 0.2083333
vt 0.625 0.2083333
vt 0.625 0.125
vt 0.6875 0.125

# Normal
vn 0 0 -1

# Mesh description
g prva_mesh_0010

# Faces
f 1/1/1 2/2/1 3/3/1 4/4/1
f 5/1/1 6/2/1 7/3/1 8/4/1
f 9/1/1 10/2/1 11/3/1 12/4/1
f 13/1/1 14/2/1 15/3/1 16/4/1
f 17/5/1 18/6/1 19/2/1 20/1/1

