# Tiled2Unity generated file. Do not modify by hand.
# Wavefront file for 'prva_mesh_0008.obj'

# Vertices (Count = 72)
v -16.96 -2.4 0
v -17.6 -2.4 0
v -17.6 -2.08 0
v -16.96 -2.08 0
v -17.28 -2.88 0
v -17.92 -2.88 0
v -17.92 -2.56 0
v -17.28 -2.56 0
v -17.92 -9.28 0
v -18.56 -9.28 0
v -18.56 -8.96 0
v -17.92 -8.96 0
v -17.92 -9.599999 0
v -18.56 -9.599999 0
v -18.56 -9.28 0
v -17.92 -9.28 0
v -16.64 -9.92 0
v -17.28 -9.92 0
v -17.28 -9.599999 0
v -16.64 -9.599999 0
v -19.84 -9.92 0
v -20.48 -9.92 0
v -20.48 -9.599999 0
v -19.84 -9.599999 0
v -16.96 -10.08 0
v -17.6 -10.08 0
v -17.6 -9.76 0
v -16.96 -9.76 0
v -19.52 -10.08 0
v -20.16 -10.08 0
v -20.16 -9.76 0
v -19.52 -9.76 0
v -16.64 -10.24 0
v -17.28 -10.24 0
v -17.28 -9.92 0
v -16.64 -9.92 0
v -17.28 -10.24 0
v -17.92 -10.24 0
v -17.92 -9.92 0
v -17.28 -9.92 0
v -19.84 -10.24 0
v -20.48 -10.24 0
v -20.48 -9.92 0
v -19.84 -9.92 0
v -16.96 -10.4 0
v -17.6 -10.4 0
v -17.6 -10.08 0
v -16.96 -10.08 0
v -17.6 -10.4 0
v -18.24 -10.4 0
v -18.24 -10.08 0
v -17.6 -10.08 0
v -19.52 -10.4 0
v -20.16 -10.4 0
v -20.16 -10.08 0
v -19.52 -10.08 0
v -17.28 -10.56 0
v -17.92 -10.56 0
v -17.92 -10.24 0
v -17.28 -10.24 0
v -17.92 -10.56 0
v -18.56 -10.56 0
v -18.56 -10.24 0
v -17.92 -10.24 0
v -17.6 -10.72 0
v -18.24 -10.72 0
v -18.24 -10.4 0
v -17.6 -10.4 0
v -17.92 -10.88 0
v -18.56 -10.88 0
v -18.56 -10.56 0
v -17.92 -10.56 0

# Texture cooridinates (Count = 19)
vt 0.9375 0.9285714
vt 1 0.9285714
vt 1 0.952381
vt 0.9375 0.952381
vt 0.5625 0.7857143
vt 0.625 0.7857143
vt 0.625 0.8095238
vt 0.5625 0.8095238
vt 0.5625 0.7619048
vt 0.625 0.7619048
vt 0.6875 0.7857143
vt 0.6875 0.8095238
vt 0.75 0.7857143
vt 0.75 0.8095238
vt 0.5 0.7857143
vt 0.5 0.8095238
vt 0.6875 0.7619048
vt 0.75 0.7619048
vt 0.5 0.7619048

# Normal
vn 0 0 -1

# Mesh description
g prva_mesh_0008

# Faces
f 1/1/1 2/2/1 3/3/1 4/4/1
f 5/1/1 6/2/1 7/3/1 8/4/1
f 9/5/1 10/6/1 11/7/1 12/8/1
f 13/9/1 14/10/1 15/6/1 16/5/1
f 17/6/1 18/11/1 19/12/1 20/7/1
f 21/5/1 22/6/1 23/7/1 24/8/1
f 25/11/1 26/13/1 27/14/1 28/12/1
f 29/15/1 30/5/1 31/8/1 32/16/1
f 33/10/1 34/17/1 35/11/1 36/6/1
f 37/11/1 38/13/1 39/14/1 40/12/1
f 41/9/1 42/10/1 43/6/1 44/5/1
f 45/17/1 46/18/1 47/13/1 48/11/1
f 49/11/1 50/13/1 51/14/1 52/12/1
f 53/19/1 54/9/1 55/5/1 56/15/1
f 57/17/1 58/18/1 59/13/1 60/11/1
f 61/11/1 62/13/1 63/14/1 64/12/1
f 65/17/1 66/18/1 67/13/1 68/11/1
f 69/17/1 70/18/1 71/13/1 72/11/1

