# Tiled2Unity generated file. Do not modify by hand.
# Wavefront file for 'prva_mesh_0003.obj'

# Vertices (Count = 220)
v -13.44 -0.32 0
v -14.08 -0.32 0
v -14.08 0 0
v -13.44 0 0
v -13.76 -0.48 0
v -14.4 -0.48 0
v -14.4 -0.16 0
v -13.76 -0.16 0
v -14.08 -0.64 0
v -14.72 -0.64 0
v -14.72 -0.32 0
v -14.08 -0.32 0
v -14.4 -0.8 0
v -15.04 -0.8 0
v -15.04 -0.48 0
v -14.4 -0.48 0
v -14.72 -0.96 0
v -15.36 -0.96 0
v -15.36 -0.64 0
v -14.72 -0.64 0
v -15.04 -1.12 0
v -15.68 -1.12 0
v -15.68 -0.8 0
v -15.04 -0.8 0
v -15.36 -1.28 0
v -16 -1.28 0
v -16 -0.96 0
v -15.36 -0.96 0
v -15.68 -1.44 0
v -16.32 -1.44 0
v -16.32 -1.12 0
v -15.68 -1.12 0
v -16 -1.6 0
v -16.64 -1.6 0
v -16.64 -1.28 0
v -16 -1.28 0
v -16.32 -1.76 0
v -16.96 -1.76 0
v -16.96 -1.44 0
v -16.32 -1.44 0
v -16.64 -1.92 0
v -17.28 -1.92 0
v -17.28 -1.6 0
v -16.64 -1.6 0
v -16.96 -2.08 0
v -17.6 -2.08 0
v -17.6 -1.76 0
v -16.96 -1.76 0
v -16.96 -2.4 0
v -17.6 -2.4 0
v -17.6 -2.08 0
v -16.96 -2.08 0
v -17.28 -2.56 0
v -17.92 -2.56 0
v -17.92 -2.24 0
v -17.28 -2.24 0
v -17.28 -2.88 0
v -17.92 -2.88 0
v -17.92 -2.56 0
v -17.28 -2.56 0
v -17.6 -3.04 0
v -18.24 -3.04 0
v -18.24 -2.72 0
v -17.6 -2.72 0
v -17.92 -3.2 0
v -18.56 -3.2 0
v -18.56 -2.88 0
v -17.92 -2.88 0
v -17.92 -3.52 0
v -18.56 -3.52 0
v -18.56 -3.2 0
v -17.92 -3.2 0
v -18.24 -3.68 0
v -18.88 -3.68 0
v -18.88 -3.36 0
v -18.24 -3.36 0
v -18.56 -3.84 0
v -19.2 -3.84 0
v -19.2 -3.52 0
v -18.56 -3.52 0
v -18.56 -4.16 0
v -19.2 -4.16 0
v -19.2 -3.84 0
v -18.56 -3.84 0
v -18.88 -4.32 0
v -19.52 -4.32 0
v -19.52 -4 0
v -18.88 -4 0
v -19.2 -4.48 0
v -19.84 -4.48 0
v -19.84 -4.16 0
v -19.2 -4.16 0
v -33.92 -4.48 0
v -34.56 -4.48 0
v -34.56 -4.16 0
v -33.92 -4.16 0
v -19.52 -4.64 0
v -20.16 -4.64 0
v -20.16 -4.32 0
v -19.52 -4.32 0
v -33.6 -4.64 0
v -34.24 -4.64 0
v -34.24 -4.32 0
v -33.6 -4.32 0
v -19.84 -4.8 0
v -20.48 -4.8 0
v -20.48 -4.48 0
v -19.84 -4.48 0
v -33.28 -4.8 0
v -33.92 -4.8 0
v -33.92 -4.48 0
v -33.28 -4.48 0
v -20.16 -4.96 0
v -20.8 -4.96 0
v -20.8 -4.64 0
v -20.16 -4.64 0
v -32.32 -4.96 0
v -32.96 -4.96 0
v -32.96 -4.64 0
v -32.32 -4.64 0
v -32.96 -4.96 0
v -33.6 -4.96 0
v -33.6 -4.64 0
v -32.96 -4.64 0
v -20.48 -5.12 0
v -21.12 -5.12 0
v -21.12 -4.8 0
v -20.48 -4.8 0
v -32 -5.12 0
v -32.64 -5.12 0
v -32.64 -4.8 0
v -32 -4.8 0
v -20.8 -5.28 0
v -21.44 -5.28 0
v -21.44 -4.96 0
v -20.8 -4.96 0
v -29.12 -5.28 0
v -29.76 -5.28 0
v -29.76 -4.96 0
v -29.12 -4.96 0
v -30.4 -5.28 0
v -31.04 -5.28 0
v -31.04 -4.96 0
v -30.4 -4.96 0
v -31.04 -5.28 0
v -31.68 -5.28 0
v -31.68 -4.96 0
v -31.04 -4.96 0
v -31.68 -5.28 0
v -32.32 -5.28 0
v -32.32 -4.96 0
v -31.68 -4.96 0
v -21.12 -5.44 0
v -21.76 -5.44 0
v -21.76 -5.12 0
v -21.12 -5.12 0
v -26.24 -5.44 0
v -26.88 -5.44 0
v -26.88 -5.12 0
v -26.24 -5.12 0
v -28.16 -5.44 0
v -28.8 -5.44 0
v -28.8 -5.12 0
v -28.16 -5.12 0
v -28.8 -5.44 0
v -29.44 -5.44 0
v -29.44 -5.12 0
v -28.8 -5.12 0
v -30.08 -5.44 0
v -30.72 -5.44 0
v -30.72 -5.12 0
v -30.08 -5.12 0
v -21.44 -5.6 0
v -22.08 -5.6 0
v -22.08 -5.28 0
v -21.44 -5.28 0
v -25.92 -5.6 0
v -26.56 -5.6 0
v -26.56 -5.28 0
v -25.92 -5.28 0
v -27.2 -5.6 0
v -27.84 -5.6 0
v -27.84 -5.28 0
v -27.2 -5.28 0
v -27.84 -5.6 0
v -28.48 -5.6 0
v -28.48 -5.28 0
v -27.84 -5.28 0
v -21.76 -5.76 0
v -22.4 -5.76 0
v -22.4 -5.44 0
v -21.76 -5.44 0
v -22.4 -5.76 0
v -23.04 -5.76 0
v -23.04 -5.44 0
v -22.4 -5.44 0
v -25.6 -5.76 0
v -26.24 -5.76 0
v -26.24 -5.44 0
v -25.6 -5.44 0
v -22.08 -5.92 0
v -22.72 -5.92 0
v -22.72 -5.6 0
v -22.08 -5.6 0
v -23.36 -5.92 0
v -24 -5.92 0
v -24 -5.6 0
v -23.36 -5.6 0
v -25.28 -5.92 0
v -25.92 -5.92 0
v -25.92 -5.6 0
v -25.28 -5.6 0
v -24.32 -6.08 0
v -24.96 -6.08 0
v -24.96 -5.76 0
v -24.32 -5.76 0
v -24.96 -6.08 0
v -25.6 -6.08 0
v -25.6 -5.76 0
v -24.96 -5.76 0

# Texture cooridinates (Count = 14)
vt 0.4375 0.6190476
vt 0.5 0.6190476
vt 0.5 0.6428571
vt 0.4375 0.6428571
vt 0.1875 0.9285714
vt 0.25 0.9285714
vt 0.25 0.952381
vt 0.1875 0.952381
vt 0.1875 0.6190476
vt 0.25 0.6190476
vt 0.25 0.6428571
vt 0.1875 0.6428571
vt 0.125 0.6190476
vt 0.125 0.6428571

# Normal
vn 0 0 -1

# Mesh description
g prva_mesh_0003

# Faces
f 1/1/1 2/2/1 3/3/1 4/4/1
f 5/1/1 6/2/1 7/3/1 8/4/1
f 9/1/1 10/2/1 11/3/1 12/4/1
f 13/1/1 14/2/1 15/3/1 16/4/1
f 17/1/1 18/2/1 19/3/1 20/4/1
f 21/1/1 22/2/1 23/3/1 24/4/1
f 25/5/1 26/6/1 27/7/1 28/8/1
f 29/5/1 30/6/1 31/7/1 32/8/1
f 33/5/1 34/6/1 35/7/1 36/8/1
f 37/5/1 38/6/1 39/7/1 40/8/1
f 41/5/1 42/6/1 43/7/1 44/8/1
f 45/5/1 46/6/1 47/7/1 48/8/1
f 49/9/1 50/10/1 51/11/1 52/12/1
f 53/9/1 54/10/1 55/11/1 56/12/1
f 57/9/1 58/10/1 59/11/1 60/12/1
f 61/9/1 62/10/1 63/11/1 64/12/1
f 65/9/1 66/10/1 67/11/1 68/12/1
f 69/9/1 70/10/1 71/11/1 72/12/1
f 73/9/1 74/10/1 75/11/1 76/12/1
f 77/9/1 78/10/1 79/11/1 80/12/1
f 81/9/1 82/10/1 83/11/1 84/12/1
f 85/9/1 86/10/1 87/11/1 88/12/1
f 89/9/1 90/10/1 91/11/1 92/12/1
f 93/13/1 94/9/1 95/12/1 96/14/1
f 97/9/1 98/10/1 99/11/1 100/12/1
f 101/13/1 102/9/1 103/12/1 104/14/1
f 105/9/1 106/10/1 107/11/1 108/12/1
f 109/13/1 110/9/1 111/12/1 112/14/1
f 113/9/1 114/10/1 115/11/1 116/12/1
f 117/13/1 118/9/1 119/12/1 120/14/1
f 121/13/1 122/9/1 123/12/1 124/14/1
f 125/9/1 126/10/1 127/11/1 128/12/1
f 129/13/1 130/9/1 131/12/1 132/14/1
f 133/9/1 134/10/1 135/11/1 136/12/1
f 137/13/1 138/9/1 139/12/1 140/14/1
f 141/13/1 142/9/1 143/12/1 144/14/1
f 145/13/1 146/9/1 147/12/1 148/14/1
f 149/13/1 150/9/1 151/12/1 152/14/1
f 153/9/1 154/10/1 155/11/1 156/12/1
f 157/13/1 158/9/1 159/12/1 160/14/1
f 161/13/1 162/9/1 163/12/1 164/14/1
f 165/13/1 166/9/1 167/12/1 168/14/1
f 169/13/1 170/9/1 171/12/1 172/14/1
f 173/9/1 174/10/1 175/11/1 176/12/1
f 177/13/1 178/9/1 179/12/1 180/14/1
f 181/13/1 182/9/1 183/12/1 184/14/1
f 185/13/1 186/9/1 187/12/1 188/14/1
f 189/9/1 190/10/1 191/11/1 192/12/1
f 193/13/1 194/9/1 195/12/1 196/14/1
f 197/13/1 198/9/1 199/12/1 200/14/1
f 201/13/1 202/9/1 203/12/1 204/14/1
f 205/13/1 206/9/1 207/12/1 208/14/1
f 209/13/1 210/9/1 211/12/1 212/14/1
f 213/13/1 214/9/1 215/12/1 216/14/1
f 217/13/1 218/9/1 219/12/1 220/14/1

