# Tiled2Unity generated file. Do not modify by hand.
# Wavefront file for 'grad_mesh_0002.obj'

# Vertices (Count = 44)
v -6.72 -5.28 0
v -7.36 -5.28 0
v -7.36 -4.96 0
v -6.72 -4.96 0
v -8.639999 -5.28 0
v -9.28 -5.28 0
v -9.28 -4.96 0
v -8.639999 -4.96 0
v -6.72 -5.6 0
v -7.36 -5.6 0
v -7.36 -5.28 0
v -6.72 -5.28 0
v -8.639999 -5.6 0
v -9.28 -5.6 0
v -9.28 -5.28 0
v -8.639999 -5.28 0
v -6.4 -7.04 0
v -7.04 -7.04 0
v -7.04 -6.72 0
v -6.4 -6.72 0
v -6.4 -7.36 0
v -7.04 -7.36 0
v -7.04 -7.04 0
v -6.4 -7.04 0
v -6.4 -7.68 0
v -7.04 -7.68 0
v -7.04 -7.36 0
v -6.4 -7.36 0
v -6.4 -8 0
v -7.04 -8 0
v -7.04 -7.68 0
v -6.4 -7.68 0
v -7.36 -9.44 0
v -8 -9.44 0
v -8 -9.12 0
v -7.36 -9.12 0
v -7.36 -9.76 0
v -8 -9.76 0
v -8 -9.44 0
v -7.36 -9.44 0
v -7.36 -10.08 0
v -8 -10.08 0
v -8 -9.76 0
v -7.36 -9.76 0

# Texture cooridinates (Count = 30)
vt 0.625 0.65625
vt 0.75 0.65625
vt 0.75 0.6875
vt 0.625 0.6875
vt 0.375 0.65625
vt 0.5 0.65625
vt 0.5 0.6875
vt 0.375 0.6875
vt 0.625 0.625
vt 0.75 0.625
vt 0.375 0.625
vt 0.5 0.625
vt 0.625 0.34375
vt 0.75 0.34375
vt 0.75 0.375
vt 0.625 0.375
vt 0.625 0.3125
vt 0.75 0.3125
vt 0.625 0.28125
vt 0.75 0.28125
vt 0.625 0.25
vt 0.75 0.25
vt 0.125 0.5625
vt 0.25 0.5625
vt 0.25 0.59375
vt 0.125 0.59375
vt 0.125 0.53125
vt 0.25 0.53125
vt 0.125 0.5
vt 0.25 0.5

# Normal
vn 0 0 -1

# Mesh description
g grad_mesh_0002

# Faces
f 1/1/1 2/2/1 3/3/1 4/4/1
f 5/5/1 6/6/1 7/7/1 8/8/1
f 9/9/1 10/10/1 11/2/1 12/1/1
f 13/11/1 14/12/1 15/6/1 16/5/1
f 17/13/1 18/14/1 19/15/1 20/16/1
f 21/17/1 22/18/1 23/14/1 24/13/1
f 25/19/1 26/20/1 27/18/1 28/17/1
f 29/21/1 30/22/1 31/20/1 32/19/1
f 33/23/1 34/24/1 35/25/1 36/26/1
f 37/27/1 38/28/1 39/24/1 40/23/1
f 41/29/1 42/30/1 43/28/1 44/27/1

