# Tiled2Unity generated file. Do not modify by hand.
# Wavefront file for 'prije-grada_mesh_0004.obj'

# Vertices (Count = 716)
v -5.44 -0.48 0
v -6.08 -0.48 0
v -6.08 -0.16 0
v -5.44 -0.16 0
v -10.56 -0.48 0
v -11.2 -0.48 0
v -11.2 -0.16 0
v -10.56 -0.16 0
v -3.84 -0.64 0
v -4.48 -0.64 0
v -4.48 -0.32 0
v -3.84 -0.32 0
v -7.68 -0.64 0
v -8.32 -0.64 0
v -8.32 -0.32 0
v -7.68 -0.32 0
v -9.599999 -0.64 0
v -10.24 -0.64 0
v -10.24 -0.32 0
v -9.599999 -0.32 0
v -4.8 -0.8 0
v -5.44 -0.8 0
v -5.44 -0.48 0
v -4.8 -0.48 0
v -5.44 -0.8 0
v -6.08 -0.8 0
v -6.08 -0.48 0
v -5.44 -0.48 0
v -7.36 -0.8 0
v -8 -0.8 0
v -8 -0.48 0
v -7.36 -0.48 0
v -9.28 -0.8 0
v -9.92 -0.8 0
v -9.92 -0.48 0
v -9.28 -0.48 0
v -10.56 -0.8 0
v -11.2 -0.8 0
v -11.2 -0.48 0
v -10.56 -0.48 0
v -1.28 -0.96 0
v -1.92 -0.96 0
v -1.92 -0.64 0
v -1.28 -0.64 0
v -7.68 -0.96 0
v -8.32 -0.96 0
v -8.32 -0.64 0
v -7.68 -0.64 0
v -8.96 -0.96 0
v -9.599999 -0.96 0
v -9.599999 -0.64 0
v -8.96 -0.64 0
v -9.599999 -0.96 0
v -10.24 -0.96 0
v -10.24 -0.64 0
v -9.599999 -0.64 0
v -4.8 -1.12 0
v -5.44 -1.12 0
v -5.44 -0.8 0
v -4.8 -0.8 0
v -5.44 -1.12 0
v -6.08 -1.12 0
v -6.08 -0.8 0
v -5.44 -0.8 0
v -7.36 -1.12 0
v -8 -1.12 0
v -8 -0.8 0
v -7.36 -0.8 0
v -8.639999 -1.12 0
v -9.28 -1.12 0
v -9.28 -0.8 0
v -8.639999 -0.8 0
v -9.28 -1.12 0
v -9.92 -1.12 0
v -9.92 -0.8 0
v -9.28 -0.8 0
v -1.92 -1.28 0
v -2.56 -1.28 0
v -2.56 -0.96 0
v -1.92 -0.96 0
v -4.48 -1.28 0
v -5.12 -1.28 0
v -5.12 -0.96 0
v -4.48 -0.96 0
v -7.04 -1.28 0
v -7.68 -1.28 0
v -7.68 -0.96 0
v -7.04 -0.96 0
v -8.96 -1.28 0
v -9.599999 -1.28 0
v -9.599999 -0.96 0
v -8.96 -0.96 0
v -12.16 -1.28 0
v -12.8 -1.28 0
v -12.8 -0.96 0
v -12.16 -0.96 0
v -2.24 -1.44 0
v -2.88 -1.44 0
v -2.88 -1.12 0
v -2.24 -1.12 0
v -5.44 -1.44 0
v -6.08 -1.44 0
v -6.08 -1.12 0
v -5.44 -1.12 0
v -7.36 -1.44 0
v -8 -1.44 0
v -8 -1.12 0
v -7.36 -1.12 0
v -8.639999 -1.44 0
v -9.28 -1.44 0
v -9.28 -1.12 0
v -8.639999 -1.12 0
v -9.92 -1.44 0
v -10.56 -1.44 0
v -10.56 -1.12 0
v -9.92 -1.12 0
v -11.2 -1.44 0
v -11.84 -1.44 0
v -11.84 -1.12 0
v -11.2 -1.12 0
v -1.28 -1.6 0
v -1.92 -1.6 0
v -1.92 -1.28 0
v -1.28 -1.28 0
v -4.48 -1.6 0
v -5.12 -1.6 0
v -5.12 -1.28 0
v -4.48 -1.28 0
v -5.12 -1.6 0
v -5.76 -1.6 0
v -5.76 -1.28 0
v -5.12 -1.28 0
v -6.4 -1.6 0
v -7.04 -1.6 0
v -7.04 -1.28 0
v -6.4 -1.28 0
v -7.04 -1.6 0
v -7.68 -1.6 0
v -7.68 -1.28 0
v -7.04 -1.28 0
v -7.68 -1.6 0
v -8.32 -1.6 0
v -8.32 -1.28 0
v -7.68 -1.28 0
v -10.88 -1.6 0
v -11.52 -1.6 0
v -11.52 -1.28 0
v -10.88 -1.28 0
v -12.16 -1.6 0
v -12.8 -1.6 0
v -12.8 -1.28 0
v -12.16 -1.28 0
v -5.44 -1.76 0
v -6.08 -1.76 0
v -6.08 -1.44 0
v -5.44 -1.44 0
v -6.08 -1.76 0
v -6.72 -1.76 0
v -6.72 -1.44 0
v -6.08 -1.44 0
v -7.36 -1.76 0
v -8 -1.76 0
v -8 -1.44 0
v -7.36 -1.44 0
v -9.92 -1.76 0
v -10.56 -1.76 0
v -10.56 -1.44 0
v -9.92 -1.44 0
v -11.2 -1.76 0
v -11.84 -1.76 0
v -11.84 -1.44 0
v -11.2 -1.44 0
v -0.64 -1.92 0
v -1.28 -1.92 0
v -1.28 -1.6 0
v -0.64 -1.6 0
v -1.28 -1.92 0
v -1.92 -1.92 0
v -1.92 -1.6 0
v -1.28 -1.6 0
v -6.4 -1.92 0
v -7.04 -1.92 0
v -7.04 -1.6 0
v -6.4 -1.6 0
v -9.599999 -1.92 0
v -10.24 -1.92 0
v -10.24 -1.6 0
v -9.599999 -1.6 0
v -10.24 -1.92 0
v -10.88 -1.92 0
v -10.88 -1.6 0
v -10.24 -1.6 0
v -10.88 -1.92 0
v -11.52 -1.92 0
v -11.52 -1.6 0
v -10.88 -1.6 0
v -0.96 -2.08 0
v -1.6 -2.08 0
v -1.6 -1.76 0
v -0.96 -1.76 0
v -5.44 -2.08 0
v -6.08 -2.08 0
v -6.08 -1.76 0
v -5.44 -1.76 0
v -6.08 -2.08 0
v -6.72 -2.08 0
v -6.72 -1.76 0
v -6.08 -1.76 0
v -6.72 -2.08 0
v -7.36 -2.08 0
v -7.36 -1.76 0
v -6.72 -1.76 0
v -9.92 -2.08 0
v -10.56 -2.08 0
v -10.56 -1.76 0
v -9.92 -1.76 0
v -1.92 -2.24 0
v -2.56 -2.24 0
v -2.56 -1.92 0
v -1.92 -1.92 0
v -5.12 -2.24 0
v -5.76 -2.24 0
v -5.76 -1.92 0
v -5.12 -1.92 0
v -8.96 -2.24 0
v -9.599999 -2.24 0
v -9.599999 -1.92 0
v -8.96 -1.92 0
v -9.599999 -2.24 0
v -10.24 -2.24 0
v -10.24 -1.92 0
v -9.599999 -1.92 0
v -10.24 -2.24 0
v -10.88 -2.24 0
v -10.88 -1.92 0
v -10.24 -1.92 0
v -10.88 -2.24 0
v -11.52 -2.24 0
v -11.52 -1.92 0
v -10.88 -1.92 0
v -12.8 -2.24 0
v -13.44 -2.24 0
v -13.44 -1.92 0
v -12.8 -1.92 0
v -0.96 -2.4 0
v -1.6 -2.4 0
v -1.6 -2.08 0
v -0.96 -2.08 0
v -9.92 -2.4 0
v -10.56 -2.4 0
v -10.56 -2.08 0
v -9.92 -2.08 0
v -11.84 -2.4 0
v -12.48 -2.4 0
v -12.48 -2.08 0
v -11.84 -2.08 0
v -0.64 -2.56 0
v -1.28 -2.56 0
v -1.28 -2.24 0
v -0.64 -2.24 0
v -1.28 -2.56 0
v -1.92 -2.56 0
v -1.92 -2.24 0
v -1.28 -2.24 0
v -1.92 -2.56 0
v -2.56 -2.56 0
v -2.56 -2.24 0
v -1.92 -2.24 0
v -5.12 -2.56 0
v -5.76 -2.56 0
v -5.76 -2.24 0
v -5.12 -2.24 0
v -6.4 -2.56 0
v -7.04 -2.56 0
v -7.04 -2.24 0
v -6.4 -2.24 0
v -8.96 -2.56 0
v -9.599999 -2.56 0
v -9.599999 -2.24 0
v -8.96 -2.24 0
v -9.599999 -2.56 0
v -10.24 -2.56 0
v -10.24 -2.24 0
v -9.599999 -2.24 0
v -10.24 -2.56 0
v -10.88 -2.56 0
v -10.88 -2.24 0
v -10.24 -2.24 0
v -10.88 -2.56 0
v -11.52 -2.56 0
v -11.52 -2.24 0
v -10.88 -2.24 0
v -12.8 -2.56 0
v -13.44 -2.56 0
v -13.44 -2.24 0
v -12.8 -2.24 0
v -0.96 -2.72 0
v -1.6 -2.72 0
v -1.6 -2.4 0
v -0.96 -2.4 0
v -9.92 -2.72 0
v -10.56 -2.72 0
v -10.56 -2.4 0
v -9.92 -2.4 0
v -11.2 -2.72 0
v -11.84 -2.72 0
v -11.84 -2.4 0
v -11.2 -2.4 0
v -11.84 -2.72 0
v -12.48 -2.72 0
v -12.48 -2.4 0
v -11.84 -2.4 0
v -1.92 -2.88 0
v -2.56 -2.88 0
v -2.56 -2.56 0
v -1.92 -2.56 0
v -6.4 -2.88 0
v -7.04 -2.88 0
v -7.04 -2.56 0
v -6.4 -2.56 0
v -10.88 -2.88 0
v -11.52 -2.88 0
v -11.52 -2.56 0
v -10.88 -2.56 0
v -9.92 -3.04 0
v -10.56 -3.04 0
v -10.56 -2.72 0
v -9.92 -2.72 0
v -10.56 -3.04 0
v -11.2 -3.04 0
v -11.2 -2.72 0
v -10.56 -2.72 0
v -11.2 -3.04 0
v -11.84 -3.04 0
v -11.84 -2.72 0
v -11.2 -2.72 0
v -12.48 -3.04 0
v -13.12 -3.04 0
v -13.12 -2.72 0
v -12.48 -2.72 0
v -1.28 -3.2 0
v -1.92 -3.2 0
v -1.92 -2.88 0
v -1.28 -2.88 0
v -1.92 -3.2 0
v -2.56 -3.2 0
v -2.56 -2.88 0
v -1.92 -2.88 0
v -12.16 -3.2 0
v -12.8 -3.2 0
v -12.8 -2.88 0
v -12.16 -2.88 0
v -2.24 -3.36 0
v -2.88 -3.36 0
v -2.88 -3.04 0
v -2.24 -3.04 0
v -10.56 -3.36 0
v -11.2 -3.36 0
v -11.2 -3.04 0
v -10.56 -3.04 0
v -12.48 -3.36 0
v -13.12 -3.36 0
v -13.12 -3.04 0
v -12.48 -3.04 0
v -1.28 -3.52 0
v -1.92 -3.52 0
v -1.92 -3.2 0
v -1.28 -3.2 0
v -11.52 -3.52 0
v -12.16 -3.52 0
v -12.16 -3.2 0
v -11.52 -3.2 0
v -12.16 -3.52 0
v -12.8 -3.52 0
v -12.8 -3.2 0
v -12.16 -3.2 0
v -1.6 -3.68 0
v -2.24 -3.68 0
v -2.24 -3.36 0
v -1.6 -3.36 0
v -2.24 -3.68 0
v -2.88 -3.68 0
v -2.88 -3.36 0
v -2.24 -3.36 0
v -4.16 -3.68 0
v -4.8 -3.68 0
v -4.8 -3.36 0
v -4.16 -3.36 0
v -0.64 -3.84 0
v -1.28 -3.84 0
v -1.28 -3.52 0
v -0.64 -3.52 0
v -1.6 -4 0
v -2.24 -4 0
v -2.24 -3.68 0
v -1.6 -3.68 0
v -4.16 -4 0
v -4.8 -4 0
v -4.8 -3.68 0
v -4.16 -3.68 0
v -2.24 -4.32 0
v -2.88 -4.32 0
v -2.88 -4 0
v -2.24 -4 0
v -3.52 -4.32 0
v -4.16 -4.32 0
v -4.16 -4 0
v -3.52 -4 0
v -1.28 -4.48 0
v -1.92 -4.48 0
v -1.92 -4.16 0
v -1.28 -4.16 0
v -2.56 -4.48 0
v -3.2 -4.48 0
v -3.2 -4.16 0
v -2.56 -4.16 0
v -4.48 -4.48 0
v -5.12 -4.48 0
v -5.12 -4.16 0
v -4.48 -4.16 0
v -5.12 -4.48 0
v -5.76 -4.48 0
v -5.76 -4.16 0
v -5.12 -4.16 0
v -1.6 -4.64 0
v -2.24 -4.64 0
v -2.24 -4.32 0
v -1.6 -4.32 0
v -2.24 -4.64 0
v -2.88 -4.64 0
v -2.88 -4.32 0
v -2.24 -4.32 0
v -1.28 -4.8 0
v -1.92 -4.8 0
v -1.92 -4.48 0
v -1.28 -4.48 0
v -2.56 -4.8 0
v -3.2 -4.8 0
v -3.2 -4.48 0
v -2.56 -4.48 0
v -3.2 -4.8 0
v -3.84 -4.8 0
v -3.84 -4.48 0
v -3.2 -4.48 0
v -4.48 -4.8 0
v -5.12 -4.8 0
v -5.12 -4.48 0
v -4.48 -4.48 0
v -5.12 -4.8 0
v -5.76 -4.8 0
v -5.76 -4.48 0
v -5.12 -4.48 0
v -1.6 -4.96 0
v -2.24 -4.96 0
v -2.24 -4.64 0
v -1.6 -4.64 0
v -2.24 -4.96 0
v -2.88 -4.96 0
v -2.88 -4.64 0
v -2.24 -4.64 0
v -2.56 -5.12 0
v -3.2 -5.12 0
v -3.2 -4.8 0
v -2.56 -4.8 0
v -3.2 -5.12 0
v -3.84 -5.12 0
v -3.84 -4.8 0
v -3.2 -4.8 0
v -3.84 -5.12 0
v -4.48 -5.12 0
v -4.48 -4.8 0
v -3.84 -4.8 0
v -5.12 -5.12 0
v -5.76 -5.12 0
v -5.76 -4.8 0
v -5.12 -4.8 0
v -2.24 -5.28 0
v -2.88 -5.28 0
v -2.88 -4.96 0
v -2.24 -4.96 0
v -6.08 -5.28 0
v -6.72 -5.28 0
v -6.72 -4.96 0
v -6.08 -4.96 0
v -12.48 -5.28 0
v -13.12 -5.28 0
v -13.12 -4.96 0
v -12.48 -4.96 0
v -13.12 -5.28 0
v -13.76 -5.28 0
v -13.76 -4.96 0
v -13.12 -4.96 0
v -1.28 -5.44 0
v -1.92 -5.44 0
v -1.92 -5.12 0
v -1.28 -5.12 0
v -1.92 -5.44 0
v -2.56 -5.44 0
v -2.56 -5.12 0
v -1.92 -5.12 0
v -3.84 -5.44 0
v -4.48 -5.44 0
v -4.48 -5.12 0
v -3.84 -5.12 0
v -11.52 -5.44 0
v -12.16 -5.44 0
v -12.16 -5.12 0
v -11.52 -5.12 0
v -2.88 -5.6 0
v -3.52 -5.6 0
v -3.52 -5.28 0
v -2.88 -5.28 0
v -4.16 -5.6 0
v -4.8 -5.6 0
v -4.8 -5.28 0
v -4.16 -5.28 0
v -12.48 -5.6 0
v -13.12 -5.6 0
v -13.12 -5.28 0
v -12.48 -5.28 0
v -13.12 -5.6 0
v -13.76 -5.6 0
v -13.76 -5.28 0
v -13.12 -5.28 0
v -1.28 -5.76 0
v -1.92 -5.76 0
v -1.92 -5.44 0
v -1.28 -5.44 0
v -1.92 -5.76 0
v -2.56 -5.76 0
v -2.56 -5.44 0
v -1.92 -5.44 0
v -5.12 -5.76 0
v -5.76 -5.76 0
v -5.76 -5.44 0
v -5.12 -5.44 0
v -11.52 -5.76 0
v -12.16 -5.76 0
v -12.16 -5.44 0
v -11.52 -5.44 0
v -0.96 -5.92 0
v -1.6 -5.92 0
v -1.6 -5.6 0
v -0.96 -5.6 0
v -2.88 -5.92 0
v -3.52 -5.92 0
v -3.52 -5.6 0
v -2.88 -5.6 0
v -11.84 -5.92 0
v -12.48 -5.92 0
v -12.48 -5.6 0
v -11.84 -5.6 0
v -12.48 -5.92 0
v -13.12 -5.92 0
v -13.12 -5.6 0
v -12.48 -5.6 0
v -1.92 -6.08 0
v -2.56 -6.08 0
v -2.56 -5.76 0
v -1.92 -5.76 0
v -3.84 -6.08 0
v -4.48 -6.08 0
v -4.48 -5.76 0
v -3.84 -5.76 0
v -5.12 -6.08 0
v -5.76 -6.08 0
v -5.76 -5.76 0
v -5.12 -5.76 0
v -2.88 -6.24 0
v -3.52 -6.24 0
v -3.52 -5.92 0
v -2.88 -5.92 0
v -4.8 -6.24 0
v -5.44 -6.24 0
v -5.44 -5.92 0
v -4.8 -5.92 0
v -7.36 -6.24 0
v -8 -6.24 0
v -8 -5.92 0
v -7.36 -5.92 0
v -11.84 -6.24 0
v -12.48 -6.24 0
v -12.48 -5.92 0
v -11.84 -5.92 0
v -12.48 -6.24 0
v -13.12 -6.24 0
v -13.12 -5.92 0
v -12.48 -5.92 0
v -1.92 -6.4 0
v -2.56 -6.4 0
v -2.56 -6.08 0
v -1.92 -6.08 0
v -3.2 -6.4 0
v -3.84 -6.4 0
v -3.84 -6.08 0
v -3.2 -6.08 0
v -3.84 -6.4 0
v -4.48 -6.4 0
v -4.48 -6.08 0
v -3.84 -6.08 0
v -4.48 -6.4 0
v -5.12 -6.4 0
v -5.12 -6.08 0
v -4.48 -6.08 0
v -12.16 -6.4 0
v -12.8 -6.4 0
v -12.8 -6.08 0
v -12.16 -6.08 0
v -2.88 -6.56 0
v -3.52 -6.56 0
v -3.52 -6.24 0
v -2.88 -6.24 0
v -4.16 -6.56 0
v -4.8 -6.56 0
v -4.8 -6.24 0
v -4.16 -6.24 0
v -6.72 -6.56 0
v -7.36 -6.56 0
v -7.36 -6.24 0
v -6.72 -6.24 0
v -3.84 -6.72 0
v -4.48 -6.72 0
v -4.48 -6.4 0
v -3.84 -6.4 0
v -4.48 -6.72 0
v -5.12 -6.72 0
v -5.12 -6.4 0
v -4.48 -6.4 0
v -7.68 -6.72 0
v -8.32 -6.72 0
v -8.32 -6.4 0
v -7.68 -6.4 0
v -12.16 -6.72 0
v -12.8 -6.72 0
v -12.8 -6.4 0
v -12.16 -6.4 0
v -12.8 -6.72 0
v -13.44 -6.72 0
v -13.44 -6.4 0
v -12.8 -6.4 0
v -0.96 -6.88 0
v -1.6 -6.88 0
v -1.6 -6.56 0
v -0.96 -6.56 0
v -4.16 -6.88 0
v -4.8 -6.88 0
v -4.8 -6.56 0
v -4.16 -6.56 0
v -6.72 -6.88 0
v -7.36 -6.88 0
v -7.36 -6.56 0
v -6.72 -6.56 0
v -4.48 -7.04 0
v -5.12 -7.04 0
v -5.12 -6.72 0
v -4.48 -6.72 0
v -7.68 -7.04 0
v -8.32 -7.04 0
v -8.32 -6.72 0
v -7.68 -6.72 0
v -12.8 -7.04 0
v -13.44 -7.04 0
v -13.44 -6.72 0
v -12.8 -6.72 0
v -1.6 -7.2 0
v -2.24 -7.2 0
v -2.24 -6.88 0
v -1.6 -6.88 0
v -2.24 -7.2 0
v -2.88 -7.2 0
v -2.88 -6.88 0
v -2.24 -6.88 0
v -2.88 -7.2 0
v -3.52 -7.2 0
v -3.52 -6.88 0
v -2.88 -6.88 0
v -6.4 -7.36 0
v -7.04 -7.36 0
v -7.04 -7.04 0
v -6.4 -7.04 0
v -7.68 -7.36 0
v -8.32 -7.36 0
v -8.32 -7.04 0
v -7.68 -7.04 0
v -1.6 -7.52 0
v -2.24 -7.52 0
v -2.24 -7.2 0
v -1.6 -7.2 0
v -2.88 -7.52 0
v -3.52 -7.52 0
v -3.52 -7.2 0
v -2.88 -7.2 0
v -3.52 -7.52 0
v -4.16 -7.52 0
v -4.16 -7.2 0
v -3.52 -7.2 0
v -5.44 -7.52 0
v -6.08 -7.52 0
v -6.08 -7.2 0
v -5.44 -7.2 0
v -7.36 -7.52 0
v -8 -7.52 0
v -8 -7.2 0
v -7.36 -7.2 0
v -3.52 -7.84 0
v -4.16 -7.84 0
v -4.16 -7.52 0
v -3.52 -7.52 0
v -5.44 -7.84 0
v -6.08 -7.84 0
v -6.08 -7.52 0
v -5.44 -7.52 0
v -7.36 -7.84 0
v -8 -7.84 0
v -8 -7.52 0
v -7.36 -7.52 0

# Texture cooridinates (Count = 30)
vt 0.375 0.7380952
vt 0.4375 0.7380952
vt 0.4375 0.7619048
vt 0.375 0.7619048
vt 0.875 0.7142857
vt 0.9375 0.7142857
vt 0.9375 0.7380952
vt 0.875 0.7380952
vt 0.375 0.7142857
vt 0.4375 0.7142857
vt 1 0.7142857
vt 1 0.7380952
vt 0.125 0.7380952
vt 0.1875 0.7380952
vt 0.1875 0.7619048
vt 0.125 0.7619048
vt 0.125 0.7142857
vt 0.1875 0.7142857
vt 0.25 0.7380952
vt 0.25 0.7619048
vt 0.25 0.7142857
vt 0.3125 0.7380952
vt 0.3125 0.7619048
vt 0.3125 0.7142857
vt 0.625 0.7380952
vt 0.6875 0.7380952
vt 0.6875 0.7619048
vt 0.625 0.7619048
vt 0.625 0.7142857
vt 0.6875 0.7142857

# Normal
vn 0 0 -1

# Mesh description
g prije-grada_mesh_0004

# Faces
f 1/1/1 2/2/1 3/3/1 4/4/1
f 5/1/1 6/2/1 7/3/1 8/4/1
f 9/5/1 10/6/1 11/7/1 12/8/1
f 13/1/1 14/2/1 15/3/1 16/4/1
f 17/1/1 18/2/1 19/3/1 20/4/1
f 21/1/1 22/2/1 23/3/1 24/4/1
f 25/9/1 26/10/1 27/2/1 28/1/1
f 29/1/1 30/2/1 31/3/1 32/4/1
f 33/1/1 34/2/1 35/3/1 36/4/1
f 37/9/1 38/10/1 39/2/1 40/1/1
f 41/6/1 42/11/1 43/12/1 44/7/1
f 45/9/1 46/10/1 47/2/1 48/1/1
f 49/1/1 50/2/1 51/3/1 52/4/1
f 53/9/1 54/10/1 55/2/1 56/1/1
f 57/9/1 58/10/1 59/2/1 60/1/1
f 61/1/1 62/2/1 63/3/1 64/4/1
f 65/9/1 66/10/1 67/2/1 68/1/1
f 69/1/1 70/2/1 71/3/1 72/4/1
f 73/9/1 74/10/1 75/2/1 76/1/1
f 77/6/1 78/11/1 79/12/1 80/7/1
f 81/1/1 82/2/1 83/3/1 84/4/1
f 85/1/1 86/2/1 87/3/1 88/4/1
f 89/9/1 90/10/1 91/2/1 92/1/1
f 93/1/1 94/2/1 95/3/1 96/4/1
f 97/6/1 98/11/1 99/12/1 100/7/1
f 101/9/1 102/10/1 103/2/1 104/1/1
f 105/1/1 106/2/1 107/3/1 108/4/1
f 109/9/1 110/10/1 111/2/1 112/1/1
f 113/1/1 114/2/1 115/3/1 116/4/1
f 117/13/1 118/14/1 119/15/1 120/16/1
f 121/5/1 122/6/1 123/7/1 124/8/1
f 125/9/1 126/10/1 127/2/1 128/1/1
f 129/5/1 130/6/1 131/7/1 132/8/1
f 133/13/1 134/14/1 135/15/1 136/16/1
f 137/9/1 138/10/1 139/2/1 140/1/1
f 141/5/1 142/6/1 143/7/1 144/8/1
f 145/1/1 146/2/1 147/3/1 148/4/1
f 149/9/1 150/10/1 151/2/1 152/1/1
f 153/1/1 154/2/1 155/3/1 156/4/1
f 157/1/1 158/2/1 159/3/1 160/4/1
f 161/9/1 162/10/1 163/2/1 164/1/1
f 165/9/1 166/10/1 167/2/1 168/1/1
f 169/17/1 170/18/1 171/14/1 172/13/1
f 173/5/1 174/6/1 175/7/1 176/8/1
f 177/9/1 178/10/1 179/2/1 180/1/1
f 181/17/1 182/18/1 183/14/1 184/13/1
f 185/1/1 186/2/1 187/3/1 188/4/1
f 189/5/1 190/6/1 191/7/1 192/8/1
f 193/9/1 194/10/1 195/2/1 196/1/1
f 197/5/1 198/6/1 199/7/1 200/8/1
f 201/9/1 202/10/1 203/2/1 204/1/1
f 205/9/1 206/10/1 207/2/1 208/1/1
f 209/5/1 210/6/1 211/7/1 212/8/1
f 213/13/1 214/14/1 215/15/1 216/16/1
f 217/5/1 218/6/1 219/7/1 220/8/1
f 221/1/1 222/2/1 223/3/1 224/4/1
f 225/1/1 226/2/1 227/3/1 228/4/1
f 229/9/1 230/10/1 231/2/1 232/1/1
f 233/1/1 234/2/1 235/3/1 236/4/1
f 237/5/1 238/6/1 239/7/1 240/8/1
f 241/1/1 242/2/1 243/3/1 244/4/1
f 245/1/1 246/2/1 247/3/1 248/4/1
f 249/17/1 250/18/1 251/14/1 252/13/1
f 253/1/1 254/2/1 255/3/1 256/4/1
f 257/5/1 258/6/1 259/7/1 260/8/1
f 261/5/1 262/6/1 263/7/1 264/8/1
f 265/6/1 266/11/1 267/12/1 268/7/1
f 269/9/1 270/10/1 271/2/1 272/1/1
f 273/1/1 274/2/1 275/3/1 276/4/1
f 277/9/1 278/10/1 279/2/1 280/1/1
f 281/9/1 282/10/1 283/2/1 284/1/1
f 285/9/1 286/10/1 287/2/1 288/1/1
f 289/14/1 290/19/1 291/20/1 292/15/1
f 293/9/1 294/10/1 295/2/1 296/1/1
f 297/9/1 298/10/1 299/2/1 300/1/1
f 301/1/1 302/2/1 303/3/1 304/4/1
f 305/1/1 306/2/1 307/3/1 308/4/1
f 309/9/1 310/10/1 311/2/1 312/1/1
f 313/1/1 314/2/1 315/3/1 316/4/1
f 317/9/1 318/10/1 319/2/1 320/1/1
f 321/18/1 322/21/1 323/19/1 324/14/1
f 325/5/1 326/6/1 327/7/1 328/8/1
f 329/1/1 330/2/1 331/3/1 332/4/1
f 333/9/1 334/10/1 335/2/1 336/1/1
f 337/1/1 338/2/1 339/3/1 340/4/1
f 341/13/1 342/14/1 343/15/1 344/16/1
f 345/9/1 346/10/1 347/2/1 348/1/1
f 349/1/1 350/2/1 351/3/1 352/4/1
f 353/6/1 354/11/1 355/12/1 356/7/1
f 357/9/1 358/10/1 359/2/1 360/1/1
f 361/9/1 362/10/1 363/2/1 364/1/1
f 365/17/1 366/18/1 367/14/1 368/13/1
f 369/5/1 370/6/1 371/7/1 372/8/1
f 373/9/1 374/10/1 375/2/1 376/1/1
f 377/1/1 378/2/1 379/3/1 380/4/1
f 381/18/1 382/21/1 383/19/1 384/14/1
f 385/13/1 386/14/1 387/15/1 388/16/1
f 389/5/1 390/6/1 391/7/1 392/8/1
f 393/9/1 394/10/1 395/2/1 396/1/1
f 397/17/1 398/18/1 399/14/1 400/13/1
f 401/5/1 402/6/1 403/7/1 404/8/1
f 405/6/1 406/11/1 407/12/1 408/7/1
f 409/1/1 410/2/1 411/3/1 412/4/1
f 413/1/1 414/2/1 415/3/1 416/4/1
f 417/22/1 418/1/1 419/4/1 420/23/1
f 421/5/1 422/6/1 423/7/1 424/8/1
f 425/14/1 426/19/1 427/20/1 428/15/1
f 429/17/1 430/18/1 431/14/1 432/13/1
f 433/9/1 434/10/1 435/2/1 436/1/1
f 437/9/1 438/10/1 439/2/1 440/1/1
f 441/1/1 442/2/1 443/3/1 444/4/1
f 445/24/1 446/9/1 447/1/1 448/22/1
f 449/1/1 450/2/1 451/3/1 452/4/1
f 453/18/1 454/21/1 455/19/1 456/14/1
f 457/1/1 458/2/1 459/3/1 460/4/1
f 461/9/1 462/10/1 463/2/1 464/1/1
f 465/9/1 466/10/1 467/2/1 468/1/1
f 469/13/1 470/14/1 471/15/1 472/16/1
f 473/9/1 474/10/1 475/2/1 476/1/1
f 477/9/1 478/10/1 479/2/1 480/1/1
f 481/5/1 482/6/1 483/7/1 484/8/1
f 485/1/1 486/2/1 487/3/1 488/4/1
f 489/1/1 490/2/1 491/3/1 492/4/1
f 493/1/1 494/2/1 495/3/1 496/4/1
f 497/1/1 498/2/1 499/3/1 500/4/1
f 501/5/1 502/6/1 503/7/1 504/8/1
f 505/1/1 506/2/1 507/3/1 508/4/1
f 509/1/1 510/2/1 511/3/1 512/4/1
f 513/6/1 514/11/1 515/12/1 516/7/1
f 517/9/1 518/10/1 519/2/1 520/1/1
f 521/9/1 522/10/1 523/2/1 524/1/1
f 525/9/1 526/10/1 527/2/1 528/1/1
f 529/9/1 530/10/1 531/2/1 532/1/1
f 533/25/1 534/26/1 535/27/1 536/28/1
f 537/9/1 538/10/1 539/2/1 540/1/1
f 541/5/1 542/6/1 543/7/1 544/8/1
f 545/9/1 546/10/1 547/2/1 548/1/1
f 549/1/1 550/2/1 551/3/1 552/4/1
f 553/9/1 554/10/1 555/2/1 556/1/1
f 557/1/1 558/2/1 559/3/1 560/4/1
f 561/14/1 562/19/1 563/20/1 564/15/1
f 565/29/1 566/30/1 567/26/1 568/25/1
f 569/13/1 570/14/1 571/15/1 572/16/1
f 573/5/1 574/6/1 575/7/1 576/8/1
f 577/5/1 578/6/1 579/7/1 580/8/1
f 581/9/1 582/10/1 583/2/1 584/1/1
f 585/9/1 586/10/1 587/2/1 588/1/1
f 589/9/1 590/10/1 591/2/1 592/1/1
f 593/6/1 594/11/1 595/12/1 596/7/1
f 597/18/1 598/21/1 599/19/1 600/14/1
f 601/1/1 602/2/1 603/3/1 604/4/1
f 605/1/1 606/2/1 607/3/1 608/4/1
f 609/17/1 610/18/1 611/14/1 612/13/1
f 613/1/1 614/2/1 615/3/1 616/4/1
f 617/1/1 618/2/1 619/3/1 620/4/1
f 621/6/1 622/11/1 623/12/1 624/7/1
f 625/9/1 626/10/1 627/2/1 628/1/1
f 629/5/1 630/6/1 631/7/1 632/8/1
f 633/9/1 634/10/1 635/2/1 636/1/1
f 637/1/1 638/2/1 639/3/1 640/4/1
f 641/5/1 642/6/1 643/7/1 644/8/1
f 645/9/1 646/10/1 647/2/1 648/1/1
f 649/9/1 650/10/1 651/2/1 652/1/1
f 653/6/1 654/11/1 655/12/1 656/7/1
f 657/14/1 658/19/1 659/20/1 660/15/1
f 661/9/1 662/10/1 663/2/1 664/1/1
f 665/1/1 666/2/1 667/3/1 668/4/1
f 669/5/1 670/6/1 671/7/1 672/8/1
f 673/1/1 674/2/1 675/3/1 676/4/1
f 677/5/1 678/6/1 679/7/1 680/8/1
f 681/18/1 682/21/1 683/19/1 684/14/1
f 685/9/1 686/10/1 687/2/1 688/1/1
f 689/9/1 690/10/1 691/2/1 692/1/1
f 693/1/1 694/2/1 695/3/1 696/4/1
f 697/1/1 698/2/1 699/3/1 700/4/1
f 701/1/1 702/2/1 703/3/1 704/4/1
f 705/9/1 706/10/1 707/2/1 708/1/1
f 709/9/1 710/10/1 711/2/1 712/1/1
f 713/9/1 714/10/1 715/2/1 716/1/1

