# Tiled2Unity generated file. Do not modify by hand.
# Wavefront file for 'grad2_mesh_0005.obj'

# Vertices (Count = 348)
v -16.32 -1.76 0
v -16.96 -1.76 0
v -16.96 -1.44 0
v -16.32 -1.44 0
v -16.32 -2.08 0
v -16.96 -2.08 0
v -16.96 -1.76 0
v -16.32 -1.76 0
v -16.32 -2.4 0
v -16.96 -2.4 0
v -16.96 -2.08 0
v -16.32 -2.08 0
v -16 -3.2 0
v -16.64 -3.2 0
v -16.64 -2.88 0
v -16 -2.88 0
v -12.48 -3.36 0
v -13.12 -3.36 0
v -13.12 -3.04 0
v -12.48 -3.04 0
v -16 -3.52 0
v -16.64 -3.52 0
v -16.64 -3.2 0
v -16 -3.2 0
v -12.48 -3.68 0
v -13.12 -3.68 0
v -13.12 -3.36 0
v -12.48 -3.36 0
v -12.48 -4 0
v -13.12 -4 0
v -13.12 -3.68 0
v -12.48 -3.68 0
v -11.52 -4.16 0
v -12.16 -4.16 0
v -12.16 -3.84 0
v -11.52 -3.84 0
v -12.48 -4.32 0
v -13.12 -4.32 0
v -13.12 -4 0
v -12.48 -4 0
v -11.52 -4.48 0
v -12.16 -4.48 0
v -12.16 -4.16 0
v -11.52 -4.16 0
v -11.52 -4.8 0
v -12.16 -4.8 0
v -12.16 -4.48 0
v -11.52 -4.48 0
v -11.52 -5.12 0
v -12.16 -5.12 0
v -12.16 -4.8 0
v -11.52 -4.8 0
v -25.6 -7.68 0
v -26.24 -7.68 0
v -26.24 -7.36 0
v -25.6 -7.36 0
v -25.6 -8 0
v -26.24 -8 0
v -26.24 -7.68 0
v -25.6 -7.68 0
v -25.6 -8.32 0
v -26.24 -8.32 0
v -26.24 -8 0
v -25.6 -8 0
v -25.6 -8.639999 0
v -26.24 -8.639999 0
v -26.24 -8.32 0
v -25.6 -8.32 0
v -3.52 -8.8 0
v -4.16 -8.8 0
v -4.16 -8.48 0
v -3.52 -8.48 0
v -3.2 -8.96 0
v -3.84 -8.96 0
v -3.84 -8.639999 0
v -3.2 -8.639999 0
v -2.88 -9.12 0
v -3.52 -9.12 0
v -3.52 -8.8 0
v -2.88 -8.8 0
v -3.52 -9.12 0
v -4.16 -9.12 0
v -4.16 -8.8 0
v -3.52 -8.8 0
v -3.2 -9.28 0
v -3.84 -9.28 0
v -3.84 -8.96 0
v -3.2 -8.96 0
v -2.88 -9.44 0
v -3.52 -9.44 0
v -3.52 -9.12 0
v -2.88 -9.12 0
v -3.52 -9.44 0
v -4.16 -9.44 0
v -4.16 -9.12 0
v -3.52 -9.12 0
v -3.2 -9.599999 0
v -3.84 -9.599999 0
v -3.84 -9.28 0
v -3.2 -9.28 0
v -2.88 -9.76 0
v -3.52 -9.76 0
v -3.52 -9.44 0
v -2.88 -9.44 0
v -3.52 -9.76 0
v -4.16 -9.76 0
v -4.16 -9.44 0
v -3.52 -9.44 0
v -4.16 -9.76 0
v -4.8 -9.76 0
v -4.8 -9.44 0
v -4.16 -9.44 0
v -2.88 -10.08 0
v -3.52 -10.08 0
v -3.52 -9.76 0
v -2.88 -9.76 0
v -4.16 -10.08 0
v -4.8 -10.08 0
v -4.8 -9.76 0
v -4.16 -9.76 0
v -3.84 -10.24 0
v -4.48 -10.24 0
v -4.48 -9.92 0
v -3.84 -9.92 0
v -3.84 -10.56 0
v -4.48 -10.56 0
v -4.48 -10.24 0
v -3.84 -10.24 0
v -3.84 -10.88 0
v -4.48 -10.88 0
v -4.48 -10.56 0
v -3.84 -10.56 0
v -4.8 -11.04 0
v -5.44 -11.04 0
v -5.44 -10.72 0
v -4.8 -10.72 0
v -4.8 -11.36 0
v -5.44 -11.36 0
v -5.44 -11.04 0
v -4.8 -11.04 0
v -4.8 -11.68 0
v -5.44 -11.68 0
v -5.44 -11.36 0
v -4.8 -11.36 0
v -4.8 -12 0
v -5.44 -12 0
v -5.44 -11.68 0
v -4.8 -11.68 0
v -3.2 -12.16 0
v -3.84 -12.16 0
v -3.84 -11.84 0
v -3.2 -11.84 0
v -3.84 -12.16 0
v -4.48 -12.16 0
v -4.48 -11.84 0
v -3.84 -11.84 0
v -24.64 -12.32 0
v -25.28 -12.32 0
v -25.28 -12 0
v -24.64 -12 0
v -3.2 -12.48 0
v -3.84 -12.48 0
v -3.84 -12.16 0
v -3.2 -12.16 0
v -3.84 -12.48 0
v -4.48 -12.48 0
v -4.48 -12.16 0
v -3.84 -12.16 0
v -24.64 -12.64 0
v -25.28 -12.64 0
v -25.28 -12.32 0
v -24.64 -12.32 0
v -3.2 -12.8 0
v -3.84 -12.8 0
v -3.84 -12.48 0
v -3.2 -12.48 0
v -3.84 -12.8 0
v -4.48 -12.8 0
v -4.48 -12.48 0
v -3.84 -12.48 0
v -24.64 -12.96 0
v -25.28 -12.96 0
v -25.28 -12.64 0
v -24.64 -12.64 0
v -3.2 -13.12 0
v -3.84 -13.12 0
v -3.84 -12.8 0
v -3.2 -12.8 0
v -4.16 -13.28 0
v -4.8 -13.28 0
v -4.8 -12.96 0
v -4.16 -12.96 0
v -24.64 -13.28 0
v -25.28 -13.28 0
v -25.28 -12.96 0
v -24.64 -12.96 0
v -4.16 -13.6 0
v -4.8 -13.6 0
v -4.8 -13.28 0
v -4.16 -13.28 0
v -4.16 -13.92 0
v -4.8 -13.92 0
v -4.8 -13.6 0
v -4.16 -13.6 0
v -4.48 -14.08 0
v -5.12 -14.08 0
v -5.12 -13.76 0
v -4.48 -13.76 0
v -4.48 -14.4 0
v -5.12 -14.4 0
v -5.12 -14.08 0
v -4.48 -14.08 0
v -4.48 -14.72 0
v -5.12 -14.72 0
v -5.12 -14.4 0
v -4.48 -14.4 0
v -4.48 -15.04 0
v -5.12 -15.04 0
v -5.12 -14.72 0
v -4.48 -14.72 0
v -24.96 -15.04 0
v -25.6 -15.04 0
v -25.6 -14.72 0
v -24.96 -14.72 0
v -24.96 -15.36 0
v -25.6 -15.36 0
v -25.6 -15.04 0
v -24.96 -15.04 0
v -24.96 -15.68 0
v -25.6 -15.68 0
v -25.6 -15.36 0
v -24.96 -15.36 0
v -24.96 -16 0
v -25.6 -16 0
v -25.6 -15.68 0
v -24.96 -15.68 0
v -8.96 -16.96 0
v -9.599999 -16.96 0
v -9.599999 -16.64 0
v -8.96 -16.64 0
v -21.76 -16.96 0
v -22.4 -16.96 0
v -22.4 -16.64 0
v -21.76 -16.64 0
v -22.4 -16.96 0
v -23.04 -16.96 0
v -23.04 -16.64 0
v -22.4 -16.64 0
v -8.96 -17.28 0
v -9.599999 -17.28 0
v -9.599999 -16.96 0
v -8.96 -16.96 0
v -21.76 -17.28 0
v -22.4 -17.28 0
v -22.4 -16.96 0
v -21.76 -16.96 0
v -22.4 -17.28 0
v -23.04 -17.28 0
v -23.04 -16.96 0
v -22.4 -16.96 0
v -8.96 -17.6 0
v -9.599999 -17.6 0
v -9.599999 -17.28 0
v -8.96 -17.28 0
v -16.64 -17.6 0
v -17.28 -17.6 0
v -17.28 -17.28 0
v -16.64 -17.28 0
v -21.76 -17.6 0
v -22.4 -17.6 0
v -22.4 -17.28 0
v -21.76 -17.28 0
v -22.4 -17.6 0
v -23.04 -17.6 0
v -23.04 -17.28 0
v -22.4 -17.28 0
v -8.96 -17.92 0
v -9.599999 -17.92 0
v -9.599999 -17.6 0
v -8.96 -17.6 0
v -15.36 -17.92 0
v -16 -17.92 0
v -16 -17.6 0
v -15.36 -17.6 0
v -16.64 -17.92 0
v -17.28 -17.92 0
v -17.28 -17.6 0
v -16.64 -17.6 0
v -21.76 -17.92 0
v -22.4 -17.92 0
v -22.4 -17.6 0
v -21.76 -17.6 0
v -22.72 -18.08 0
v -23.36 -18.08 0
v -23.36 -17.76 0
v -22.72 -17.76 0
v -15.36 -18.24 0
v -16 -18.24 0
v -16 -17.92 0
v -15.36 -17.92 0
v -19.2 -18.24 0
v -19.84 -18.24 0
v -19.84 -17.92 0
v -19.2 -17.92 0
v -22.72 -18.4 0
v -23.36 -18.4 0
v -23.36 -18.08 0
v -22.72 -18.08 0
v -15.36 -18.56 0
v -16 -18.56 0
v -16 -18.24 0
v -15.36 -18.24 0
v -19.2 -18.56 0
v -19.84 -18.56 0
v -19.84 -18.24 0
v -19.2 -18.24 0
v -22.72 -18.72 0
v -23.36 -18.72 0
v -23.36 -18.4 0
v -22.72 -18.4 0
v -15.36 -18.88 0
v -16 -18.88 0
v -16 -18.56 0
v -15.36 -18.56 0
v -19.2 -18.88 0
v -19.84 -18.88 0
v -19.84 -18.56 0
v -19.2 -18.56 0
v -23.04 -18.88 0
v -23.68 -18.88 0
v -23.68 -18.56 0
v -23.04 -18.56 0
v -19.2 -19.2 0
v -19.84 -19.2 0
v -19.84 -18.88 0
v -19.2 -18.88 0
v -23.04 -19.2 0
v -23.68 -19.2 0
v -23.68 -18.88 0
v -23.04 -18.88 0
v -23.04 -19.52 0
v -23.68 -19.52 0
v -23.68 -19.2 0
v -23.04 -19.2 0
v -23.04 -19.84 0
v -23.68 -19.84 0
v -23.68 -19.52 0
v -23.04 -19.52 0

# Texture cooridinates (Count = 105)
vt 0.125 0.8125
vt 0.25 0.8125
vt 0.25 0.84375
vt 0.125 0.84375
vt 0.125 0.78125
vt 0.25 0.78125
vt 0.125 0.75
vt 0.25 0.75
vt 0.5 0.78125
vt 0.625 0.78125
vt 0.625 0.8125
vt 0.5 0.8125
vt 0.375 0.84375
vt 0.375 0.875
vt 0.25 0.875
vt 0.5 0.75
vt 0.625 0.75
vt 0.375 0.8125
vt 0.375 0.78125
vt 0.75 0.84375
vt 0.875 0.84375
vt 0.875 0.875
vt 0.75 0.875
vt 0.375 0.75
vt 0.75 0.8125
vt 0.875 0.8125
vt 0.75 0.78125
vt 0.875 0.78125
vt 0.75 0.75
vt 0.875 0.75
vt 0.375 0.59375
vt 0.5 0.59375
vt 0.5 0.625
vt 0.375 0.625
vt 0.375 0.5625
vt 0.5 0.5625
vt 0.375 0.53125
vt 0.5 0.53125
vt 0.375 0.5
vt 0.5 0.5
vt 0.25 0.96875
vt 0.375 0.96875
vt 0.375 1
vt 0.25 1
vt 0.125 0.96875
vt 0.125 1
vt 0 0.96875
vt 0 1
vt 0.25 0.9375
vt 0.375 0.9375
vt 0.125 0.9375
vt 0 0.9375
vt 0.25 0.90625
vt 0.375 0.90625
vt 0.125 0.90625
vt 0 0.90625
vt 0.125 0.40625
vt 0.25 0.40625
vt 0.25 0.4375
vt 0.125 0.4375
vt 0 0.875
vt 0.125 0.875
vt 0.125 0.375
vt 0.25 0.375
vt 0.125 0.1875
vt 0.25 0.1875
vt 0.25 0.21875
vt 0.125 0.21875
vt 0.125 0.15625
vt 0.25 0.15625
vt 0.125 0.125
vt 0.25 0.125
vt 0.5 0.34375
vt 0.625 0.34375
vt 0.625 0.375
vt 0.5 0.375
vt 0.5 0.3125
vt 0.625 0.3125
vt 0.5 0.28125
vt 0.625 0.28125
vt 0.5 0.25
vt 0.625 0.25
vt 0 0.84375
vt 0 0.8125
vt 0 0.78125
vt 0 0.75
vt 0.5 0.84375
vt 0.875 0.34375
vt 1 0.34375
vt 1 0.375
vt 0.875 0.375
vt 0.875 0.3125
vt 1 0.3125
vt 0.875 0.28125
vt 1 0.28125
vt 0.875 0.25
vt 1 0.25
vt 0.625 0.53125
vt 0.75 0.53125
vt 0.75 0.5625
vt 0.625 0.5625
vt 0.625 0.5
vt 0.75 0.5
vt 0.625 0.59375
vt 0.625 0.625

# Normal
vn 0 0 -1

# Mesh description
g grad2_mesh_0005

# Faces
f 1/1/1 2/2/1 3/3/1 4/4/1
f 5/5/1 6/6/1 7/2/1 8/1/1
f 9/7/1 10/8/1 11/6/1 12/5/1
f 13/9/1 14/10/1 15/11/1 16/12/1
f 17/3/1 18/13/1 19/14/1 20/15/1
f 21/16/1 22/17/1 23/10/1 24/9/1
f 25/2/1 26/18/1 27/13/1 28/3/1
f 29/6/1 30/19/1 31/18/1 32/2/1
f 33/20/1 34/21/1 35/22/1 36/23/1
f 37/8/1 38/24/1 39/19/1 40/6/1
f 41/25/1 42/26/1 43/21/1 44/20/1
f 45/27/1 46/28/1 47/26/1 48/25/1
f 49/29/1 50/30/1 51/28/1 52/27/1
f 53/31/1 54/32/1 55/33/1 56/34/1
f 57/35/1 58/36/1 59/32/1 60/31/1
f 61/37/1 62/38/1 63/36/1 64/35/1
f 65/39/1 66/40/1 67/38/1 68/37/1
f 69/41/1 70/42/1 71/43/1 72/44/1
f 73/45/1 74/41/1 75/44/1 76/46/1
f 77/47/1 78/45/1 79/46/1 80/48/1
f 81/49/1 82/50/1 83/42/1 84/41/1
f 85/51/1 86/49/1 87/41/1 88/45/1
f 89/52/1 90/51/1 91/45/1 92/47/1
f 93/53/1 94/54/1 95/50/1 96/49/1
f 97/55/1 98/53/1 99/49/1 100/51/1
f 101/56/1 102/55/1 103/51/1 104/52/1
f 105/15/1 106/14/1 107/54/1 108/53/1
f 109/57/1 110/58/1 111/59/1 112/60/1
f 113/61/1 114/62/1 115/55/1 116/56/1
f 117/63/1 118/64/1 119/58/1 120/57/1
f 121/65/1 122/66/1 123/67/1 124/68/1
f 125/69/1 126/70/1 127/66/1 128/65/1
f 129/71/1 130/72/1 131/70/1 132/69/1
f 133/73/1 134/74/1 135/75/1 136/76/1
f 137/77/1 138/78/1 139/74/1 140/73/1
f 141/79/1 142/80/1 143/78/1 144/77/1
f 145/81/1 146/82/1 147/80/1 148/79/1
f 149/83/1 150/4/1 151/62/1 152/61/1
f 153/1/1 154/2/1 155/3/1 156/4/1
f 157/73/1 158/74/1 159/75/1 160/76/1
f 161/84/1 162/1/1 163/4/1 164/83/1
f 165/5/1 166/6/1 167/2/1 168/1/1
f 169/77/1 170/78/1 171/74/1 172/73/1
f 173/85/1 174/5/1 175/1/1 176/84/1
f 177/7/1 178/8/1 179/6/1 180/5/1
f 181/79/1 182/80/1 183/78/1 184/77/1
f 185/86/1 186/7/1 187/5/1 188/85/1
f 189/18/1 190/12/1 191/87/1 192/13/1
f 193/81/1 194/82/1 195/80/1 196/79/1
f 197/19/1 198/9/1 199/12/1 200/18/1
f 201/24/1 202/16/1 203/9/1 204/19/1
f 205/3/1 206/13/1 207/14/1 208/15/1
f 209/2/1 210/18/1 211/13/1 212/3/1
f 213/6/1 214/19/1 215/18/1 216/2/1
f 217/8/1 218/24/1 219/19/1 220/6/1
f 221/88/1 222/89/1 223/90/1 224/91/1
f 225/92/1 226/93/1 227/89/1 228/88/1
f 229/94/1 230/95/1 231/93/1 232/92/1
f 233/96/1 234/97/1 235/95/1 236/94/1
f 237/3/1 238/13/1 239/14/1 240/15/1
f 241/83/1 242/4/1 243/62/1 244/61/1
f 245/1/1 246/2/1 247/3/1 248/4/1
f 249/2/1 250/18/1 251/13/1 252/3/1
f 253/84/1 254/1/1 255/4/1 256/83/1
f 257/5/1 258/6/1 259/2/1 260/1/1
f 261/6/1 262/19/1 263/18/1 264/2/1
f 265/98/1 266/99/1 267/100/1 268/101/1
f 269/85/1 270/5/1 271/1/1 272/84/1
f 273/7/1 274/8/1 275/6/1 276/5/1
f 277/8/1 278/24/1 279/19/1 280/6/1
f 281/3/1 282/13/1 283/14/1 284/15/1
f 285/102/1 286/103/1 287/99/1 288/98/1
f 289/86/1 290/7/1 291/5/1 292/85/1
f 293/18/1 294/12/1 295/87/1 296/13/1
f 297/2/1 298/18/1 299/13/1 300/3/1
f 301/32/1 302/104/1 303/105/1 304/33/1
f 305/19/1 306/9/1 307/12/1 308/18/1
f 309/6/1 310/19/1 311/18/1 312/2/1
f 313/36/1 314/101/1 315/104/1 316/32/1
f 317/24/1 318/16/1 319/9/1 320/19/1
f 321/8/1 322/24/1 323/19/1 324/6/1
f 325/38/1 326/98/1 327/101/1 328/36/1
f 329/3/1 330/13/1 331/14/1 332/15/1
f 333/40/1 334/102/1 335/98/1 336/38/1
f 337/2/1 338/18/1 339/13/1 340/3/1
f 341/6/1 342/19/1 343/18/1 344/2/1
f 345/8/1 346/24/1 347/19/1 348/6/1

