# Tiled2Unity generated file. Do not modify by hand.
# Wavefront file for 'raskrizje_mesh_0001.obj'

# Vertices (Count = 580)
v -30.08 -0.32 0
v -30.72 -0.32 0
v -30.72 0 0
v -30.08 0 0
v -30.72 -0.32 0
v -31.36 -0.32 0
v -31.36 0 0
v -30.72 0 0
v -29.76 -0.48 0
v -30.4 -0.48 0
v -30.4 -0.16 0
v -29.76 -0.16 0
v -30.4 -0.48 0
v -31.04 -0.48 0
v -31.04 -0.16 0
v -30.4 -0.16 0
v -29.44 -0.64 0
v -30.08 -0.64 0
v -30.08 -0.32 0
v -29.44 -0.32 0
v -30.08 -0.64 0
v -30.72 -0.64 0
v -30.72 -0.32 0
v -30.08 -0.32 0
v -29.12 -0.8 0
v -29.76 -0.8 0
v -29.76 -0.48 0
v -29.12 -0.48 0
v -29.76 -0.8 0
v -30.4 -0.8 0
v -30.4 -0.48 0
v -29.76 -0.48 0
v -29.44 -0.96 0
v -30.08 -0.96 0
v -30.08 -0.64 0
v -29.44 -0.64 0
v -29.76 -1.12 0
v -30.4 -1.12 0
v -30.4 -0.8 0
v -29.76 -0.8 0
v -29.44 -1.28 0
v -30.08 -1.28 0
v -30.08 -0.96 0
v -29.44 -0.96 0
v -29.12 -1.44 0
v -29.76 -1.44 0
v -29.76 -1.12 0
v -29.12 -1.12 0
v -29.76 -1.44 0
v -30.4 -1.44 0
v -30.4 -1.12 0
v -29.76 -1.12 0
v -29.44 -1.6 0
v -30.08 -1.6 0
v -30.08 -1.28 0
v -29.44 -1.28 0
v -29.12 -1.76 0
v -29.76 -1.76 0
v -29.76 -1.44 0
v -29.12 -1.44 0
v -29.76 -1.76 0
v -30.4 -1.76 0
v -30.4 -1.44 0
v -29.76 -1.44 0
v -29.44 -1.92 0
v -30.08 -1.92 0
v -30.08 -1.6 0
v -29.44 -1.6 0
v -29.76 -2.08 0
v -30.4 -2.08 0
v -30.4 -1.76 0
v -29.76 -1.76 0
v -29.44 -2.24 0
v -30.08 -2.24 0
v -30.08 -1.92 0
v -29.44 -1.92 0
v -29.76 -2.4 0
v -30.4 -2.4 0
v -30.4 -2.08 0
v -29.76 -2.08 0
v -29.44 -2.56 0
v -30.08 -2.56 0
v -30.08 -2.24 0
v -29.44 -2.24 0
v -29.76 -2.72 0
v -30.4 -2.72 0
v -30.4 -2.4 0
v -29.76 -2.4 0
v -29.44 -2.88 0
v -30.08 -2.88 0
v -30.08 -2.56 0
v -29.44 -2.56 0
v -29.76 -3.04 0
v -30.4 -3.04 0
v -30.4 -2.72 0
v -29.76 -2.72 0
v -29.44 -3.2 0
v -30.08 -3.2 0
v -30.08 -2.88 0
v -29.44 -2.88 0
v -29.76 -3.36 0
v -30.4 -3.36 0
v -30.4 -3.04 0
v -29.76 -3.04 0
v -29.44 -3.52 0
v -30.08 -3.52 0
v -30.08 -3.2 0
v -29.44 -3.2 0
v -29.12 -3.68 0
v -29.76 -3.68 0
v -29.76 -3.36 0
v -29.12 -3.36 0
v -29.76 -3.68 0
v -30.4 -3.68 0
v -30.4 -3.36 0
v -29.76 -3.36 0
v -29.44 -3.84 0
v -30.08 -3.84 0
v -30.08 -3.52 0
v -29.44 -3.52 0
v -29.12 -4 0
v -29.76 -4 0
v -29.76 -3.68 0
v -29.12 -3.68 0
v -28.8 -4.16 0
v -29.44 -4.16 0
v -29.44 -3.84 0
v -28.8 -3.84 0
v -29.44 -4.16 0
v -30.08 -4.16 0
v -30.08 -3.84 0
v -29.44 -3.84 0
v -29.12 -4.32 0
v -29.76 -4.32 0
v -29.76 -4 0
v -29.12 -4 0
v -28.8 -4.48 0
v -29.44 -4.48 0
v -29.44 -4.16 0
v -28.8 -4.16 0
v -29.44 -4.48 0
v -30.08 -4.48 0
v -30.08 -4.16 0
v -29.44 -4.16 0
v -29.12 -4.64 0
v -29.76 -4.64 0
v -29.76 -4.32 0
v -29.12 -4.32 0
v -28.8 -4.8 0
v -29.44 -4.8 0
v -29.44 -4.48 0
v -28.8 -4.48 0
v -28.48 -4.96 0
v -29.12 -4.96 0
v -29.12 -4.64 0
v -28.48 -4.64 0
v -29.12 -4.96 0
v -29.76 -4.96 0
v -29.76 -4.64 0
v -29.12 -4.64 0
v -28.16 -5.12 0
v -28.8 -5.12 0
v -28.8 -4.8 0
v -28.16 -4.8 0
v -28.8 -5.12 0
v -29.44 -5.12 0
v -29.44 -4.8 0
v -28.8 -4.8 0
v -28.48 -5.28 0
v -29.12 -5.28 0
v -29.12 -4.96 0
v -28.48 -4.96 0
v -29.12 -5.28 0
v -29.76 -5.28 0
v -29.76 -4.96 0
v -29.12 -4.96 0
v -28.16 -5.44 0
v -28.8 -5.44 0
v -28.8 -5.12 0
v -28.16 -5.12 0
v -28.8 -5.44 0
v -29.44 -5.44 0
v -29.44 -5.12 0
v -28.8 -5.12 0
v -28.48 -5.6 0
v -29.12 -5.6 0
v -29.12 -5.28 0
v -28.48 -5.28 0
v -28.16 -5.76 0
v -28.8 -5.76 0
v -28.8 -5.44 0
v -28.16 -5.44 0
v -28.8 -5.76 0
v -29.44 -5.76 0
v -29.44 -5.44 0
v -28.8 -5.44 0
v -28.48 -5.92 0
v -29.12 -5.92 0
v -29.12 -5.6 0
v -28.48 -5.6 0
v -28.16 -6.08 0
v -28.8 -6.08 0
v -28.8 -5.76 0
v -28.16 -5.76 0
v -28.48 -6.24 0
v -29.12 -6.24 0
v -29.12 -5.92 0
v -28.48 -5.92 0
v -28.16 -6.4 0
v -28.8 -6.4 0
v -28.8 -6.08 0
v -28.16 -6.08 0
v -28.48 -6.56 0
v -29.12 -6.56 0
v -29.12 -6.24 0
v -28.48 -6.24 0
v -28.16 -6.72 0
v -28.8 -6.72 0
v -28.8 -6.4 0
v -28.16 -6.4 0
v -27.84 -6.88 0
v -28.48 -6.88 0
v -28.48 -6.56 0
v -27.84 -6.56 0
v -28.48 -6.88 0
v -29.12 -6.88 0
v -29.12 -6.56 0
v -28.48 -6.56 0
v -28.16 -7.04 0
v -28.8 -7.04 0
v -28.8 -6.72 0
v -28.16 -6.72 0
v -27.84 -7.2 0
v -28.48 -7.2 0
v -28.48 -6.88 0
v -27.84 -6.88 0
v -28.16 -7.36 0
v -28.8 -7.36 0
v -28.8 -7.04 0
v -28.16 -7.04 0
v -27.84 -7.52 0
v -28.48 -7.52 0
v -28.48 -7.2 0
v -27.84 -7.2 0
v -27.52 -7.68 0
v -28.16 -7.68 0
v -28.16 -7.36 0
v -27.52 -7.36 0
v -27.2 -7.84 0
v -27.84 -7.84 0
v -27.84 -7.52 0
v -27.2 -7.52 0
v -27.84 -7.84 0
v -28.48 -7.84 0
v -28.48 -7.52 0
v -27.84 -7.52 0
v -28.48 -7.84 0
v -29.12 -7.84 0
v -29.12 -7.52 0
v -28.48 -7.52 0
v -27.52 -8 0
v -28.16 -8 0
v -28.16 -7.68 0
v -27.52 -7.68 0
v -28.16 -8 0
v -28.8 -8 0
v -28.8 -7.68 0
v -28.16 -7.68 0
v -28.8 -8 0
v -29.44 -8 0
v -29.44 -7.68 0
v -28.8 -7.68 0
v -27.2 -8.16 0
v -27.84 -8.16 0
v -27.84 -7.84 0
v -27.2 -7.84 0
v -27.84 -8.16 0
v -28.48 -8.16 0
v -28.48 -7.84 0
v -27.84 -7.84 0
v -28.48 -8.16 0
v -29.12 -8.16 0
v -29.12 -7.84 0
v -28.48 -7.84 0
v -26.88 -8.32 0
v -27.52 -8.32 0
v -27.52 -8 0
v -26.88 -8 0
v -27.52 -8.32 0
v -28.16 -8.32 0
v -28.16 -8 0
v -27.52 -8 0
v -28.16 -8.32 0
v -28.8 -8.32 0
v -28.8 -8 0
v -28.16 -8 0
v -26.56 -8.48 0
v -27.2 -8.48 0
v -27.2 -8.16 0
v -26.56 -8.16 0
v -27.2 -8.48 0
v -27.84 -8.48 0
v -27.84 -8.16 0
v -27.2 -8.16 0
v -27.84 -8.48 0
v -28.48 -8.48 0
v -28.48 -8.16 0
v -27.84 -8.16 0
v -28.48 -8.48 0
v -29.12 -8.48 0
v -29.12 -8.16 0
v -28.48 -8.16 0
v -26.24 -8.639999 0
v -26.88 -8.639999 0
v -26.88 -8.32 0
v -26.24 -8.32 0
v -26.88 -8.639999 0
v -27.52 -8.639999 0
v -27.52 -8.32 0
v -26.88 -8.32 0
v -27.52 -8.639999 0
v -28.16 -8.639999 0
v -28.16 -8.32 0
v -27.52 -8.32 0
v -28.16 -8.639999 0
v -28.8 -8.639999 0
v -28.8 -8.32 0
v -28.16 -8.32 0
v -26.56 -8.8 0
v -27.2 -8.8 0
v -27.2 -8.48 0
v -26.56 -8.48 0
v -27.2 -8.8 0
v -27.84 -8.8 0
v -27.84 -8.48 0
v -27.2 -8.48 0
v -27.84 -8.8 0
v -28.48 -8.8 0
v -28.48 -8.48 0
v -27.84 -8.48 0
v -25.6 -8.96 0
v -26.24 -8.96 0
v -26.24 -8.639999 0
v -25.6 -8.639999 0
v -26.24 -8.96 0
v -26.88 -8.96 0
v -26.88 -8.639999 0
v -26.24 -8.639999 0
v -26.88 -8.96 0
v -27.52 -8.96 0
v -27.52 -8.639999 0
v -26.88 -8.639999 0
v -27.52 -8.96 0
v -28.16 -8.96 0
v -28.16 -8.639999 0
v -27.52 -8.639999 0
v -28.16 -8.96 0
v -28.8 -8.96 0
v -28.8 -8.639999 0
v -28.16 -8.639999 0
v -25.92 -9.12 0
v -26.56 -9.12 0
v -26.56 -8.8 0
v -25.92 -8.8 0
v -26.56 -9.12 0
v -27.2 -9.12 0
v -27.2 -8.8 0
v -26.56 -8.8 0
v -27.2 -9.12 0
v -27.84 -9.12 0
v -27.84 -8.8 0
v -27.2 -8.8 0
v -27.84 -9.12 0
v -28.48 -9.12 0
v -28.48 -8.8 0
v -27.84 -8.8 0
v -25.6 -9.28 0
v -26.24 -9.28 0
v -26.24 -8.96 0
v -25.6 -8.96 0
v -26.24 -9.28 0
v -26.88 -9.28 0
v -26.88 -8.96 0
v -26.24 -8.96 0
v -26.88 -9.28 0
v -27.52 -9.28 0
v -27.52 -8.96 0
v -26.88 -8.96 0
v -27.52 -9.28 0
v -28.16 -9.28 0
v -28.16 -8.96 0
v -27.52 -8.96 0
v -25.92 -9.44 0
v -26.56 -9.44 0
v -26.56 -9.12 0
v -25.92 -9.12 0
v -26.56 -9.44 0
v -27.2 -9.44 0
v -27.2 -9.12 0
v -26.56 -9.12 0
v -27.2 -9.44 0
v -27.84 -9.44 0
v -27.84 -9.12 0
v -27.2 -9.12 0
v -27.84 -9.44 0
v -28.48 -9.44 0
v -28.48 -9.12 0
v -27.84 -9.12 0
v -25.6 -9.599999 0
v -26.24 -9.599999 0
v -26.24 -9.28 0
v -25.6 -9.28 0
v -26.24 -9.599999 0
v -26.88 -9.599999 0
v -26.88 -9.28 0
v -26.24 -9.28 0
v -26.88 -9.599999 0
v -27.52 -9.599999 0
v -27.52 -9.28 0
v -26.88 -9.28 0
v -27.52 -9.599999 0
v -28.16 -9.599999 0
v -28.16 -9.28 0
v -27.52 -9.28 0
v -25.92 -9.76 0
v -26.56 -9.76 0
v -26.56 -9.44 0
v -25.92 -9.44 0
v -26.56 -9.76 0
v -27.2 -9.76 0
v -27.2 -9.44 0
v -26.56 -9.44 0
v -27.2 -9.76 0
v -27.84 -9.76 0
v -27.84 -9.44 0
v -27.2 -9.44 0
v -24.96 -9.92 0
v -25.6 -9.92 0
v -25.6 -9.599999 0
v -24.96 -9.599999 0
v -25.6 -9.92 0
v -26.24 -9.92 0
v -26.24 -9.599999 0
v -25.6 -9.599999 0
v -26.24 -9.92 0
v -26.88 -9.92 0
v -26.88 -9.599999 0
v -26.24 -9.599999 0
v -26.88 -9.92 0
v -27.52 -9.92 0
v -27.52 -9.599999 0
v -26.88 -9.599999 0
v -25.28 -10.08 0
v -25.92 -10.08 0
v -25.92 -9.76 0
v -25.28 -9.76 0
v -25.92 -10.08 0
v -26.56 -10.08 0
v -26.56 -9.76 0
v -25.92 -9.76 0
v -26.56 -10.08 0
v -27.2 -10.08 0
v -27.2 -9.76 0
v -26.56 -9.76 0
v -27.2 -10.08 0
v -27.84 -10.08 0
v -27.84 -9.76 0
v -27.2 -9.76 0
v -24.96 -10.24 0
v -25.6 -10.24 0
v -25.6 -9.92 0
v -24.96 -9.92 0
v -25.6 -10.24 0
v -26.24 -10.24 0
v -26.24 -9.92 0
v -25.6 -9.92 0
v -26.24 -10.24 0
v -26.88 -10.24 0
v -26.88 -9.92 0
v -26.24 -9.92 0
v -26.88 -10.24 0
v -27.52 -10.24 0
v -27.52 -9.92 0
v -26.88 -9.92 0
v -25.28 -10.4 0
v -25.92 -10.4 0
v -25.92 -10.08 0
v -25.28 -10.08 0
v -25.92 -10.4 0
v -26.56 -10.4 0
v -26.56 -10.08 0
v -25.92 -10.08 0
v -26.56 -10.4 0
v -27.2 -10.4 0
v -27.2 -10.08 0
v -26.56 -10.08 0
v -24.96 -10.56 0
v -25.6 -10.56 0
v -25.6 -10.24 0
v -24.96 -10.24 0
v -25.6 -10.56 0
v -26.24 -10.56 0
v -26.24 -10.24 0
v -25.6 -10.24 0
v -26.24 -10.56 0
v -26.88 -10.56 0
v -26.88 -10.24 0
v -26.24 -10.24 0
v -25.28 -10.72 0
v -25.92 -10.72 0
v -25.92 -10.4 0
v -25.28 -10.4 0
v -25.92 -10.72 0
v -26.56 -10.72 0
v -26.56 -10.4 0
v -25.92 -10.4 0
v -24.96 -10.88 0
v -25.6 -10.88 0
v -25.6 -10.56 0
v -24.96 -10.56 0
v -25.6 -10.88 0
v -26.24 -10.88 0
v -26.24 -10.56 0
v -25.6 -10.56 0
v -25.28 -11.04 0
v -25.92 -11.04 0
v -25.92 -10.72 0
v -25.28 -10.72 0
v -24 -11.36 0
v -24.64 -11.36 0
v -24.64 -11.04 0
v -24 -11.04 0
v -24.32 -11.52 0
v -24.96 -11.52 0
v -24.96 -11.2 0
v -24.32 -11.2 0
v -24.64 -11.68 0
v -25.28 -11.68 0
v -25.28 -11.36 0
v -24.64 -11.36 0
v -24.32 -11.84 0
v -24.96 -11.84 0
v -24.96 -11.52 0
v -24.32 -11.52 0
v -24.64 -12 0
v -25.28 -12 0
v -25.28 -11.68 0
v -24.64 -11.68 0
v -24.32 -12.48 0
v -24.96 -12.48 0
v -24.96 -12.16 0
v -24.32 -12.16 0
v -24 -12.64 0
v -24.64 -12.64 0
v -24.64 -12.32 0
v -24 -12.32 0
v -21.76 -15.36 0
v -22.4 -15.36 0
v -22.4 -15.04 0
v -21.76 -15.04 0
v -22.4 -15.36 0
v -23.04 -15.36 0
v -23.04 -15.04 0
v -22.4 -15.04 0
v -21.44 -15.52 0
v -22.08 -15.52 0
v -22.08 -15.2 0
v -21.44 -15.2 0
v -22.08 -15.52 0
v -22.72 -15.52 0
v -22.72 -15.2 0
v -22.08 -15.2 0
v -22.72 -15.52 0
v -23.36 -15.52 0
v -23.36 -15.2 0
v -22.72 -15.2 0
v -22.4 -15.68 0
v -23.04 -15.68 0
v -23.04 -15.36 0
v -22.4 -15.36 0

# Texture cooridinates (Count = 38)
vt 0.125 0.5238096
vt 0.1875 0.5238096
vt 0.1875 0.547619
vt 0.125 0.547619
vt 0 0.5238096
vt 0.0625 0.5238096
vt 0.0625 0.547619
vt 0 0.547619
vt 0.4375 0.5238096
vt 0.5 0.5238096
vt 0.5 0.547619
vt 0.4375 0.547619
vt 0.25 0.5238096
vt 0.3125 0.5238096
vt 0.3125 0.547619
vt 0.25 0.547619
vt 0.375 0.5238096
vt 0.375 0.547619
vt 0.5625 0.5238096
vt 0.5625 0.547619
vt 0.625 0.5238096
vt 0.625 0.547619
vt 0.75 0.5238096
vt 0.8125 0.5238096
vt 0.8125 0.547619
vt 0.75 0.547619
vt 0.6875 0.5238096
vt 0.6875 0.547619
vt 0.4375 0.5
vt 0.5 0.5
vt 0.8125 0.6190476
vt 0.875 0.6190476
vt 0.875 0.6428571
vt 0.8125 0.6428571
vt 0.25 0.6428571
vt 0.3125 0.6428571
vt 0.3125 0.6666666
vt 0.25 0.6666666

# Normal
vn 0 0 -1

# Mesh description
g raskrizje_mesh_0001

# Faces
f 1/1/1 2/2/1 3/3/1 4/4/1
f 5/5/1 6/6/1 7/7/1 8/8/1
f 9/9/1 10/10/1 11/11/1 12/12/1
f 13/6/1 14/1/1 15/4/1 16/7/1
f 17/13/1 18/14/1 19/15/1 20/16/1
f 21/17/1 22/9/1 23/12/1 24/18/1
f 25/6/1 26/1/1 27/4/1 28/7/1
f 29/10/1 30/19/1 31/20/1 32/11/1
f 33/17/1 34/9/1 35/12/1 36/18/1
f 37/6/1 38/1/1 39/4/1 40/7/1
f 41/17/1 42/9/1 43/12/1 44/18/1
f 45/1/1 46/2/1 47/3/1 48/4/1
f 49/14/1 50/17/1 51/18/1 52/15/1
f 53/9/1 54/10/1 55/11/1 56/12/1
f 57/6/1 58/1/1 59/4/1 60/7/1
f 61/9/1 62/10/1 63/11/1 64/12/1
f 65/6/1 66/1/1 67/4/1 68/7/1
f 69/9/1 70/10/1 71/11/1 72/12/1
f 73/5/1 74/6/1 75/7/1 76/8/1
f 77/14/1 78/17/1 79/18/1 80/15/1
f 81/5/1 82/6/1 83/7/1 84/8/1
f 85/2/1 86/13/1 87/16/1 88/3/1
f 89/14/1 90/17/1 91/18/1 92/15/1
f 93/13/1 94/14/1 95/15/1 96/16/1
f 97/2/1 98/13/1 99/16/1 100/3/1
f 101/9/1 102/10/1 103/11/1 104/12/1
f 105/6/1 106/1/1 107/4/1 108/7/1
f 109/9/1 110/10/1 111/11/1 112/12/1
f 113/13/1 114/14/1 115/15/1 116/16/1
f 117/10/1 118/19/1 119/20/1 120/11/1
f 121/17/1 122/9/1 123/12/1 124/18/1
f 125/10/1 126/19/1 127/20/1 128/11/1
f 129/14/1 130/17/1 131/18/1 132/15/1
f 133/5/1 134/6/1 135/7/1 136/8/1
f 137/14/1 138/17/1 139/18/1 140/15/1
f 141/1/1 142/2/1 143/3/1 144/4/1
f 145/9/1 146/10/1 147/11/1 148/12/1
f 149/6/1 150/1/1 151/4/1 152/7/1
f 153/10/1 154/19/1 155/20/1 156/11/1
f 157/13/1 158/14/1 159/15/1 160/16/1
f 161/1/1 162/2/1 163/3/1 164/4/1
f 165/13/1 166/14/1 167/15/1 168/16/1
f 169/10/1 170/19/1 171/20/1 172/11/1
f 173/10/1 174/19/1 175/20/1 176/11/1
f 177/6/1 178/1/1 179/4/1 180/7/1
f 181/10/1 182/19/1 183/20/1 184/11/1
f 185/5/1 186/6/1 187/7/1 188/8/1
f 189/6/1 190/1/1 191/4/1 192/7/1
f 193/2/1 194/13/1 195/16/1 196/3/1
f 197/2/1 198/13/1 199/16/1 200/3/1
f 201/10/1 202/19/1 203/20/1 204/11/1
f 205/1/1 206/2/1 207/3/1 208/4/1
f 209/10/1 210/19/1 211/20/1 212/11/1
f 213/14/1 214/17/1 215/18/1 216/15/1
f 217/14/1 218/17/1 219/18/1 220/15/1
f 221/10/1 222/19/1 223/20/1 224/11/1
f 225/6/1 226/1/1 227/4/1 228/7/1
f 229/1/1 230/2/1 231/3/1 232/4/1
f 233/17/1 234/9/1 235/12/1 236/18/1
f 237/6/1 238/1/1 239/4/1 240/7/1
f 241/1/1 242/2/1 243/3/1 244/4/1
f 245/13/1 246/14/1 247/15/1 248/16/1
f 249/2/1 250/13/1 251/16/1 252/3/1
f 253/2/1 254/13/1 255/16/1 256/3/1
f 257/2/1 258/13/1 259/16/1 260/3/1
f 261/19/1 262/21/1 263/22/1 264/20/1
f 265/23/1 266/24/1 267/25/1 268/26/1
f 269/17/1 270/9/1 271/12/1 272/18/1
f 273/10/1 274/19/1 275/20/1 276/11/1
f 277/23/1 278/24/1 279/25/1 280/26/1
f 281/27/1 282/23/1 283/26/1 284/28/1
f 285/21/1 286/27/1 287/28/1 288/22/1
f 289/5/1 290/6/1 291/7/1 292/8/1
f 293/14/1 294/17/1 295/18/1 296/15/1
f 297/2/1 298/13/1 299/16/1 300/3/1
f 301/2/1 302/13/1 303/16/1 304/3/1
f 305/2/1 306/13/1 307/16/1 308/3/1
f 309/19/1 310/21/1 311/22/1 312/20/1
f 313/1/1 314/2/1 315/3/1 316/4/1
f 317/27/1 318/23/1 319/26/1 320/28/1
f 321/1/1 322/2/1 323/3/1 324/4/1
f 325/19/1 326/21/1 327/22/1 328/20/1
f 329/23/1 330/24/1 331/25/1 332/26/1
f 333/10/1 334/19/1 335/20/1 336/11/1
f 337/13/1 338/14/1 339/15/1 340/16/1
f 341/13/1 342/14/1 343/15/1 344/16/1
f 345/10/1 346/19/1 347/20/1 348/11/1
f 349/14/1 350/17/1 351/18/1 352/15/1
f 353/17/1 354/9/1 355/12/1 356/18/1
f 357/10/1 358/19/1 359/20/1 360/11/1
f 361/23/1 362/24/1 363/25/1 364/26/1
f 365/13/1 366/14/1 367/15/1 368/16/1
f 369/2/1 370/13/1 371/16/1 372/3/1
f 373/14/1 374/17/1 375/18/1 376/15/1
f 377/14/1 378/17/1 379/18/1 380/15/1
f 381/21/1 382/27/1 383/28/1 384/22/1
f 385/17/1 386/9/1 387/12/1 388/18/1
f 389/19/1 390/21/1 391/22/1 392/20/1
f 393/5/1 394/6/1 395/7/1 396/8/1
f 397/6/1 398/1/1 399/4/1 400/7/1
f 401/17/1 402/9/1 403/12/1 404/18/1
f 405/5/1 406/6/1 407/7/1 408/8/1
f 409/2/1 410/13/1 411/16/1 412/3/1
f 413/10/1 414/19/1 415/20/1 416/11/1
f 417/27/1 418/23/1 419/26/1 420/28/1
f 421/10/1 422/19/1 423/20/1 424/11/1
f 425/23/1 426/24/1 427/25/1 428/26/1
f 429/6/1 430/1/1 431/4/1 432/7/1
f 433/27/1 434/23/1 435/26/1 436/28/1
f 437/6/1 438/1/1 439/4/1 440/7/1
f 441/5/1 442/6/1 443/7/1 444/8/1
f 445/6/1 446/1/1 447/4/1 448/7/1
f 449/23/1 450/24/1 451/25/1 452/26/1
f 453/13/1 454/14/1 455/15/1 456/16/1
f 457/2/1 458/13/1 459/16/1 460/3/1
f 461/17/1 462/9/1 463/12/1 464/18/1
f 465/2/1 466/13/1 467/16/1 468/3/1
f 469/10/1 470/19/1 471/20/1 472/11/1
f 473/23/1 474/24/1 475/25/1 476/26/1
f 477/23/1 478/24/1 479/25/1 480/26/1
f 481/2/1 482/13/1 483/16/1 484/3/1
f 485/6/1 486/1/1 487/4/1 488/7/1
f 489/9/1 490/10/1 491/11/1 492/12/1
f 493/6/1 494/1/1 495/4/1 496/7/1
f 497/14/1 498/17/1 499/18/1 500/15/1
f 501/27/1 502/23/1 503/26/1 504/28/1
f 505/9/1 506/10/1 507/11/1 508/12/1
f 509/13/1 510/14/1 511/15/1 512/16/1
f 513/9/1 514/10/1 515/11/1 516/12/1
f 517/27/1 518/23/1 519/26/1 520/28/1
f 521/17/1 522/9/1 523/12/1 524/18/1
f 525/14/1 526/17/1 527/18/1 528/15/1
f 529/9/1 530/10/1 531/11/1 532/12/1
f 533/9/1 534/10/1 535/11/1 536/12/1
f 537/9/1 538/10/1 539/11/1 540/12/1
f 541/9/1 542/10/1 543/11/1 544/12/1
f 545/9/1 546/10/1 547/11/1 548/12/1
f 549/29/1 550/30/1 551/10/1 552/9/1
f 553/9/1 554/10/1 555/11/1 556/12/1
f 557/14/1 558/17/1 559/18/1 560/15/1
f 561/31/1 562/32/1 563/33/1 564/34/1
f 565/14/1 566/17/1 567/18/1 568/15/1
f 569/35/1 570/36/1 571/37/1 572/38/1
f 573/35/1 574/36/1 575/37/1 576/38/1
f 577/35/1 578/36/1 579/37/1 580/38/1

