# Tiled2Unity generated file. Do not modify by hand.
# Wavefront file for 'raskrizje_mesh_0007.obj'

# Vertices (Count = 268)
v -30.72 -0.64 0
v -31.36 -0.64 0
v -31.36 -0.32 0
v -30.72 -0.32 0
v -22.08 -11.36 0
v -22.72 -11.36 0
v -22.72 -11.04 0
v -22.08 -11.04 0
v -21.12 -11.52 0
v -21.76 -11.52 0
v -21.76 -11.2 0
v -21.12 -11.2 0
v -19.2 -12.16 0
v -19.84 -12.16 0
v -19.84 -11.84 0
v -19.2 -11.84 0
v -0.32 -12.64 0
v -0.96 -12.64 0
v -0.96 -12.32 0
v -0.32 -12.32 0
v -16.32 -12.64 0
v -16.96 -12.64 0
v -16.96 -12.32 0
v -16.32 -12.32 0
v -17.6 -12.64 0
v -18.24 -12.64 0
v -18.24 -12.32 0
v -17.6 -12.32 0
v -0.64 -12.8 0
v -1.28 -12.8 0
v -1.28 -12.48 0
v -0.64 -12.48 0
v -16.64 -12.8 0
v -17.28 -12.8 0
v -17.28 -12.48 0
v -16.64 -12.48 0
v -0.96 -12.96 0
v -1.6 -12.96 0
v -1.6 -12.64 0
v -0.96 -12.64 0
v -1.6 -12.96 0
v -2.24 -12.96 0
v -2.24 -12.64 0
v -1.6 -12.64 0
v -2.24 -12.96 0
v -2.88 -12.96 0
v -2.88 -12.64 0
v -2.24 -12.64 0
v -2.88 -12.96 0
v -3.52 -12.96 0
v -3.52 -12.64 0
v -2.88 -12.64 0
v -15.04 -12.96 0
v -15.68 -12.96 0
v -15.68 -12.64 0
v -15.04 -12.64 0
v -3.2 -13.12 0
v -3.84 -13.12 0
v -3.84 -12.8 0
v -3.2 -12.8 0
v -3.84 -13.12 0
v -4.48 -13.12 0
v -4.48 -12.8 0
v -3.84 -12.8 0
v -4.48 -13.12 0
v -5.12 -13.12 0
v -5.12 -12.8 0
v -4.48 -12.8 0
v -5.12 -13.12 0
v -5.76 -13.12 0
v -5.76 -12.8 0
v -5.12 -12.8 0
v -5.76 -13.12 0
v -6.4 -13.12 0
v -6.4 -12.8 0
v -5.76 -12.8 0
v -6.4 -13.12 0
v -7.04 -13.12 0
v -7.04 -12.8 0
v -6.4 -12.8 0
v -7.04 -13.12 0
v -7.68 -13.12 0
v -7.68 -12.8 0
v -7.04 -12.8 0
v -7.68 -13.12 0
v -8.32 -13.12 0
v -8.32 -12.8 0
v -7.68 -12.8 0
v -8.32 -13.12 0
v -8.96 -13.12 0
v -8.96 -12.8 0
v -8.32 -12.8 0
v -8.96 -13.12 0
v -9.599999 -13.12 0
v -9.599999 -12.8 0
v -8.96 -12.8 0
v -9.599999 -13.12 0
v -10.24 -13.12 0
v -10.24 -12.8 0
v -9.599999 -12.8 0
v -10.24 -13.12 0
v -10.88 -13.12 0
v -10.88 -12.8 0
v -10.24 -12.8 0
v -10.88 -13.12 0
v -11.52 -13.12 0
v -11.52 -12.8 0
v -10.88 -12.8 0
v -11.52 -13.12 0
v -12.16 -13.12 0
v -12.16 -12.8 0
v -11.52 -12.8 0
v -13.44 -13.12 0
v -14.08 -13.12 0
v -14.08 -12.8 0
v -13.44 -12.8 0
v -14.08 -13.12 0
v -14.72 -13.12 0
v -14.72 -12.8 0
v -14.08 -12.8 0
v -11.84 -13.28 0
v -12.48 -13.28 0
v -12.48 -12.96 0
v -11.84 -12.96 0
v -12.48 -13.28 0
v -13.12 -13.28 0
v -13.12 -12.96 0
v -12.48 -12.96 0
v -19.2 -17.92 0
v -19.84 -17.92 0
v -19.84 -17.6 0
v -19.2 -17.6 0
v -18.88 -18.08 0
v -19.52 -18.08 0
v -19.52 -17.76 0
v -18.88 -17.76 0
v -17.92 -18.24 0
v -18.56 -18.24 0
v -18.56 -17.92 0
v -17.92 -17.92 0
v -18.56 -18.24 0
v -19.2 -18.24 0
v -19.2 -17.92 0
v -18.56 -17.92 0
v -16.96 -18.4 0
v -17.6 -18.4 0
v -17.6 -18.08 0
v -16.96 -18.08 0
v -17.6 -18.4 0
v -18.24 -18.4 0
v -18.24 -18.08 0
v -17.6 -18.08 0
v -18.24 -18.4 0
v -18.88 -18.4 0
v -18.88 -18.08 0
v -18.24 -18.08 0
v -16 -18.56 0
v -16.64 -18.56 0
v -16.64 -18.24 0
v -16 -18.24 0
v -16.64 -18.56 0
v -17.28 -18.56 0
v -17.28 -18.24 0
v -16.64 -18.24 0
v -17.28 -18.56 0
v -17.92 -18.56 0
v -17.92 -18.24 0
v -17.28 -18.24 0
v -0.32 -18.72 0
v -0.96 -18.72 0
v -0.96 -18.4 0
v -0.32 -18.4 0
v -0.96 -18.72 0
v -1.6 -18.72 0
v -1.6 -18.4 0
v -0.96 -18.4 0
v -12.48 -18.72 0
v -13.12 -18.72 0
v -13.12 -18.4 0
v -12.48 -18.4 0
v -13.12 -18.72 0
v -13.76 -18.72 0
v -13.76 -18.4 0
v -13.12 -18.4 0
v -13.76 -18.72 0
v -14.4 -18.72 0
v -14.4 -18.4 0
v -13.76 -18.4 0
v -14.4 -18.72 0
v -15.04 -18.72 0
v -15.04 -18.4 0
v -14.4 -18.4 0
v -15.04 -18.72 0
v -15.68 -18.72 0
v -15.68 -18.4 0
v -15.04 -18.4 0
v -15.68 -18.72 0
v -16.32 -18.72 0
v -16.32 -18.4 0
v -15.68 -18.4 0
v -16.32 -18.72 0
v -16.96 -18.72 0
v -16.96 -18.4 0
v -16.32 -18.4 0
v -0.64 -18.88 0
v -1.28 -18.88 0
v -1.28 -18.56 0
v -0.64 -18.56 0
v -10.88 -18.88 0
v -11.52 -18.88 0
v -11.52 -18.56 0
v -10.88 -18.56 0
v -11.52 -18.88 0
v -12.16 -18.88 0
v -12.16 -18.56 0
v -11.52 -18.56 0
v -12.16 -18.88 0
v -12.8 -18.88 0
v -12.8 -18.56 0
v -12.16 -18.56 0
v -12.8 -18.88 0
v -13.44 -18.88 0
v -13.44 -18.56 0
v -12.8 -18.56 0
v -13.44 -18.88 0
v -14.08 -18.88 0
v -14.08 -18.56 0
v -13.44 -18.56 0
v -15.36 -18.88 0
v -16 -18.88 0
v -16 -18.56 0
v -15.36 -18.56 0
v -8.639999 -19.04 0
v -9.28 -19.04 0
v -9.28 -18.72 0
v -8.639999 -18.72 0
v -9.28 -19.04 0
v -9.92 -19.04 0
v -9.92 -18.72 0
v -9.28 -18.72 0
v -9.92 -19.04 0
v -10.56 -19.04 0
v -10.56 -18.72 0
v -9.92 -18.72 0
v -10.56 -19.04 0
v -11.2 -19.04 0
v -11.2 -18.72 0
v -10.56 -18.72 0
v -11.2 -19.04 0
v -11.84 -19.04 0
v -11.84 -18.72 0
v -11.2 -18.72 0
v -11.84 -19.04 0
v -12.48 -19.04 0
v -12.48 -18.72 0
v -11.84 -18.72 0
v -8.96 -19.2 0
v -9.599999 -19.2 0
v -9.599999 -18.88 0
v -8.96 -18.88 0
v -9.599999 -19.2 0
v -10.24 -19.2 0
v -10.24 -18.88 0
v -9.599999 -18.88 0
v -10.24 -19.2 0
v -10.88 -19.2 0
v -10.88 -18.88 0
v -10.24 -18.88 0

# Texture cooridinates (Count = 32)
vt 0.5 0.5
vt 0.5625 0.5
vt 0.5625 0.5238096
vt 0.5 0.5238096
vt 0.4375 0.9285714
vt 0.5 0.9285714
vt 0.5 0.952381
vt 0.4375 0.952381
vt 0.4375 0.6190476
vt 0.5 0.6190476
vt 0.5 0.6428571
vt 0.4375 0.6428571
vt 0.8125 0.9761904
vt 0.875 0.9761904
vt 0.875 1
vt 0.8125 1
vt 0.375 0.9761904
vt 0.4375 0.9761904
vt 0.4375 1
vt 0.375 1
vt 0.75 0.9761904
vt 0.75 1
vt 0.5625 0.9761904
vt 0.625 0.9761904
vt 0.625 1
vt 0.5625 1
vt 0.6875 0.9761904
vt 0.6875 1
vt 0.5 0.9761904
vt 0.5 1
vt 0.9375 0.9761904
vt 0.9375 1

# Normal
vn 0 0 -1

# Mesh description
g raskrizje_mesh_0007

# Faces
f 1/1/1 2/2/1 3/3/1 4/4/1
f 5/5/1 6/6/1 7/7/1 8/8/1
f 9/5/1 10/6/1 11/7/1 12/8/1
f 13/5/1 14/6/1 15/7/1 16/8/1
f 17/9/1 18/10/1 19/11/1 20/12/1
f 21/5/1 22/6/1 23/7/1 24/8/1
f 25/5/1 26/6/1 27/7/1 28/8/1
f 29/9/1 30/10/1 31/11/1 32/12/1
f 33/5/1 34/6/1 35/7/1 36/8/1
f 37/9/1 38/10/1 39/11/1 40/12/1
f 41/9/1 42/10/1 43/11/1 44/12/1
f 45/9/1 46/10/1 47/11/1 48/12/1
f 49/9/1 50/10/1 51/11/1 52/12/1
f 53/5/1 54/6/1 55/7/1 56/8/1
f 57/9/1 58/10/1 59/11/1 60/12/1
f 61/9/1 62/10/1 63/11/1 64/12/1
f 65/9/1 66/10/1 67/11/1 68/12/1
f 69/9/1 70/10/1 71/11/1 72/12/1
f 73/9/1 74/10/1 75/11/1 76/12/1
f 77/9/1 78/10/1 79/11/1 80/12/1
f 81/9/1 82/10/1 83/11/1 84/12/1
f 85/9/1 86/10/1 87/11/1 88/12/1
f 89/9/1 90/10/1 91/11/1 92/12/1
f 93/9/1 94/10/1 95/11/1 96/12/1
f 97/9/1 98/10/1 99/11/1 100/12/1
f 101/9/1 102/10/1 103/11/1 104/12/1
f 105/9/1 106/10/1 107/11/1 108/12/1
f 109/9/1 110/10/1 111/11/1 112/12/1
f 113/5/1 114/6/1 115/7/1 116/8/1
f 117/5/1 118/6/1 119/7/1 120/8/1
f 121/5/1 122/6/1 123/7/1 124/8/1
f 125/5/1 126/6/1 127/7/1 128/8/1
f 129/13/1 130/14/1 131/15/1 132/16/1
f 133/13/1 134/14/1 135/15/1 136/16/1
f 137/17/1 138/18/1 139/19/1 140/20/1
f 141/17/1 142/18/1 143/19/1 144/20/1
f 145/21/1 146/13/1 147/16/1 148/22/1
f 149/23/1 150/24/1 151/25/1 152/26/1
f 153/24/1 154/27/1 155/28/1 156/25/1
f 157/27/1 158/21/1 159/22/1 160/28/1
f 161/29/1 162/23/1 163/26/1 164/30/1
f 165/27/1 166/21/1 167/22/1 168/28/1
f 169/18/1 170/29/1 171/30/1 172/19/1
f 173/14/1 174/31/1 175/32/1 176/15/1
f 177/17/1 178/18/1 179/19/1 180/20/1
f 181/18/1 182/29/1 183/30/1 184/19/1
f 185/21/1 186/13/1 187/16/1 188/22/1
f 189/14/1 190/31/1 191/32/1 192/15/1
f 193/13/1 194/14/1 195/15/1 196/16/1
f 197/13/1 198/14/1 199/15/1 200/16/1
f 201/21/1 202/13/1 203/16/1 204/22/1
f 205/27/1 206/21/1 207/22/1 208/28/1
f 209/24/1 210/27/1 211/28/1 212/25/1
f 213/21/1 214/13/1 215/16/1 216/22/1
f 217/17/1 218/18/1 219/19/1 220/20/1
f 221/21/1 222/13/1 223/16/1 224/22/1
f 225/29/1 226/23/1 227/26/1 228/30/1
f 229/24/1 230/27/1 231/28/1 232/25/1
f 233/21/1 234/13/1 235/16/1 236/22/1
f 237/21/1 238/13/1 239/16/1 240/22/1
f 241/24/1 242/27/1 243/28/1 244/25/1
f 245/21/1 246/13/1 247/16/1 248/22/1
f 249/23/1 250/24/1 251/25/1 252/26/1
f 253/21/1 254/13/1 255/16/1 256/22/1
f 257/27/1 258/21/1 259/22/1 260/28/1
f 261/23/1 262/24/1 263/25/1 264/26/1
f 265/27/1 266/21/1 267/22/1 268/28/1

