# Tiled2Unity generated file. Do not modify by hand.
# Wavefront file for 'raskrizje_mesh_0002.obj'

# Vertices (Count = 208)
v -30.08 -0.96 0
v -30.72 -0.96 0
v -30.72 -0.64 0
v -30.08 -0.64 0
v -30.08 -1.28 0
v -30.72 -1.28 0
v -30.72 -0.96 0
v -30.08 -0.96 0
v -30.08 -1.6 0
v -30.72 -1.6 0
v -30.72 -1.28 0
v -30.08 -1.28 0
v -30.08 -1.92 0
v -30.72 -1.92 0
v -30.72 -1.6 0
v -30.08 -1.6 0
v -29.76 -2.4 0
v -30.4 -2.4 0
v -30.4 -2.08 0
v -29.76 -2.08 0
v -29.76 -2.72 0
v -30.4 -2.72 0
v -30.4 -2.4 0
v -29.76 -2.4 0
v -29.76 -3.04 0
v -30.4 -3.04 0
v -30.4 -2.72 0
v -29.76 -2.72 0
v -29.76 -3.36 0
v -30.4 -3.36 0
v -30.4 -3.04 0
v -29.76 -3.04 0
v -29.76 -3.68 0
v -30.4 -3.68 0
v -30.4 -3.36 0
v -29.76 -3.36 0
v -29.76 -4 0
v -30.4 -4 0
v -30.4 -3.68 0
v -29.76 -3.68 0
v -29.44 -4.48 0
v -30.08 -4.48 0
v -30.08 -4.16 0
v -29.44 -4.16 0
v -29.12 -4.64 0
v -29.76 -4.64 0
v -29.76 -4.32 0
v -29.12 -4.32 0
v -29.12 -4.96 0
v -29.76 -4.96 0
v -29.76 -4.64 0
v -29.12 -4.64 0
v -29.12 -5.28 0
v -29.76 -5.28 0
v -29.76 -4.96 0
v -29.12 -4.96 0
v -29.12 -5.6 0
v -29.76 -5.6 0
v -29.76 -5.28 0
v -29.12 -5.28 0
v -29.12 -5.92 0
v -29.76 -5.92 0
v -29.76 -5.6 0
v -29.12 -5.6 0
v -28.8 -6.08 0
v -29.44 -6.08 0
v -29.44 -5.76 0
v -28.8 -5.76 0
v -28.8 -6.4 0
v -29.44 -6.4 0
v -29.44 -6.08 0
v -28.8 -6.08 0
v -28.48 -6.88 0
v -29.12 -6.88 0
v -29.12 -6.56 0
v -28.48 -6.56 0
v -28.48 -7.2 0
v -29.12 -7.2 0
v -29.12 -6.88 0
v -28.48 -6.88 0
v -28.16 -7.68 0
v -28.8 -7.68 0
v -28.8 -7.36 0
v -28.16 -7.36 0
v -28.16 -8 0
v -28.8 -8 0
v -28.8 -7.68 0
v -28.16 -7.68 0
v -28.48 -8.16 0
v -29.12 -8.16 0
v -29.12 -7.84 0
v -28.48 -7.84 0
v -26.88 -8.96 0
v -27.52 -8.96 0
v -27.52 -8.639999 0
v -26.88 -8.639999 0
v -26.88 -9.28 0
v -27.52 -9.28 0
v -27.52 -8.96 0
v -26.88 -8.96 0
v -26.56 -9.76 0
v -27.2 -9.76 0
v -27.2 -9.44 0
v -26.56 -9.44 0
v -26.24 -9.92 0
v -26.88 -9.92 0
v -26.88 -9.599999 0
v -26.24 -9.599999 0
v -25.92 -10.08 0
v -26.56 -10.08 0
v -26.56 -9.76 0
v -25.92 -9.76 0
v -25.6 -10.24 0
v -26.24 -10.24 0
v -26.24 -9.92 0
v -25.6 -9.92 0
v -25.6 -10.56 0
v -26.24 -10.56 0
v -26.24 -10.24 0
v -25.6 -10.24 0
v -24.64 -11.36 0
v -25.28 -11.36 0
v -25.28 -11.04 0
v -24.64 -11.04 0
v -24.64 -11.68 0
v -25.28 -11.68 0
v -25.28 -11.36 0
v -24.64 -11.36 0
v -24.96 -11.84 0
v -25.6 -11.84 0
v -25.6 -11.52 0
v -24.96 -11.52 0
v -24.32 -12.48 0
v -24.96 -12.48 0
v -24.96 -12.16 0
v -24.32 -12.16 0
v -24.32 -12.8 0
v -24.96 -12.8 0
v -24.96 -12.48 0
v -24.32 -12.48 0
v -23.04 -13.76 0
v -23.68 -13.76 0
v -23.68 -13.44 0
v -23.04 -13.44 0
v -22.72 -13.92 0
v -23.36 -13.92 0
v -23.36 -13.6 0
v -22.72 -13.6 0
v -23.36 -13.92 0
v -24 -13.92 0
v -24 -13.6 0
v -23.36 -13.6 0
v -23.04 -14.08 0
v -23.68 -14.08 0
v -23.68 -13.76 0
v -23.04 -13.76 0
v -23.68 -14.08 0
v -24.32 -14.08 0
v -24.32 -13.76 0
v -23.68 -13.76 0
v -23.36 -14.24 0
v -24 -14.24 0
v -24 -13.92 0
v -23.36 -13.92 0
v -22.72 -14.88 0
v -23.36 -14.88 0
v -23.36 -14.56 0
v -22.72 -14.56 0
v -22.72 -15.2 0
v -23.36 -15.2 0
v -23.36 -14.88 0
v -22.72 -14.88 0
v -21.76 -15.36 0
v -22.4 -15.36 0
v -22.4 -15.04 0
v -21.76 -15.04 0
v -22.4 -15.36 0
v -23.04 -15.36 0
v -23.04 -15.04 0
v -22.4 -15.04 0
v -22.08 -15.52 0
v -22.72 -15.52 0
v -22.72 -15.2 0
v -22.08 -15.2 0
v -21.76 -15.68 0
v -22.4 -15.68 0
v -22.4 -15.36 0
v -21.76 -15.36 0
v -22.08 -15.84 0
v -22.72 -15.84 0
v -22.72 -15.52 0
v -22.08 -15.52 0
v -21.44 -16.16 0
v -22.08 -16.16 0
v -22.08 -15.84 0
v -21.44 -15.84 0
v -21.76 -16.32 0
v -22.4 -16.32 0
v -22.4 -16 0
v -21.76 -16 0
v -21.44 -16.48 0
v -22.08 -16.48 0
v -22.08 -16.16 0
v -21.44 -16.16 0
v -21.12 -16.96 0
v -21.76 -16.96 0
v -21.76 -16.64 0
v -21.12 -16.64 0

# Texture cooridinates (Count = 35)
vt 0.375 0.5
vt 0.4375 0.5
vt 0.4375 0.5238096
vt 0.375 0.5238096
vt 0.375 0.4761904
vt 0.4375 0.4761904
vt 0.5 0.5
vt 0.5625 0.5
vt 0.5625 0.5238096
vt 0.5 0.5238096
vt 0.625 0.5
vt 0.625 0.5238096
vt 0.3125 0.5
vt 0.3125 0.5238096
vt 0.3125 0.4761904
vt 0.75 0.5
vt 0.8125 0.5
vt 0.8125 0.5238096
vt 0.75 0.5238096
vt 0.75 0.4761904
vt 0.8125 0.4761904
vt 0.6875 0.5
vt 0.6875 0.5238096
vt 0.375 0.547619
vt 0.3125 0.547619
vt 0.3125 0.6190476
vt 0.375 0.6190476
vt 0.375 0.6428571
vt 0.3125 0.6428571
vt 0.375 0.6666666
vt 0.4375 0.6666666
vt 0.4375 0.6904762
vt 0.375 0.6904762
vt 0.3125 0.5952381
vt 0.375 0.5952381

# Normal
vn 0 0 -1

# Mesh description
g raskrizje_mesh_0002

# Faces
f 1/1/1 2/2/1 3/3/1 4/4/1
f 5/5/1 6/6/1 7/2/1 8/1/1
f 9/1/1 10/2/1 11/3/1 12/4/1
f 13/5/1 14/6/1 15/2/1 16/1/1
f 17/1/1 18/2/1 19/3/1 20/4/1
f 21/5/1 22/6/1 23/2/1 24/1/1
f 25/1/1 26/2/1 27/3/1 28/4/1
f 29/5/1 30/6/1 31/2/1 32/1/1
f 33/1/1 34/2/1 35/3/1 36/4/1
f 37/5/1 38/6/1 39/2/1 40/1/1
f 41/7/1 42/8/1 43/9/1 44/10/1
f 45/1/1 46/2/1 47/3/1 48/4/1
f 49/5/1 50/6/1 51/2/1 52/1/1
f 53/1/1 54/2/1 55/3/1 56/4/1
f 57/5/1 58/6/1 59/2/1 60/1/1
f 61/8/1 62/11/1 63/12/1 64/9/1
f 65/13/1 66/1/1 67/4/1 68/14/1
f 69/15/1 70/5/1 71/1/1 72/13/1
f 73/13/1 74/1/1 75/4/1 76/14/1
f 77/15/1 78/5/1 79/1/1 80/13/1
f 81/13/1 82/1/1 83/4/1 84/14/1
f 85/15/1 86/5/1 87/1/1 88/13/1
f 89/15/1 90/5/1 91/1/1 92/13/1
f 93/16/1 94/17/1 95/18/1 96/19/1
f 97/20/1 98/21/1 99/17/1 100/16/1
f 101/22/1 102/16/1 103/19/1 104/23/1
f 105/22/1 106/16/1 107/19/1 108/23/1
f 109/22/1 110/16/1 111/19/1 112/23/1
f 113/16/1 114/17/1 115/18/1 116/19/1
f 117/20/1 118/21/1 119/17/1 120/16/1
f 121/2/1 122/7/1 123/10/1 124/3/1
f 125/5/1 126/6/1 127/2/1 128/1/1
f 129/5/1 130/6/1 131/2/1 132/1/1
f 133/2/1 134/7/1 135/10/1 136/3/1
f 137/5/1 138/6/1 139/2/1 140/1/1
f 141/14/1 142/4/1 143/24/1 144/25/1
f 145/14/1 146/4/1 147/24/1 148/25/1
f 149/5/1 150/6/1 151/2/1 152/1/1
f 153/14/1 154/4/1 155/24/1 156/25/1
f 157/5/1 158/6/1 159/2/1 160/1/1
f 161/14/1 162/4/1 163/24/1 164/25/1
f 165/7/1 166/8/1 167/9/1 168/10/1
f 169/7/1 170/8/1 171/9/1 172/10/1
f 173/26/1 174/27/1 175/28/1 176/29/1
f 177/7/1 178/8/1 179/9/1 180/10/1
f 181/30/1 182/31/1 183/32/1 184/33/1
f 185/34/1 186/35/1 187/27/1 188/26/1
f 189/34/1 190/35/1 191/27/1 192/26/1
f 193/7/1 194/8/1 195/9/1 196/10/1
f 197/7/1 198/8/1 199/9/1 200/10/1
f 201/7/1 202/8/1 203/9/1 204/10/1
f 205/7/1 206/8/1 207/9/1 208/10/1

