# Tiled2Unity generated file. Do not modify by hand.
# Wavefront file for 'obala_mesh_0007.obj'

# Vertices (Count = 104)
v -10.24 -0.32 0
v -10.88 -0.32 0
v -10.88 0 0
v -10.24 0 0
v -10.88 -0.32 0
v -11.52 -0.32 0
v -11.52 0 0
v -10.88 0 0
v -13.44 -0.32 0
v -14.08 -0.32 0
v -14.08 0 0
v -13.44 0 0
v -14.08 -0.32 0
v -14.72 -0.32 0
v -14.72 0 0
v -14.08 0 0
v -10.56 -0.48 0
v -11.2 -0.48 0
v -11.2 -0.16 0
v -10.56 -0.16 0
v -11.2 -0.48 0
v -11.84 -0.48 0
v -11.84 -0.16 0
v -11.2 -0.16 0
v -10.24 -0.64 0
v -10.88 -0.64 0
v -10.88 -0.32 0
v -10.24 -0.32 0
v -10.88 -0.64 0
v -11.52 -0.64 0
v -11.52 -0.32 0
v -10.88 -0.32 0
v -11.52 -0.64 0
v -12.16 -0.64 0
v -12.16 -0.32 0
v -11.52 -0.32 0
v -13.44 -0.64 0
v -14.08 -0.64 0
v -14.08 -0.32 0
v -13.44 -0.32 0
v -14.08 -0.64 0
v -14.72 -0.64 0
v -14.72 -0.32 0
v -14.08 -0.32 0
v -10.56 -0.8 0
v -11.2 -0.8 0
v -11.2 -0.48 0
v -10.56 -0.48 0
v -11.2 -0.8 0
v -11.84 -0.8 0
v -11.84 -0.48 0
v -11.2 -0.48 0
v -11.84 -0.8 0
v -12.48 -0.8 0
v -12.48 -0.48 0
v -11.84 -0.48 0
v -10.24 -0.96 0
v -10.88 -0.96 0
v -10.88 -0.64 0
v -10.24 -0.64 0
v -10.88 -0.96 0
v -11.52 -0.96 0
v -11.52 -0.64 0
v -10.88 -0.64 0
v -11.52 -0.96 0
v -12.16 -0.96 0
v -12.16 -0.64 0
v -11.52 -0.64 0
v -13.44 -0.96 0
v -14.08 -0.96 0
v -14.08 -0.64 0
v -13.44 -0.64 0
v -14.08 -0.96 0
v -14.72 -0.96 0
v -14.72 -0.64 0
v -14.08 -0.64 0
v -10.56 -1.12 0
v -11.2 -1.12 0
v -11.2 -0.8 0
v -10.56 -0.8 0
v -11.2 -1.12 0
v -11.84 -1.12 0
v -11.84 -0.8 0
v -11.2 -0.8 0
v -11.84 -1.12 0
v -12.48 -1.12 0
v -12.48 -0.8 0
v -11.84 -0.8 0
v -11.52 -1.28 0
v -12.16 -1.28 0
v -12.16 -0.96 0
v -11.52 -0.96 0
v -13.44 -1.28 0
v -14.08 -1.28 0
v -14.08 -0.96 0
v -13.44 -0.96 0
v -14.08 -1.28 0
v -14.72 -1.28 0
v -14.72 -0.96 0
v -14.08 -0.96 0
v -11.84 -1.44 0
v -12.48 -1.44 0
v -12.48 -1.12 0
v -11.84 -1.12 0

# Texture cooridinates (Count = 59)
vt 0.5 0.9285714
vt 0.5625 0.9285714
vt 0.5625 0.952381
vt 0.5 0.952381
vt 0.75 0.9285714
vt 0.8125 0.9285714
vt 0.8125 0.952381
vt 0.75 0.952381
vt 0.1875 0.3333333
vt 0.25 0.3333333
vt 0.25 0.3571429
vt 0.1875 0.3571429
vt 0.3125 0.3333333
vt 0.3125 0.3571429
vt 0 0.8571429
vt 0.0625 0.8571429
vt 0.0625 0.8809524
vt 0 0.8809524
vt 0.0625 0.9285714
vt 0.125 0.9285714
vt 0.125 0.952381
vt 0.0625 0.952381
vt 0.5 0.9047619
vt 0.5625 0.9047619
vt 0 0.9047619
vt 0.0625 0.9047619
vt 0 0.9285714
vt 0.3125 0.9285714
vt 0.375 0.9285714
vt 0.375 0.952381
vt 0.3125 0.952381
vt 0.1875 0.3095238
vt 0.25 0.3095238
vt 0.3125 0.3095238
vt 0 0.8333333
vt 0.0625 0.8333333
vt 0.125 0.9047619
vt 0.25 0.8571429
vt 0.3125 0.8571429
vt 0.3125 0.8809524
vt 0.25 0.8809524
vt 0.5 0.8809524
vt 0.5625 0.8809524
vt 0.3125 0.9047619
vt 0.375 0.9047619
vt 0.1875 0.2857143
vt 0.25 0.2857143
vt 0.3125 0.2857143
vt 0 0.8095238
vt 0.0625 0.8095238
vt 0.125 0.8809524
vt 0.25 0.8333333
vt 0.3125 0.8333333
vt 0.375 0.8809524
vt 0.1875 0.2619048
vt 0.25 0.2619048
vt 0.3125 0.2619048
vt 0.25 0.8095238
vt 0.3125 0.8095238

# Normal
vn 0 0 -1

# Mesh description
g obala_mesh_0007

# Faces
f 1/1/1 2/2/1 3/3/1 4/4/1
f 5/5/1 6/6/1 7/7/1 8/8/1
f 9/9/1 10/10/1 11/11/1 12/12/1
f 13/10/1 14/13/1 15/14/1 16/11/1
f 17/15/1 18/16/1 19/17/1 20/18/1
f 21/19/1 22/20/1 23/21/1 24/22/1
f 25/23/1 26/24/1 27/2/1 28/1/1
f 29/25/1 30/26/1 31/19/1 32/27/1
f 33/28/1 34/29/1 35/30/1 36/31/1
f 37/32/1 38/33/1 39/10/1 40/9/1
f 41/33/1 42/34/1 43/13/1 44/10/1
f 45/35/1 46/36/1 47/16/1 48/15/1
f 49/26/1 50/37/1 51/20/1 52/19/1
f 53/38/1 54/39/1 55/40/1 56/41/1
f 57/42/1 58/43/1 59/24/1 60/23/1
f 61/18/1 62/17/1 63/26/1 64/25/1
f 65/44/1 66/45/1 67/29/1 68/28/1
f 69/46/1 70/47/1 71/33/1 72/32/1
f 73/47/1 74/48/1 75/34/1 76/33/1
f 77/49/1 78/50/1 79/36/1 80/35/1
f 81/17/1 82/51/1 83/37/1 84/26/1
f 85/52/1 86/53/1 87/39/1 88/38/1
f 89/40/1 90/54/1 91/45/1 92/44/1
f 93/55/1 94/56/1 95/47/1 96/46/1
f 97/56/1 98/57/1 99/48/1 100/47/1
f 101/58/1 102/59/1 103/53/1 104/52/1

