# Tiled2Unity generated file. Do not modify by hand.
# Wavefront file for 'obala_mesh_0005.obj'

# Vertices (Count = 72)
v -15.36 -2.24 0
v -16 -2.24 0
v -16 -1.92 0
v -15.36 -1.92 0
v -15.04 -2.4 0
v -15.68 -2.4 0
v -15.68 -2.08 0
v -15.04 -2.08 0
v -15.68 -2.4 0
v -16.32 -2.4 0
v -16.32 -2.08 0
v -15.68 -2.08 0
v -15.36 -2.56 0
v -16 -2.56 0
v -16 -2.24 0
v -15.36 -2.24 0
v -16 -2.56 0
v -16.64 -2.56 0
v -16.64 -2.24 0
v -16 -2.24 0
v -15.04 -2.72 0
v -15.68 -2.72 0
v -15.68 -2.4 0
v -15.04 -2.4 0
v -15.68 -2.72 0
v -16.32 -2.72 0
v -16.32 -2.4 0
v -15.68 -2.4 0
v -15.36 -2.88 0
v -16 -2.88 0
v -16 -2.56 0
v -15.36 -2.56 0
v -16 -2.88 0
v -16.64 -2.88 0
v -16.64 -2.56 0
v -16 -2.56 0
v -15.04 -3.04 0
v -15.68 -3.04 0
v -15.68 -2.72 0
v -15.04 -2.72 0
v -15.68 -3.04 0
v -16.32 -3.04 0
v -16.32 -2.72 0
v -15.68 -2.72 0
v -15.36 -3.2 0
v -16 -3.2 0
v -16 -2.88 0
v -15.36 -2.88 0
v -16 -3.2 0
v -16.64 -3.2 0
v -16.64 -2.88 0
v -16 -2.88 0
v -15.04 -3.36 0
v -15.68 -3.36 0
v -15.68 -3.04 0
v -15.04 -3.04 0
v -15.68 -3.36 0
v -16.32 -3.36 0
v -16.32 -3.04 0
v -15.68 -3.04 0
v -15.36 -3.52 0
v -16 -3.52 0
v -16 -3.2 0
v -15.36 -3.2 0
v -16 -3.52 0
v -16.64 -3.52 0
v -16.64 -3.2 0
v -16 -3.2 0
v -15.68 -3.68 0
v -16.32 -3.68 0
v -16.32 -3.36 0
v -15.68 -3.36 0

# Texture cooridinates (Count = 28)
vt 0.3125 0.452381
vt 0.375 0.452381
vt 0.375 0.4761904
vt 0.3125 0.4761904
vt 0.25 0.4285714
vt 0.3125 0.4285714
vt 0.25 0.452381
vt 0.4375 0.452381
vt 0.4375 0.4761904
vt 0.375 0.4285714
vt 0.4375 0.4285714
vt 0.5 0.4285714
vt 0.5 0.452381
vt 0.25 0.4047619
vt 0.3125 0.4047619
vt 0.375 0.4047619
vt 0.4375 0.4047619
vt 0.5 0.4047619
vt 0.25 0.3809524
vt 0.3125 0.3809524
vt 0.375 0.3809524
vt 0.4375 0.3809524
vt 0.5 0.3809524
vt 0.25 0.3571429
vt 0.3125 0.3571429
vt 0.375 0.3571429
vt 0.4375 0.3571429
vt 0.5 0.3571429

# Normal
vn 0 0 -1

# Mesh description
g obala_mesh_0005

# Faces
f 1/1/1 2/2/1 3/3/1 4/4/1
f 5/5/1 6/6/1 7/1/1 8/7/1
f 9/2/1 10/8/1 11/9/1 12/3/1
f 13/6/1 14/10/1 15/2/1 16/1/1
f 17/11/1 18/12/1 19/13/1 20/8/1
f 21/14/1 22/15/1 23/6/1 24/5/1
f 25/10/1 26/11/1 27/8/1 28/2/1
f 29/15/1 30/16/1 31/10/1 32/6/1
f 33/17/1 34/18/1 35/12/1 36/11/1
f 37/19/1 38/20/1 39/15/1 40/14/1
f 41/16/1 42/17/1 43/11/1 44/10/1
f 45/20/1 46/21/1 47/16/1 48/15/1
f 49/22/1 50/23/1 51/18/1 52/17/1
f 53/24/1 54/25/1 55/20/1 56/19/1
f 57/21/1 58/22/1 59/17/1 60/16/1
f 61/25/1 62/26/1 63/21/1 64/20/1
f 65/27/1 66/28/1 67/23/1 68/22/1
f 69/26/1 70/27/1 71/22/1 72/21/1

