# Tiled2Unity generated file. Do not modify by hand.
# Wavefront file for 'quarry_mesh_0002.obj'

# Vertices (Count = 160)
v -8.96 -5.12 0
v -9.599999 -5.12 0
v -9.599999 -4.8 0
v -8.96 -4.8 0
v -9.599999 -5.12 0
v -10.24 -5.12 0
v -10.24 -4.8 0
v -9.599999 -4.8 0
v -8.96 -5.44 0
v -9.599999 -5.44 0
v -9.599999 -5.12 0
v -8.96 -5.12 0
v -9.599999 -5.44 0
v -10.24 -5.44 0
v -10.24 -5.12 0
v -9.599999 -5.12 0
v -8.96 -5.76 0
v -9.599999 -5.76 0
v -9.599999 -5.44 0
v -8.96 -5.44 0
v -9.599999 -5.76 0
v -10.24 -5.76 0
v -10.24 -5.44 0
v -9.599999 -5.44 0
v -16.96 -6.24 0
v -17.6 -6.24 0
v -17.6 -5.92 0
v -16.96 -5.92 0
v -17.6 -6.24 0
v -18.24 -6.24 0
v -18.24 -5.92 0
v -17.6 -5.92 0
v -16.96 -6.56 0
v -17.6 -6.56 0
v -17.6 -6.24 0
v -16.96 -6.24 0
v -17.6 -6.56 0
v -18.24 -6.56 0
v -18.24 -6.24 0
v -17.6 -6.24 0
v -13.44 -6.72 0
v -14.08 -6.72 0
v -14.08 -6.4 0
v -13.44 -6.4 0
v -14.08 -6.72 0
v -14.72 -6.72 0
v -14.72 -6.4 0
v -14.08 -6.4 0
v -16.96 -6.88 0
v -17.6 -6.88 0
v -17.6 -6.56 0
v -16.96 -6.56 0
v -17.6 -6.88 0
v -18.24 -6.88 0
v -18.24 -6.56 0
v -17.6 -6.56 0
v -13.44 -7.04 0
v -14.08 -7.04 0
v -14.08 -6.72 0
v -13.44 -6.72 0
v -14.08 -7.04 0
v -14.72 -7.04 0
v -14.72 -6.72 0
v -14.08 -6.72 0
v -13.44 -7.36 0
v -14.08 -7.36 0
v -14.08 -7.04 0
v -13.44 -7.04 0
v -14.08 -7.36 0
v -14.72 -7.36 0
v -14.72 -7.04 0
v -14.08 -7.04 0
v -10.24 -9.28 0
v -10.88 -9.28 0
v -10.88 -8.96 0
v -10.24 -8.96 0
v -10.88 -9.28 0
v -11.52 -9.28 0
v -11.52 -8.96 0
v -10.88 -8.96 0
v -10.24 -9.599999 0
v -10.88 -9.599999 0
v -10.88 -9.28 0
v -10.24 -9.28 0
v -10.88 -9.599999 0
v -11.52 -9.599999 0
v -11.52 -9.28 0
v -10.88 -9.28 0
v -10.24 -9.92 0
v -10.88 -9.92 0
v -10.88 -9.599999 0
v -10.24 -9.599999 0
v -10.88 -9.92 0
v -11.52 -9.92 0
v -11.52 -9.599999 0
v -10.88 -9.599999 0
v -16.64 -9.92 0
v -17.28 -9.92 0
v -17.28 -9.599999 0
v -16.64 -9.599999 0
v -17.28 -9.92 0
v -17.92 -9.92 0
v -17.92 -9.599999 0
v -17.28 -9.599999 0
v -8 -10.08 0
v -8.639999 -10.08 0
v -8.639999 -9.76 0
v -8 -9.76 0
v -8.639999 -10.08 0
v -9.28 -10.08 0
v -9.28 -9.76 0
v -8.639999 -9.76 0
v -13.12 -10.08 0
v -13.76 -10.08 0
v -13.76 -9.76 0
v -13.12 -9.76 0
v -13.76 -10.08 0
v -14.4 -10.08 0
v -14.4 -9.76 0
v -13.76 -9.76 0
v -16.64 -10.24 0
v -17.28 -10.24 0
v -17.28 -9.92 0
v -16.64 -9.92 0
v -17.28 -10.24 0
v -17.92 -10.24 0
v -17.92 -9.92 0
v -17.28 -9.92 0
v -8 -10.4 0
v -8.639999 -10.4 0
v -8.639999 -10.08 0
v -8 -10.08 0
v -8.639999 -10.4 0
v -9.28 -10.4 0
v -9.28 -10.08 0
v -8.639999 -10.08 0
v -13.12 -10.4 0
v -13.76 -10.4 0
v -13.76 -10.08 0
v -13.12 -10.08 0
v -13.76 -10.4 0
v -14.4 -10.4 0
v -14.4 -10.08 0
v -13.76 -10.08 0
v -8 -10.72 0
v -8.639999 -10.72 0
v -8.639999 -10.4 0
v -8 -10.4 0
v -8.639999 -10.72 0
v -9.28 -10.72 0
v -9.28 -10.4 0
v -8.639999 -10.4 0
v -13.12 -10.72 0
v -13.76 -10.72 0
v -13.76 -10.4 0
v -13.12 -10.4 0
v -13.76 -10.72 0
v -14.4 -10.72 0
v -14.4 -10.4 0
v -13.76 -10.4 0

# Texture cooridinates (Count = 46)
vt 0.3333333 0.6666666
vt 0.5 0.6666666
vt 0.5 0.75
vt 0.3333333 0.75
vt 0.6666667 0.6666666
vt 0.6666667 0.75
vt 0.3333333 0.5833334
vt 0.5 0.5833334
vt 0.6666667 0.5833334
vt 0.3333333 0.5
vt 0.5 0.5
vt 0.6666667 0.5
vt 0.8333333 0.6666666
vt 0.8333333 0.75
vt 1 0.6666666
vt 1 0.75
vt 0.8333333 0.5833334
vt 1 0.5833334
vt 0 0.6666666
vt 0.1666667 0.6666666
vt 0.1666667 0.75
vt 0 0.75
vt 0.8333333 0.5
vt 1 0.5
vt 0 0.5833334
vt 0.1666667 0.5833334
vt 0 0.5
vt 0.1666667 0.5
vt 0.6666667 0.08333331
vt 0.8333333 0.08333331
vt 0.8333333 0.1666667
vt 0.6666667 0.1666667
vt 1 0.08333331
vt 1 0.1666667
vt 0.3333333 0.1666667
vt 0.5 0.1666667
vt 0.5 0.25
vt 0.3333333 0.25
vt 0.6666667 0.25
vt 0.6666667 0
vt 0.8333333 0
vt 1 0
vt 0.3333333 0.08333331
vt 0.5 0.08333331
vt 0.3333333 0
vt 0.5 0

# Normal
vn 0 0 -1

# Mesh description
g quarry_mesh_0002

# Faces
f 1/1/1 2/2/1 3/3/1 4/4/1
f 5/2/1 6/5/1 7/6/1 8/3/1
f 9/7/1 10/8/1 11/2/1 12/1/1
f 13/8/1 14/9/1 15/5/1 16/2/1
f 17/10/1 18/11/1 19/8/1 20/7/1
f 21/11/1 22/12/1 23/9/1 24/8/1
f 25/5/1 26/13/1 27/14/1 28/6/1
f 29/13/1 30/15/1 31/16/1 32/14/1
f 33/9/1 34/17/1 35/13/1 36/5/1
f 37/17/1 38/18/1 39/15/1 40/13/1
f 41/19/1 42/20/1 43/21/1 44/22/1
f 45/20/1 46/1/1 47/4/1 48/21/1
f 49/12/1 50/23/1 51/17/1 52/9/1
f 53/23/1 54/24/1 55/18/1 56/17/1
f 57/25/1 58/26/1 59/20/1 60/19/1
f 61/26/1 62/7/1 63/1/1 64/20/1
f 65/27/1 66/28/1 67/26/1 68/25/1
f 69/28/1 70/10/1 71/7/1 72/26/1
f 73/1/1 74/2/1 75/3/1 76/4/1
f 77/2/1 78/5/1 79/6/1 80/3/1
f 81/7/1 82/8/1 83/2/1 84/1/1
f 85/8/1 86/9/1 87/5/1 88/2/1
f 89/10/1 90/11/1 91/8/1 92/7/1
f 93/11/1 94/12/1 95/9/1 96/8/1
f 97/29/1 98/30/1 99/31/1 100/32/1
f 101/30/1 102/33/1 103/34/1 104/31/1
f 105/35/1 106/36/1 107/37/1 108/38/1
f 109/36/1 110/32/1 111/39/1 112/37/1
f 113/5/1 114/13/1 115/14/1 116/6/1
f 117/13/1 118/15/1 119/16/1 120/14/1
f 121/40/1 122/41/1 123/30/1 124/29/1
f 125/41/1 126/42/1 127/33/1 128/30/1
f 129/43/1 130/44/1 131/36/1 132/35/1
f 133/44/1 134/29/1 135/32/1 136/36/1
f 137/9/1 138/17/1 139/13/1 140/5/1
f 141/17/1 142/18/1 143/15/1 144/13/1
f 145/45/1 146/46/1 147/44/1 148/43/1
f 149/46/1 150/40/1 151/29/1 152/44/1
f 153/12/1 154/23/1 155/17/1 156/9/1
f 157/23/1 158/24/1 159/18/1 160/17/1

