# Tiled2Unity generated file. Do not modify by hand.
# Wavefront file for 'road-to-city_mesh_0002.obj'

# Vertices (Count = 672)
v -7.04 -1.6 0
v -7.68 -1.6 0
v -7.68 -1.28 0
v -7.04 -1.28 0
v -7.68 -1.6 0
v -8.32 -1.6 0
v -8.32 -1.28 0
v -7.68 -1.28 0
v -9.599999 -1.6 0
v -10.24 -1.6 0
v -10.24 -1.28 0
v -9.599999 -1.28 0
v -7.36 -1.76 0
v -8 -1.76 0
v -8 -1.44 0
v -7.36 -1.44 0
v -8 -1.76 0
v -8.639999 -1.76 0
v -8.639999 -1.44 0
v -8 -1.44 0
v -9.28 -1.76 0
v -9.92 -1.76 0
v -9.92 -1.44 0
v -9.28 -1.44 0
v -9.92 -1.76 0
v -10.56 -1.76 0
v -10.56 -1.44 0
v -9.92 -1.44 0
v -7.68 -1.92 0
v -8.32 -1.92 0
v -8.32 -1.6 0
v -7.68 -1.6 0
v -9.599999 -1.92 0
v -10.24 -1.92 0
v -10.24 -1.6 0
v -9.599999 -1.6 0
v -7.36 -2.08 0
v -8 -2.08 0
v -8 -1.76 0
v -7.36 -1.76 0
v -8 -2.08 0
v -8.639999 -2.08 0
v -8.639999 -1.76 0
v -8 -1.76 0
v -9.28 -2.08 0
v -9.92 -2.08 0
v -9.92 -1.76 0
v -9.28 -1.76 0
v -9.92 -2.08 0
v -10.56 -2.08 0
v -10.56 -1.76 0
v -9.92 -1.76 0
v -7.68 -2.24 0
v -8.32 -2.24 0
v -8.32 -1.92 0
v -7.68 -1.92 0
v -8.96 -2.24 0
v -9.599999 -2.24 0
v -9.599999 -1.92 0
v -8.96 -1.92 0
v -9.599999 -2.24 0
v -10.24 -2.24 0
v -10.24 -1.92 0
v -9.599999 -1.92 0
v -8 -2.4 0
v -8.639999 -2.4 0
v -8.639999 -2.08 0
v -8 -2.08 0
v -9.28 -2.4 0
v -9.92 -2.4 0
v -9.92 -2.08 0
v -9.28 -2.08 0
v -9.92 -2.4 0
v -10.56 -2.4 0
v -10.56 -2.08 0
v -9.92 -2.08 0
v -7.68 -2.56 0
v -8.32 -2.56 0
v -8.32 -2.24 0
v -7.68 -2.24 0
v -8.32 -2.56 0
v -8.96 -2.56 0
v -8.96 -2.24 0
v -8.32 -2.24 0
v -8.96 -2.56 0
v -9.599999 -2.56 0
v -9.599999 -2.24 0
v -8.96 -2.24 0
v -9.599999 -2.56 0
v -10.24 -2.56 0
v -10.24 -2.24 0
v -9.599999 -2.24 0
v -8 -2.72 0
v -8.639999 -2.72 0
v -8.639999 -2.4 0
v -8 -2.4 0
v -9.28 -2.72 0
v -9.92 -2.72 0
v -9.92 -2.4 0
v -9.28 -2.4 0
v -9.92 -2.72 0
v -10.56 -2.72 0
v -10.56 -2.4 0
v -9.92 -2.4 0
v -7.68 -2.88 0
v -8.32 -2.88 0
v -8.32 -2.56 0
v -7.68 -2.56 0
v -8.32 -2.88 0
v -8.96 -2.88 0
v -8.96 -2.56 0
v -8.32 -2.56 0
v -8.96 -2.88 0
v -9.599999 -2.88 0
v -9.599999 -2.56 0
v -8.96 -2.56 0
v -9.599999 -2.88 0
v -10.24 -2.88 0
v -10.24 -2.56 0
v -9.599999 -2.56 0
v -8 -3.04 0
v -8.639999 -3.04 0
v -8.639999 -2.72 0
v -8 -2.72 0
v -9.28 -3.04 0
v -9.92 -3.04 0
v -9.92 -2.72 0
v -9.28 -2.72 0
v -9.92 -3.04 0
v -10.56 -3.04 0
v -10.56 -2.72 0
v -9.92 -2.72 0
v -7.68 -3.2 0
v -8.32 -3.2 0
v -8.32 -2.88 0
v -7.68 -2.88 0
v -8.32 -3.2 0
v -8.96 -3.2 0
v -8.96 -2.88 0
v -8.32 -2.88 0
v -9.599999 -3.2 0
v -10.24 -3.2 0
v -10.24 -2.88 0
v -9.599999 -2.88 0
v -8 -3.36 0
v -8.639999 -3.36 0
v -8.639999 -3.04 0
v -8 -3.04 0
v -9.28 -3.36 0
v -9.92 -3.36 0
v -9.92 -3.04 0
v -9.28 -3.04 0
v -9.92 -3.36 0
v -10.56 -3.36 0
v -10.56 -3.04 0
v -9.92 -3.04 0
v -8.32 -3.52 0
v -8.96 -3.52 0
v -8.96 -3.2 0
v -8.32 -3.2 0
v -8.96 -3.52 0
v -9.599999 -3.52 0
v -9.599999 -3.2 0
v -8.96 -3.2 0
v -9.599999 -3.52 0
v -10.24 -3.52 0
v -10.24 -3.2 0
v -9.599999 -3.2 0
v -10.24 -3.52 0
v -10.88 -3.52 0
v -10.88 -3.2 0
v -10.24 -3.2 0
v -8 -3.68 0
v -8.639999 -3.68 0
v -8.639999 -3.36 0
v -8 -3.36 0
v -9.28 -3.68 0
v -9.92 -3.68 0
v -9.92 -3.36 0
v -9.28 -3.36 0
v -9.92 -3.68 0
v -10.56 -3.68 0
v -10.56 -3.36 0
v -9.92 -3.36 0
v -8.32 -3.84 0
v -8.96 -3.84 0
v -8.96 -3.52 0
v -8.32 -3.52 0
v -9.599999 -3.84 0
v -10.24 -3.84 0
v -10.24 -3.52 0
v -9.599999 -3.52 0
v -10.24 -3.84 0
v -10.88 -3.84 0
v -10.88 -3.52 0
v -10.24 -3.52 0
v -8.639999 -4 0
v -9.28 -4 0
v -9.28 -3.68 0
v -8.639999 -3.68 0
v -9.92 -4 0
v -10.56 -4 0
v -10.56 -3.68 0
v -9.92 -3.68 0
v -10.56 -4 0
v -11.2 -4 0
v -11.2 -3.68 0
v -10.56 -3.68 0
v -8.32 -4.16 0
v -8.96 -4.16 0
v -8.96 -3.84 0
v -8.32 -3.84 0
v -10.24 -4.16 0
v -10.88 -4.16 0
v -10.88 -3.84 0
v -10.24 -3.84 0
v -8.639999 -4.32 0
v -9.28 -4.32 0
v -9.28 -4 0
v -8.639999 -4 0
v -10.56 -4.32 0
v -11.2 -4.32 0
v -11.2 -4 0
v -10.56 -4 0
v -8.32 -4.48 0
v -8.96 -4.48 0
v -8.96 -4.16 0
v -8.32 -4.16 0
v -8.96 -4.48 0
v -9.599999 -4.48 0
v -9.599999 -4.16 0
v -8.96 -4.16 0
v -10.24 -4.48 0
v -10.88 -4.48 0
v -10.88 -4.16 0
v -10.24 -4.16 0
v -10.88 -4.48 0
v -11.52 -4.48 0
v -11.52 -4.16 0
v -10.88 -4.16 0
v -8.639999 -4.64 0
v -9.28 -4.64 0
v -9.28 -4.32 0
v -8.639999 -4.32 0
v -10.56 -4.64 0
v -11.2 -4.64 0
v -11.2 -4.32 0
v -10.56 -4.32 0
v -11.2 -4.64 0
v -11.84 -4.64 0
v -11.84 -4.32 0
v -11.2 -4.32 0
v -8.96 -4.8 0
v -9.599999 -4.8 0
v -9.599999 -4.48 0
v -8.96 -4.48 0
v -10.24 -4.8 0
v -10.88 -4.8 0
v -10.88 -4.48 0
v -10.24 -4.48 0
v -10.88 -4.8 0
v -11.52 -4.8 0
v -11.52 -4.48 0
v -10.88 -4.48 0
v -8.639999 -4.96 0
v -9.28 -4.96 0
v -9.28 -4.64 0
v -8.639999 -4.64 0
v -10.56 -4.96 0
v -11.2 -4.96 0
v -11.2 -4.64 0
v -10.56 -4.64 0
v -11.2 -4.96 0
v -11.84 -4.96 0
v -11.84 -4.64 0
v -11.2 -4.64 0
v -8.96 -5.12 0
v -9.599999 -5.12 0
v -9.599999 -4.8 0
v -8.96 -4.8 0
v -10.24 -5.12 0
v -10.88 -5.12 0
v -10.88 -4.8 0
v -10.24 -4.8 0
v -10.88 -5.12 0
v -11.52 -5.12 0
v -11.52 -4.8 0
v -10.88 -4.8 0
v -11.52 -5.12 0
v -12.16 -5.12 0
v -12.16 -4.8 0
v -11.52 -4.8 0
v -8.639999 -5.28 0
v -9.28 -5.28 0
v -9.28 -4.96 0
v -8.639999 -4.96 0
v -9.28 -5.28 0
v -9.92 -5.28 0
v -9.92 -4.96 0
v -9.28 -4.96 0
v -10.56 -5.28 0
v -11.2 -5.28 0
v -11.2 -4.96 0
v -10.56 -4.96 0
v -11.2 -5.28 0
v -11.84 -5.28 0
v -11.84 -4.96 0
v -11.2 -4.96 0
v -11.84 -5.28 0
v -12.48 -5.28 0
v -12.48 -4.96 0
v -11.84 -4.96 0
v -8.96 -5.44 0
v -9.599999 -5.44 0
v -9.599999 -5.12 0
v -8.96 -5.12 0
v -10.24 -5.44 0
v -10.88 -5.44 0
v -10.88 -5.12 0
v -10.24 -5.12 0
v -10.88 -5.44 0
v -11.52 -5.44 0
v -11.52 -5.12 0
v -10.88 -5.12 0
v -11.52 -5.44 0
v -12.16 -5.44 0
v -12.16 -5.12 0
v -11.52 -5.12 0
v -9.28 -5.6 0
v -9.92 -5.6 0
v -9.92 -5.28 0
v -9.28 -5.28 0
v -10.56 -5.6 0
v -11.2 -5.6 0
v -11.2 -5.28 0
v -10.56 -5.28 0
v -11.2 -5.6 0
v -11.84 -5.6 0
v -11.84 -5.28 0
v -11.2 -5.28 0
v -11.84 -5.6 0
v -12.48 -5.6 0
v -12.48 -5.28 0
v -11.84 -5.28 0
v -8.96 -5.76 0
v -9.599999 -5.76 0
v -9.599999 -5.44 0
v -8.96 -5.44 0
v -9.599999 -5.76 0
v -10.24 -5.76 0
v -10.24 -5.44 0
v -9.599999 -5.44 0
v -10.24 -5.76 0
v -10.88 -5.76 0
v -10.88 -5.44 0
v -10.24 -5.44 0
v -10.88 -5.76 0
v -11.52 -5.76 0
v -11.52 -5.44 0
v -10.88 -5.44 0
v -11.52 -5.76 0
v -12.16 -5.76 0
v -12.16 -5.44 0
v -11.52 -5.44 0
v -12.16 -5.76 0
v -12.8 -5.76 0
v -12.8 -5.44 0
v -12.16 -5.44 0
v -14.08 -5.76 0
v -14.72 -5.76 0
v -14.72 -5.44 0
v -14.08 -5.44 0
v -9.28 -5.92 0
v -9.92 -5.92 0
v -9.92 -5.6 0
v -9.28 -5.6 0
v -10.56 -5.92 0
v -11.2 -5.92 0
v -11.2 -5.6 0
v -10.56 -5.6 0
v -11.2 -5.92 0
v -11.84 -5.92 0
v -11.84 -5.6 0
v -11.2 -5.6 0
v -11.84 -5.92 0
v -12.48 -5.92 0
v -12.48 -5.6 0
v -11.84 -5.6 0
v -12.48 -5.92 0
v -13.12 -5.92 0
v -13.12 -5.6 0
v -12.48 -5.6 0
v -9.599999 -6.08 0
v -10.24 -6.08 0
v -10.24 -5.76 0
v -9.599999 -5.76 0
v -10.88 -6.08 0
v -11.52 -6.08 0
v -11.52 -5.76 0
v -10.88 -5.76 0
v -11.52 -6.08 0
v -12.16 -6.08 0
v -12.16 -5.76 0
v -11.52 -5.76 0
v -12.16 -6.08 0
v -12.8 -6.08 0
v -12.8 -5.76 0
v -12.16 -5.76 0
v -14.08 -6.08 0
v -14.72 -6.08 0
v -14.72 -5.76 0
v -14.08 -5.76 0
v -16 -6.08 0
v -16.64 -6.08 0
v -16.64 -5.76 0
v -16 -5.76 0
v -9.28 -6.24 0
v -9.92 -6.24 0
v -9.92 -5.92 0
v -9.28 -5.92 0
v -9.92 -6.24 0
v -10.56 -6.24 0
v -10.56 -5.92 0
v -9.92 -5.92 0
v -11.2 -6.24 0
v -11.84 -6.24 0
v -11.84 -5.92 0
v -11.2 -5.92 0
v -11.84 -6.24 0
v -12.48 -6.24 0
v -12.48 -5.92 0
v -11.84 -5.92 0
v -12.48 -6.24 0
v -13.12 -6.24 0
v -13.12 -5.92 0
v -12.48 -5.92 0
v -9.599999 -6.4 0
v -10.24 -6.4 0
v -10.24 -6.08 0
v -9.599999 -6.08 0
v -11.52 -6.4 0
v -12.16 -6.4 0
v -12.16 -6.08 0
v -11.52 -6.08 0
v -12.16 -6.4 0
v -12.8 -6.4 0
v -12.8 -6.08 0
v -12.16 -6.08 0
v -12.8 -6.4 0
v -13.44 -6.4 0
v -13.44 -6.08 0
v -12.8 -6.08 0
v -14.08 -6.4 0
v -14.72 -6.4 0
v -14.72 -6.08 0
v -14.08 -6.08 0
v -16 -6.4 0
v -16.64 -6.4 0
v -16.64 -6.08 0
v -16 -6.08 0
v -9.92 -6.56 0
v -10.56 -6.56 0
v -10.56 -6.24 0
v -9.92 -6.24 0
v -11.2 -6.56 0
v -11.84 -6.56 0
v -11.84 -6.24 0
v -11.2 -6.24 0
v -11.84 -6.56 0
v -12.48 -6.56 0
v -12.48 -6.24 0
v -11.84 -6.24 0
v -12.48 -6.56 0
v -13.12 -6.56 0
v -13.12 -6.24 0
v -12.48 -6.24 0
v -13.12 -6.56 0
v -13.76 -6.56 0
v -13.76 -6.24 0
v -13.12 -6.24 0
v -9.599999 -6.72 0
v -10.24 -6.72 0
v -10.24 -6.4 0
v -9.599999 -6.4 0
v -10.24 -6.72 0
v -10.88 -6.72 0
v -10.88 -6.4 0
v -10.24 -6.4 0
v -11.52 -6.72 0
v -12.16 -6.72 0
v -12.16 -6.4 0
v -11.52 -6.4 0
v -12.16 -6.72 0
v -12.8 -6.72 0
v -12.8 -6.4 0
v -12.16 -6.4 0
v -12.8 -6.72 0
v -13.44 -6.72 0
v -13.44 -6.4 0
v -12.8 -6.4 0
v -9.92 -6.88 0
v -10.56 -6.88 0
v -10.56 -6.56 0
v -9.92 -6.56 0
v -10.56 -6.88 0
v -11.2 -6.88 0
v -11.2 -6.56 0
v -10.56 -6.56 0
v -11.2 -6.88 0
v -11.84 -6.88 0
v -11.84 -6.56 0
v -11.2 -6.56 0
v -11.84 -6.88 0
v -12.48 -6.88 0
v -12.48 -6.56 0
v -11.84 -6.56 0
v -12.48 -6.88 0
v -13.12 -6.88 0
v -13.12 -6.56 0
v -12.48 -6.56 0
v -13.12 -6.88 0
v -13.76 -6.88 0
v -13.76 -6.56 0
v -13.12 -6.56 0
v -10.24 -7.04 0
v -10.88 -7.04 0
v -10.88 -6.72 0
v -10.24 -6.72 0
v -10.88 -7.04 0
v -11.52 -7.04 0
v -11.52 -6.72 0
v -10.88 -6.72 0
v -11.52 -7.04 0
v -12.16 -7.04 0
v -12.16 -6.72 0
v -11.52 -6.72 0
v -12.16 -7.04 0
v -12.8 -7.04 0
v -12.8 -6.72 0
v -12.16 -6.72 0
v -12.8 -7.04 0
v -13.44 -7.04 0
v -13.44 -6.72 0
v -12.8 -6.72 0
v -9.92 -7.2 0
v -10.56 -7.2 0
v -10.56 -6.88 0
v -9.92 -6.88 0
v -10.56 -7.2 0
v -11.2 -7.2 0
v -11.2 -6.88 0
v -10.56 -6.88 0
v -11.2 -7.2 0
v -11.84 -7.2 0
v -11.84 -6.88 0
v -11.2 -6.88 0
v -11.84 -7.2 0
v -12.48 -7.2 0
v -12.48 -6.88 0
v -11.84 -6.88 0
v -12.48 -7.2 0
v -13.12 -7.2 0
v -13.12 -6.88 0
v -12.48 -6.88 0
v -13.12 -7.2 0
v -13.76 -7.2 0
v -13.76 -6.88 0
v -13.12 -6.88 0
v -13.76 -7.2 0
v -14.4 -7.2 0
v -14.4 -6.88 0
v -13.76 -6.88 0
v -10.24 -7.36 0
v -10.88 -7.36 0
v -10.88 -7.04 0
v -10.24 -7.04 0
v -10.88 -7.36 0
v -11.52 -7.36 0
v -11.52 -7.04 0
v -10.88 -7.04 0
v -11.52 -7.36 0
v -12.16 -7.36 0
v -12.16 -7.04 0
v -11.52 -7.04 0
v -12.16 -7.36 0
v -12.8 -7.36 0
v -12.8 -7.04 0
v -12.16 -7.04 0
v -12.8 -7.36 0
v -13.44 -7.36 0
v -13.44 -7.04 0
v -12.8 -7.04 0
v -13.44 -7.36 0
v -14.08 -7.36 0
v -14.08 -7.04 0
v -13.44 -7.04 0
v -10.56 -7.52 0
v -11.2 -7.52 0
v -11.2 -7.2 0
v -10.56 -7.2 0
v -11.2 -7.52 0
v -11.84 -7.52 0
v -11.84 -7.2 0
v -11.2 -7.2 0
v -11.84 -7.52 0
v -12.48 -7.52 0
v -12.48 -7.2 0
v -11.84 -7.2 0
v -12.48 -7.52 0
v -13.12 -7.52 0
v -13.12 -7.2 0
v -12.48 -7.2 0
v -13.12 -7.52 0
v -13.76 -7.52 0
v -13.76 -7.2 0
v -13.12 -7.2 0
v -10.88 -7.68 0
v -11.52 -7.68 0
v -11.52 -7.36 0
v -10.88 -7.36 0
v -11.52 -7.68 0
v -12.16 -7.68 0
v -12.16 -7.36 0
v -11.52 -7.36 0
v -12.16 -7.68 0
v -12.8 -7.68 0
v -12.8 -7.36 0
v -12.16 -7.36 0
v -12.8 -7.68 0
v -13.44 -7.68 0
v -13.44 -7.36 0
v -12.8 -7.36 0
v -16 -7.68 0
v -16.64 -7.68 0
v -16.64 -7.36 0
v -16 -7.36 0
v -17.28 -7.68 0
v -17.92 -7.68 0
v -17.92 -7.36 0
v -17.28 -7.36 0
v -12.48 -7.84 0
v -13.12 -7.84 0
v -13.12 -7.52 0
v -12.48 -7.52 0
v -17.28 -8 0
v -17.92 -8 0
v -17.92 -7.68 0
v -17.28 -7.68 0
v -16.64 -8.32 0
v -17.28 -8.32 0
v -17.28 -8 0
v -16.64 -8 0
v -10.56 -8.48 0
v -11.2 -8.48 0
v -11.2 -8.16 0
v -10.56 -8.16 0
v -12.16 -8.639999 0
v -12.8 -8.639999 0
v -12.8 -8.32 0
v -12.16 -8.32 0
v -16.64 -8.639999 0
v -17.28 -8.639999 0
v -17.28 -8.32 0
v -16.64 -8.32 0
v -10.56 -8.8 0
v -11.2 -8.8 0
v -11.2 -8.48 0
v -10.56 -8.48 0
v -12.16 -8.96 0
v -12.8 -8.96 0
v -12.8 -8.639999 0
v -12.16 -8.639999 0

# Texture cooridinates (Count = 46)
vt 0.125 0.952381
vt 0.1875 0.952381
vt 0.1875 0.9761904
vt 0.125 0.9761904
vt 0.0625 0.9761904
vt 0.125 1
vt 0.0625 1
vt 0.1875 1
vt 0.25 0.9761904
vt 0.25 1
vt 0 0.9761904
vt 0 1
vt 0.5625 0.7380952
vt 0.625 0.7380952
vt 0.625 0.7619048
vt 0.5625 0.7619048
vt 0.6875 0.6904762
vt 0.75 0.6904762
vt 0.75 0.7142857
vt 0.6875 0.7142857
vt 0.5625 0.7142857
vt 0.625 0.7142857
vt 0.6875 0.6666666
vt 0.75 0.6666666
vt 0.4375 0.7380952
vt 0.5 0.7380952
vt 0.5 0.7619048
vt 0.4375 0.7619048
vt 0.6875 0.6428571
vt 0.75 0.6428571
vt 0.4375 0.7142857
vt 0.5 0.7142857
vt 0.0625 0.952381
vt 0.9375 0.7142857
vt 1 0.7142857
vt 1 0.7380952
vt 0.9375 0.7380952
vt 0.875 0.7380952
vt 0.9375 0.7619048
vt 0.875 0.7619048
vt 0.875 0.7142857
vt 0.6875 0.7380952
vt 0.6875 0.7619048
vt 0.375 0.7380952
vt 0.375 0.7619048
vt 0.375 0.7142857

# Normal
vn 0 0 -1

# Mesh description
g road-to-city_mesh_0002

# Faces
f 1/1/1 2/2/1 3/3/1 4/4/1
f 5/1/1 6/2/1 7/3/1 8/4/1
f 9/5/1 10/4/1 11/6/1 12/7/1
f 13/1/1 14/2/1 15/3/1 16/4/1
f 17/1/1 18/2/1 19/3/1 20/4/1
f 21/5/1 22/4/1 23/6/1 24/7/1
f 25/4/1 26/3/1 27/8/1 28/6/1
f 29/1/1 30/2/1 31/3/1 32/4/1
f 33/4/1 34/3/1 35/8/1 36/6/1
f 37/1/1 38/2/1 39/3/1 40/4/1
f 41/1/1 42/2/1 43/3/1 44/4/1
f 45/4/1 46/3/1 47/8/1 48/6/1
f 49/4/1 50/3/1 51/8/1 52/6/1
f 53/1/1 54/2/1 55/3/1 56/4/1
f 57/3/1 58/9/1 59/10/1 60/8/1
f 61/5/1 62/4/1 63/6/1 64/7/1
f 65/1/1 66/2/1 67/3/1 68/4/1
f 69/3/1 70/9/1 71/10/1 72/8/1
f 73/4/1 74/3/1 75/8/1 76/6/1
f 77/1/1 78/2/1 79/3/1 80/4/1
f 81/1/1 82/2/1 83/3/1 84/4/1
f 85/5/1 86/4/1 87/6/1 88/7/1
f 89/5/1 90/4/1 91/6/1 92/7/1
f 93/1/1 94/2/1 95/3/1 96/4/1
f 97/5/1 98/4/1 99/6/1 100/7/1
f 101/3/1 102/9/1 103/10/1 104/8/1
f 105/1/1 106/2/1 107/3/1 108/4/1
f 109/1/1 110/2/1 111/3/1 112/4/1
f 113/5/1 114/4/1 115/6/1 116/7/1
f 117/11/1 118/5/1 119/7/1 120/12/1
f 121/1/1 122/2/1 123/3/1 124/4/1
f 125/4/1 126/3/1 127/8/1 128/6/1
f 129/3/1 130/9/1 131/10/1 132/8/1
f 133/1/1 134/2/1 135/3/1 136/4/1
f 137/1/1 138/2/1 139/3/1 140/4/1
f 141/5/1 142/4/1 143/6/1 144/7/1
f 145/1/1 146/2/1 147/3/1 148/4/1
f 149/11/1 150/5/1 151/7/1 152/12/1
f 153/3/1 154/9/1 155/10/1 156/8/1
f 157/1/1 158/2/1 159/3/1 160/4/1
f 161/3/1 162/9/1 163/10/1 164/8/1
f 165/5/1 166/4/1 167/6/1 168/7/1
f 169/11/1 170/5/1 171/7/1 172/12/1
f 173/1/1 174/2/1 175/3/1 176/4/1
f 177/3/1 178/9/1 179/10/1 180/8/1
f 181/11/1 182/5/1 183/7/1 184/12/1
f 185/1/1 186/2/1 187/3/1 188/4/1
f 189/3/1 190/9/1 191/10/1 192/8/1
f 193/3/1 194/9/1 195/10/1 196/8/1
f 197/1/1 198/2/1 199/3/1 200/4/1
f 201/5/1 202/4/1 203/6/1 204/7/1
f 205/3/1 206/9/1 207/10/1 208/8/1
f 209/1/1 210/2/1 211/3/1 212/4/1
f 213/5/1 214/4/1 215/6/1 216/7/1
f 217/1/1 218/2/1 219/3/1 220/4/1
f 221/3/1 222/9/1 223/10/1 224/8/1
f 225/1/1 226/2/1 227/3/1 228/4/1
f 229/1/1 230/2/1 231/3/1 232/4/1
f 233/11/1 234/5/1 235/7/1 236/12/1
f 237/4/1 238/3/1 239/8/1 240/6/1
f 241/1/1 242/2/1 243/3/1 244/4/1
f 245/4/1 246/3/1 247/8/1 248/6/1
f 249/5/1 250/4/1 251/6/1 252/7/1
f 253/1/1 254/2/1 255/3/1 256/4/1
f 257/4/1 258/3/1 259/8/1 260/6/1
f 261/4/1 262/3/1 263/8/1 264/6/1
f 265/1/1 266/2/1 267/3/1 268/4/1
f 269/5/1 270/4/1 271/6/1 272/7/1
f 273/4/1 274/3/1 275/8/1 276/6/1
f 277/1/1 278/2/1 279/3/1 280/4/1
f 281/3/1 282/9/1 283/10/1 284/8/1
f 285/11/1 286/5/1 287/7/1 288/12/1
f 289/5/1 290/4/1 291/6/1 292/7/1
f 293/1/1 294/2/1 295/3/1 296/4/1
f 297/1/1 298/2/1 299/3/1 300/4/1
f 301/5/1 302/4/1 303/6/1 304/7/1
f 305/11/1 306/5/1 307/7/1 308/12/1
f 309/5/1 310/4/1 311/6/1 312/7/1
f 313/1/1 314/2/1 315/3/1 316/4/1
f 317/5/1 318/4/1 319/6/1 320/7/1
f 321/3/1 322/9/1 323/10/1 324/8/1
f 325/4/1 326/3/1 327/8/1 328/6/1
f 329/1/1 330/2/1 331/3/1 332/4/1
f 333/5/1 334/4/1 335/6/1 336/7/1
f 337/11/1 338/5/1 339/7/1 340/12/1
f 341/4/1 342/3/1 343/8/1 344/6/1
f 345/1/1 346/2/1 347/3/1 348/4/1
f 349/1/1 350/2/1 351/3/1 352/4/1
f 353/4/1 354/3/1 355/8/1 356/6/1
f 357/4/1 358/3/1 359/8/1 360/6/1
f 361/13/1 362/14/1 363/15/1 364/16/1
f 365/4/1 366/3/1 367/8/1 368/6/1
f 369/17/1 370/18/1 371/19/1 372/20/1
f 373/1/1 374/2/1 375/3/1 376/4/1
f 377/4/1 378/3/1 379/8/1 380/6/1
f 381/5/1 382/4/1 383/6/1 384/7/1
f 385/4/1 386/3/1 387/8/1 388/6/1
f 389/3/1 390/9/1 391/10/1 392/8/1
f 393/1/1 394/2/1 395/3/1 396/4/1
f 397/4/1 398/3/1 399/8/1 400/6/1
f 401/21/1 402/22/1 403/14/1 404/13/1
f 405/3/1 406/9/1 407/10/1 408/8/1
f 409/23/1 410/24/1 411/18/1 412/17/1
f 413/25/1 414/26/1 415/27/1 416/28/1
f 417/1/1 418/2/1 419/3/1 420/4/1
f 421/1/1 422/2/1 423/3/1 424/4/1
f 425/5/1 426/4/1 427/6/1 428/7/1
f 429/5/1 430/4/1 431/6/1 432/7/1
f 433/11/1 434/5/1 435/7/1 436/12/1
f 437/1/1 438/2/1 439/3/1 440/4/1
f 441/11/1 442/5/1 443/7/1 444/12/1
f 445/5/1 446/4/1 447/6/1 448/7/1
f 449/3/1 450/9/1 451/10/1 452/8/1
f 453/29/1 454/30/1 455/24/1 456/23/1
f 457/31/1 458/32/1 459/26/1 460/25/1
f 461/1/1 462/2/1 463/3/1 464/4/1
f 465/3/1 466/9/1 467/10/1 468/8/1
f 469/5/1 470/4/1 471/6/1 472/7/1
f 473/11/1 474/5/1 475/7/1 476/12/1
f 477/5/1 478/4/1 479/6/1 480/7/1
f 481/1/1 482/2/1 483/3/1 484/4/1
f 485/1/1 486/2/1 487/3/1 488/4/1
f 489/11/1 490/5/1 491/7/1 492/12/1
f 493/3/1 494/9/1 495/10/1 496/8/1
f 497/4/1 498/3/1 499/8/1 500/6/1
f 501/1/1 502/2/1 503/3/1 504/4/1
f 505/1/1 506/2/1 507/3/1 508/4/1
f 509/5/1 510/4/1 511/6/1 512/7/1
f 513/4/1 514/3/1 515/8/1 516/6/1
f 517/5/1 518/4/1 519/6/1 520/7/1
f 521/5/1 522/4/1 523/6/1 524/7/1
f 525/1/1 526/2/1 527/3/1 528/4/1
f 529/1/1 530/2/1 531/3/1 532/4/1
f 533/3/1 534/9/1 535/10/1 536/8/1
f 537/3/1 538/9/1 539/10/1 540/8/1
f 541/11/1 542/5/1 543/7/1 544/12/1
f 545/1/1 546/2/1 547/3/1 548/4/1
f 549/1/1 550/2/1 551/3/1 552/4/1
f 553/1/1 554/2/1 555/3/1 556/4/1
f 557/1/1 558/2/1 559/3/1 560/4/1
f 561/33/1 562/1/1 563/4/1 564/5/1
f 565/1/1 566/2/1 567/3/1 568/4/1
f 569/1/1 570/2/1 571/3/1 572/4/1
f 573/1/1 574/2/1 575/3/1 576/4/1
f 577/1/1 578/2/1 579/3/1 580/4/1
f 581/1/1 582/2/1 583/3/1 584/4/1
f 585/1/1 586/2/1 587/3/1 588/4/1
f 589/1/1 590/2/1 591/3/1 592/4/1
f 593/1/1 594/2/1 595/3/1 596/4/1
f 597/1/1 598/2/1 599/3/1 600/4/1
f 601/1/1 602/2/1 603/3/1 604/4/1
f 605/1/1 606/2/1 607/3/1 608/4/1
f 609/1/1 610/2/1 611/3/1 612/4/1
f 613/1/1 614/2/1 615/3/1 616/4/1
f 617/1/1 618/2/1 619/3/1 620/4/1
f 621/1/1 622/2/1 623/3/1 624/4/1
f 625/1/1 626/2/1 627/3/1 628/4/1
f 629/1/1 630/2/1 631/3/1 632/4/1
f 633/34/1 634/35/1 635/36/1 636/37/1
f 637/38/1 638/37/1 639/39/1 640/40/1
f 641/4/1 642/3/1 643/8/1 644/6/1
f 645/41/1 646/34/1 647/37/1 648/38/1
f 649/14/1 650/42/1 651/43/1 652/15/1
f 653/26/1 654/13/1 655/16/1 656/27/1
f 657/44/1 658/25/1 659/28/1 660/45/1
f 661/22/1 662/20/1 663/42/1 664/14/1
f 665/32/1 666/21/1 667/13/1 668/26/1
f 669/46/1 670/31/1 671/25/1 672/44/1

