# Tiled2Unity generated file. Do not modify by hand.
# Wavefront file for 'cave_mesh_0005.obj'

# Vertices (Count = 188)
v -8.32 -0.64 0
v -8.96 -0.64 0
v -8.96 -0.32 0
v -8.32 -0.32 0
v -8.96 -0.64 0
v -9.599999 -0.64 0
v -9.599999 -0.32 0
v -8.96 -0.32 0
v -9.599999 -0.64 0
v -10.24 -0.64 0
v -10.24 -0.32 0
v -9.599999 -0.32 0
v -10.24 -0.64 0
v -10.88 -0.64 0
v -10.88 -0.32 0
v -10.24 -0.32 0
v -8.639999 -0.8 0
v -9.28 -0.8 0
v -9.28 -0.48 0
v -8.639999 -0.48 0
v -9.28 -0.8 0
v -9.92 -0.8 0
v -9.92 -0.48 0
v -9.28 -0.48 0
v -9.92 -0.8 0
v -10.56 -0.8 0
v -10.56 -0.48 0
v -9.92 -0.48 0
v -10.56 -0.8 0
v -11.2 -0.8 0
v -11.2 -0.48 0
v -10.56 -0.48 0
v -8.32 -0.96 0
v -8.96 -0.96 0
v -8.96 -0.64 0
v -8.32 -0.64 0
v -8.96 -0.96 0
v -9.599999 -0.96 0
v -9.599999 -0.64 0
v -8.96 -0.64 0
v -9.599999 -0.96 0
v -10.24 -0.96 0
v -10.24 -0.64 0
v -9.599999 -0.64 0
v -10.24 -0.96 0
v -10.88 -0.96 0
v -10.88 -0.64 0
v -10.24 -0.64 0
v -10.88 -0.96 0
v -11.52 -0.96 0
v -11.52 -0.64 0
v -10.88 -0.64 0
v -11.52 -0.96 0
v -12.16 -0.96 0
v -12.16 -0.64 0
v -11.52 -0.64 0
v -8.639999 -1.12 0
v -9.28 -1.12 0
v -9.28 -0.8 0
v -8.639999 -0.8 0
v -9.28 -1.12 0
v -9.92 -1.12 0
v -9.92 -0.8 0
v -9.28 -0.8 0
v -9.92 -1.12 0
v -10.56 -1.12 0
v -10.56 -0.8 0
v -9.92 -0.8 0
v -10.56 -1.12 0
v -11.2 -1.12 0
v -11.2 -0.8 0
v -10.56 -0.8 0
v -11.2 -1.12 0
v -11.84 -1.12 0
v -11.84 -0.8 0
v -11.2 -0.8 0
v -11.84 -1.12 0
v -12.48 -1.12 0
v -12.48 -0.8 0
v -11.84 -0.8 0
v -8.32 -1.28 0
v -8.96 -1.28 0
v -8.96 -0.96 0
v -8.32 -0.96 0
v -8.96 -1.28 0
v -9.599999 -1.28 0
v -9.599999 -0.96 0
v -8.96 -0.96 0
v -9.599999 -1.28 0
v -10.24 -1.28 0
v -10.24 -0.96 0
v -9.599999 -0.96 0
v -10.24 -1.28 0
v -10.88 -1.28 0
v -10.88 -0.96 0
v -10.24 -0.96 0
v -10.88 -1.28 0
v -11.52 -1.28 0
v -11.52 -0.96 0
v -10.88 -0.96 0
v -11.52 -1.28 0
v -12.16 -1.28 0
v -12.16 -0.96 0
v -11.52 -0.96 0
v -8.639999 -1.44 0
v -9.28 -1.44 0
v -9.28 -1.12 0
v -8.639999 -1.12 0
v -9.28 -1.44 0
v -9.92 -1.44 0
v -9.92 -1.12 0
v -9.28 -1.12 0
v -9.92 -1.44 0
v -10.56 -1.44 0
v -10.56 -1.12 0
v -9.92 -1.12 0
v -10.56 -1.44 0
v -11.2 -1.44 0
v -11.2 -1.12 0
v -10.56 -1.12 0
v -11.2 -1.44 0
v -11.84 -1.44 0
v -11.84 -1.12 0
v -11.2 -1.12 0
v -11.84 -1.44 0
v -12.48 -1.44 0
v -12.48 -1.12 0
v -11.84 -1.12 0
v -8.32 -1.6 0
v -8.96 -1.6 0
v -8.96 -1.28 0
v -8.32 -1.28 0
v -8.96 -1.6 0
v -9.599999 -1.6 0
v -9.599999 -1.28 0
v -8.96 -1.28 0
v -9.599999 -1.6 0
v -10.24 -1.6 0
v -10.24 -1.28 0
v -9.599999 -1.28 0
v -10.24 -1.6 0
v -10.88 -1.6 0
v -10.88 -1.28 0
v -10.24 -1.28 0
v -10.88 -1.6 0
v -11.52 -1.6 0
v -11.52 -1.28 0
v -10.88 -1.28 0
v -11.52 -1.6 0
v -12.16 -1.6 0
v -12.16 -1.28 0
v -11.52 -1.28 0
v -10.56 -1.76 0
v -11.2 -1.76 0
v -11.2 -1.44 0
v -10.56 -1.44 0
v -11.2 -1.76 0
v -11.84 -1.76 0
v -11.84 -1.44 0
v -11.2 -1.44 0
v -11.84 -1.76 0
v -12.48 -1.76 0
v -12.48 -1.44 0
v -11.84 -1.44 0
v -10.88 -1.92 0
v -11.52 -1.92 0
v -11.52 -1.6 0
v -10.88 -1.6 0
v -11.52 -1.92 0
v -12.16 -1.92 0
v -12.16 -1.6 0
v -11.52 -1.6 0
v -11.2 -2.08 0
v -11.84 -2.08 0
v -11.84 -1.76 0
v -11.2 -1.76 0
v -17.28 -7.68 0
v -17.92 -7.68 0
v -17.92 -7.36 0
v -17.28 -7.36 0
v -17.28 -9.28 0
v -17.92 -9.28 0
v -17.92 -8.96 0
v -17.28 -8.96 0
v -17.28 -9.599999 0
v -17.92 -9.599999 0
v -17.92 -9.28 0
v -17.28 -9.28 0

# Texture cooridinates (Count = 68)
vt 0.1875 0.59375
vt 0.25 0.59375
vt 0.25 0.625
vt 0.1875 0.625
vt 0 0.71875
vt 0.0625 0.71875
vt 0.0625 0.75
vt 0 0.75
vt 0.25 0.71875
vt 0.3125 0.71875
vt 0.3125 0.75
vt 0.25 0.75
vt 0.3125 0.84375
vt 0.375 0.84375
vt 0.375 0.875
vt 0.3125 0.875
vt 0.125 0.5625
vt 0.1875 0.5625
vt 0.125 0.59375
vt 0.5 0.8125
vt 0.5625 0.8125
vt 0.5625 0.84375
vt 0.5 0.84375
vt 0.25 0.5625
vt 0 0.6875
vt 0.0625 0.6875
vt 0.25 0.6875
vt 0.3125 0.6875
vt 0.3125 0.8125
vt 0.375 0.8125
vt 0 0.59375
vt 0.0625 0.59375
vt 0.0625 0.625
vt 0 0.625
vt 0.125 0.53125
vt 0.1875 0.53125
vt 0.5 0.78125
vt 0.5625 0.78125
vt 0.125 0.4375
vt 0.1875 0.4375
vt 0.1875 0.46875
vt 0.125 0.46875
vt 0.25 0.53125
vt 0 0.65625
vt 0.0625 0.65625
vt 0.25 0.65625
vt 0.3125 0.65625
vt 0.3125 0.78125
vt 0.375 0.78125
vt 0 0.5625
vt 0.0625 0.5625
vt 0.125 0.5
vt 0.1875 0.5
vt 0.5 0.75
vt 0.5625 0.75
vt 0.125 0.40625
vt 0.1875 0.40625
vt 0.25 0.5
vt 0.3125 0.625
vt 0.375 0.75
vt 0 0.53125
vt 0.0625 0.53125
vt 0.125 0.375
vt 0.1875 0.375
vt 0 0.5
vt 0.0625 0.5
vt 0.375 0.6875
vt 0.375 0.71875

# Normal
vn 0 0 -1

# Mesh description
g cave_mesh_0005

# Faces
f 1/1/1 2/2/1 3/3/1 4/4/1
f 5/5/1 6/6/1 7/7/1 8/8/1
f 9/9/1 10/10/1 11/11/1 12/12/1
f 13/13/1 14/14/1 15/15/1 16/16/1
f 17/17/1 18/18/1 19/1/1 20/19/1
f 21/20/1 22/21/1 23/22/1 24/23/1
f 25/20/1 26/21/1 27/22/1 28/23/1
f 29/13/1 30/14/1 31/15/1 32/16/1
f 33/18/1 34/24/1 35/2/1 36/1/1
f 37/25/1 38/26/1 39/6/1 40/5/1
f 41/27/1 42/28/1 43/10/1 44/9/1
f 45/29/1 46/30/1 47/14/1 48/13/1
f 49/13/1 50/14/1 51/15/1 52/16/1
f 53/31/1 54/32/1 55/33/1 56/34/1
f 57/35/1 58/36/1 59/18/1 60/17/1
f 61/37/1 62/38/1 63/21/1 64/20/1
f 65/37/1 66/38/1 67/21/1 68/20/1
f 69/29/1 70/30/1 71/14/1 72/13/1
f 73/1/1 74/2/1 75/3/1 76/4/1
f 77/39/1 78/40/1 79/41/1 80/42/1
f 81/36/1 82/43/1 83/24/1 84/18/1
f 85/44/1 86/45/1 87/26/1 88/25/1
f 89/46/1 90/47/1 91/28/1 92/27/1
f 93/48/1 94/49/1 95/30/1 96/29/1
f 97/29/1 98/30/1 99/14/1 100/13/1
f 101/50/1 102/51/1 103/32/1 104/31/1
f 105/52/1 106/53/1 107/36/1 108/35/1
f 109/54/1 110/55/1 111/38/1 112/37/1
f 113/54/1 114/55/1 115/38/1 116/37/1
f 117/48/1 118/49/1 119/30/1 120/29/1
f 121/18/1 122/24/1 123/2/1 124/1/1
f 125/56/1 126/57/1 127/40/1 128/39/1
f 129/53/1 130/58/1 131/43/1 132/36/1
f 133/34/1 134/33/1 135/45/1 136/44/1
f 137/3/1 138/59/1 139/47/1 140/46/1
f 141/11/1 142/60/1 143/49/1 144/48/1
f 145/48/1 146/49/1 147/30/1 148/29/1
f 149/61/1 150/62/1 151/51/1 152/50/1
f 153/11/1 154/60/1 155/49/1 156/48/1
f 157/36/1 158/43/1 159/24/1 160/18/1
f 161/63/1 162/64/1 163/57/1 164/56/1
f 165/11/1 166/60/1 167/49/1 168/48/1
f 169/65/1 170/66/1 171/62/1 172/61/1
f 173/53/1 174/58/1 175/43/1 176/36/1
f 177/28/1 178/67/1 179/68/1 180/10/1
f 181/28/1 182/67/1 183/68/1 184/10/1
f 185/28/1 186/67/1 187/68/1 188/10/1

